<svg width="26" height="26" viewBox="0 0 26 26" fill="none" xmlns="http://www.w3.org/2000/svg">
<g clip-path="url(#clip0_869_5306)">
<path fill-rule="evenodd" clip-rule="evenodd" d="M12.9832 0C20.1884 0 26.0001 5.81177 26.0001 13.051C26.0001 20.1882 20.1204 26.068 12.8812 26.034C5.87988 25.966 -0.0338412 20.1542 0.000145772 13.017C0.0341327 5.81176 5.81191 0 12.9832 0ZM3.12694 19.8144C3.12694 19.9503 3.19492 20.0183 3.26289 20.1203C3.77269 20.834 4.35047 21.5137 5.03021 22.0915C5.33609 22.3634 5.64198 22.6353 5.98185 22.8732C6.93348 23.485 7.9191 24.0627 9.00668 24.4366C9.89034 24.7425 10.808 24.9804 11.7256 25.0824C12.4394 25.1503 13.1871 25.1843 13.9008 25.0824C14.3086 25.0144 14.7505 25.0144 15.1583 24.8444C15.2263 24.8784 15.2603 24.8105 15.2943 24.8105C16.1439 24.6745 16.9596 24.4026 17.7753 24.0627C20.4263 22.9072 22.4315 21.0379 23.723 18.4549C24.8786 16.1778 25.2524 13.7647 24.8786 11.2497C24.5387 8.8366 23.5191 6.72941 21.8877 4.96209C19.6786 2.54902 16.8916 1.22353 13.6289 1.01961C12.1675 0.917647 10.706 1.12157 9.31256 1.59739C7.03544 2.3451 5.16616 3.6366 3.63675 5.50588C1.90341 7.64706 1.05374 10.0941 0.95178 12.8131C0.917793 13.4928 0.985767 14.1386 1.08773 14.8183C1.29165 16.3477 1.80145 17.8092 2.58315 19.1346C2.78707 19.3046 2.88903 19.6105 3.12694 19.8144Z" fill="#8E97CD"/>
<path fill-rule="evenodd" clip-rule="evenodd" d="M15.1583 24.845C14.7505 25.0489 14.3087 25.0489 13.9008 25.0829C13.1871 25.1849 12.4394 25.1509 11.7256 25.0829C10.808 24.981 9.89035 24.743 9.00669 24.4372C7.91911 24.0633 6.93349 23.4855 5.98186 22.8738C5.64199 22.6359 5.3361 22.364 5.03022 22.0921C4.35048 21.5143 3.7727 20.8346 3.2629 20.1208C3.19493 20.0189 3.12695 19.9169 3.12695 19.8149C3.94264 17.9797 4.24852 16.0424 4.41846 14.0712C4.48643 13.1535 4.52042 12.2359 4.69035 11.3182C4.86029 10.2646 5.26813 9.31298 6.01584 8.4973C6.69558 7.78357 7.54525 7.30776 8.4629 6.96789C9.21061 6.662 9.99231 6.39011 10.842 6.35612C11.6237 6.32213 12.3714 6.42409 13.1191 6.59403C14.2407 6.86592 15.3622 7.20579 16.4158 7.7156C17.2655 8.05547 18.1492 8.39534 19.0328 8.66723C19.9505 8.93913 20.8681 9.24501 21.6498 9.82279C22.6355 10.5705 22.9073 11.5221 22.4655 12.6777C22.1936 13.3914 21.6838 13.9352 21.174 14.479C20.2564 15.4306 19.2707 16.3143 18.3871 17.2999C17.3675 18.4895 16.4498 19.713 15.8041 21.1404C15.2263 22.33 14.9544 23.5195 15.1583 24.845ZM21.7178 13.6293C21.6838 13.6293 21.6498 13.6293 21.6158 13.6633C21.5819 13.6633 21.5479 13.6973 21.5479 13.7313C21.5479 13.7313 21.5479 13.7313 21.5479 13.7653C21.5819 13.7653 21.6158 13.7313 21.6158 13.6973L21.7178 13.6293C21.7178 13.6293 21.7518 13.6293 21.7178 13.6293C21.7178 13.5953 21.7178 13.6293 21.7178 13.6293ZM11.2838 7.7156C9.99231 7.7156 8.93872 8.76919 8.93872 10.0267C8.93872 11.3182 9.99231 12.3378 11.2498 12.3718C12.5413 12.3718 13.5609 11.3182 13.5949 10.0267C13.6289 8.76919 12.5753 7.7156 11.2838 7.7156C11.3178 7.7156 11.2838 7.7156 11.2838 7.7156ZM13.1871 14.8868C13.391 15.1927 13.7649 15.4646 14.2067 15.6006C15.0904 15.9064 15.974 15.9064 16.8577 15.7365C18.4211 15.4306 19.8825 14.8868 21.208 14.0032C21.276 13.9352 21.4119 13.9352 21.4459 13.7993C21.3779 13.7653 21.3439 13.7993 21.31 13.8332C20.8681 14.1051 20.3923 14.3091 19.9165 14.513C18.693 15.0228 17.4015 15.3627 16.042 15.4306C15.0564 15.4986 14.1047 15.3966 13.1871 14.8868ZM19.6446 12.8816C19.9165 12.8816 20.1544 12.6437 20.1544 12.3378C20.1544 12.0659 19.9165 11.828 19.6106 11.862C19.3387 11.862 19.1348 12.0999 19.1348 12.3718C19.1008 12.6437 19.3387 12.8816 19.6446 12.8816Z" fill="#8E97CD"/>
<path fill-rule="evenodd" clip-rule="evenodd" d="M13.0855 6.59409C12.3378 6.45815 11.5901 6.3222 10.8084 6.35619C9.95874 6.39017 9.21102 6.66207 8.42932 6.96795C7.51168 7.30782 6.662 7.78364 5.98227 8.49736C5.23455 9.27906 4.82671 10.2307 4.65678 11.3183C4.52083 12.2359 4.48684 13.1536 4.38488 14.0712C4.21495 16.0425 3.90906 18.0137 3.09338 19.815C2.85547 19.6111 2.71952 19.3052 2.58357 19.0673C1.80187 17.7418 1.29207 16.2804 1.08815 14.751C0.986187 14.0712 0.918213 13.4255 0.9522 12.7457C1.05416 10.0268 1.90383 7.57972 3.63717 5.43854C5.13259 3.56926 7.03586 2.27776 9.31298 1.53004C10.7064 1.08821 12.1679 0.884292 13.6293 0.952265C16.8921 1.15619 19.679 2.48168 21.8881 4.89475C23.5195 6.69606 24.5051 8.80325 24.879 11.1823C25.2529 13.6974 24.879 16.1104 23.7234 18.3876C22.4319 20.9706 20.4267 22.8398 17.7757 23.9954C16.994 24.3353 16.1783 24.6072 15.2947 24.7431C15.2267 24.7431 15.1927 24.8451 15.1587 24.7771C14.9548 23.4856 15.2607 22.2621 15.7705 21.0725C16.4163 19.6451 17.3339 18.4215 18.3535 17.232C19.2032 16.2464 20.1888 15.3287 21.1404 14.4111C21.6842 13.8673 22.16 13.3235 22.4319 12.6098C22.9078 11.4542 22.6359 10.5026 21.6163 9.75488C20.8346 9.1771 19.9169 8.87122 18.9993 8.59932C18.1156 8.32743 17.2319 7.98756 16.3823 7.64769C16.2123 7.06991 15.8045 6.69606 15.2607 6.49213C14.547 6.3222 13.7993 6.35619 13.0855 6.59409ZM24.1993 13.7993H24.2672C24.4032 13.3235 24.4032 12.8137 24.4032 12.3039C24.4032 11.7261 24.3352 11.1483 24.2332 10.5706C23.8594 8.70128 23.0097 7.06991 21.6842 5.67645C20.8685 4.82678 19.9509 4.11305 19.0332 3.36534C18.2176 2.6856 17.3339 2.17579 16.3143 1.9039C15.3287 1.66599 14.377 1.53004 13.3574 1.69998C13.2895 1.69998 13.2215 1.69998 13.2215 1.76795C13.2215 1.83593 13.2895 1.83593 13.3574 1.83593C14.8529 2.10782 16.2803 2.58364 17.6738 3.12743C19.0332 3.67122 20.1888 4.45292 21.0385 5.67645C21.6163 6.52612 22.16 7.40978 22.6019 8.36142C23.1796 9.65292 23.6215 10.9784 23.8934 12.3379C24.0293 12.8817 24.0973 13.3575 24.1993 13.7993Z" fill="#D0D6E8"/>
<path fill-rule="evenodd" clip-rule="evenodd" d="M11.2836 7.71484C12.5751 7.71484 13.5947 8.76844 13.5947 10.026C13.5947 11.3175 12.5411 12.3371 11.2496 12.3711C9.95808 12.3711 8.93848 11.3175 8.93848 10.026C8.97246 8.76844 10.0261 7.71484 11.2836 7.71484ZM12.9149 10.0599C12.9149 9.14229 12.2012 8.42857 11.2836 8.42857C10.3659 8.42857 9.6522 9.14229 9.6522 10.0599C9.6522 10.9436 10.3659 11.6913 11.2496 11.6913H11.2836C12.2012 11.6913 12.9149 10.9776 12.9149 10.0599C12.9149 10.0939 12.9149 10.0599 12.9149 10.0599Z" fill="#F8FBF7"/>
<path fill-rule="evenodd" clip-rule="evenodd" d="M13.1869 14.8862C14.0706 15.43 15.0562 15.498 16.0418 15.464C17.4013 15.396 18.6928 15.0901 19.9163 14.5463C20.3922 14.3424 20.868 14.1385 21.3098 13.8666C21.3438 13.8326 21.3778 13.7986 21.4457 13.8326C21.4118 13.9346 21.3098 13.9686 21.2078 14.0365C19.8823 14.9202 18.4209 15.464 16.8575 15.7699C15.9738 15.9398 15.0562 15.9398 14.2065 15.6339C13.7987 15.43 13.3908 15.1581 13.1869 14.8862ZM13.085 6.5934C13.7987 6.38947 14.5464 6.3215 15.2601 6.5934C15.8039 6.79732 16.2118 7.17117 16.3817 7.74895C15.3281 7.20516 14.2405 6.86529 13.085 6.5934Z" fill="#565891"/>
<path fill-rule="evenodd" clip-rule="evenodd" d="M19.6104 12.8809C19.3385 12.8809 19.1006 12.643 19.1006 12.3711C19.1006 12.0992 19.3045 11.8613 19.5764 11.8613C19.8483 11.8613 20.0862 12.0652 20.1202 12.3371C20.1202 12.643 19.9163 12.8469 19.6104 12.8809Z" fill="#F8FBF7"/>
<path fill-rule="evenodd" clip-rule="evenodd" d="M21.6155 13.6969C21.6155 13.7309 21.5815 13.7649 21.5475 13.7649C21.5135 13.6969 21.5475 13.6969 21.6155 13.6969ZM21.7174 13.6289L21.6155 13.6969L21.5815 13.6629C21.6155 13.6629 21.6495 13.6289 21.7174 13.6289Z" fill="#9DA3B6"/>
<path fill-rule="evenodd" clip-rule="evenodd" d="M24.1987 13.798C24.0967 13.3222 23.9948 12.8804 23.9268 12.4046C23.6549 11.0111 23.1791 9.68563 22.6353 8.42811C22.2274 7.47648 21.6836 6.59282 21.0719 5.74314C20.2222 4.51961 19.1006 3.73791 17.7072 3.19412C16.3137 2.65033 14.8863 2.14053 13.3908 1.90262C13.3229 1.90262 13.2549 1.90262 13.2549 1.83465C13.2549 1.76667 13.3229 1.76667 13.3908 1.76667C14.3765 1.59674 15.3621 1.6987 16.3477 1.97059C17.3673 2.24249 18.251 2.78628 19.0666 3.43203C19.9843 4.17975 20.9019 4.89347 21.7176 5.74314C23.0431 7.13661 23.8928 8.76798 24.2666 10.6373C24.3686 11.215 24.4366 11.7928 24.4366 12.3706C24.4366 12.8464 24.4366 13.3562 24.3006 13.866L24.1987 13.798Z" fill="#FFFDF9"/>
<path fill-rule="evenodd" clip-rule="evenodd" d="M12.9151 10.0599C12.9151 10.9436 12.2014 11.6913 11.3177 11.6913H11.2837C10.4001 11.6913 9.65234 10.9775 9.65234 10.0599V10.0259C9.65234 9.10826 10.4001 8.39453 11.2837 8.39453C12.2014 8.42852 12.9151 9.14224 12.9151 10.0599Z" fill="#565891"/>
</g>
<defs>
<clipPath id="clip0_869_5306">
<rect width="26" height="26" fill="white"/>
</clipPath>
</defs>
</svg>
