<svg width="28" height="28" viewBox="0 0 28 28" fill="none" xmlns="http://www.w3.org/2000/svg">
<rect width="28" height="28" rx="14" fill="#8E97CD"/>
<path d="M20.901 15.5158C20.5704 15.7231 20.1847 15.7608 19.8909 15.5912C19.5235 15.3651 19.3031 14.8564 19.3031 14.1592V12.0302C19.3031 11.0127 18.9174 10.2779 18.2562 10.0895C17.1359 9.75033 16.291 11.1634 15.9788 11.691L13.9952 14.9506V10.9373C13.9768 10.0141 13.683 9.46771 13.132 9.29814C12.7647 9.18509 12.2137 9.24162 11.681 10.0706L7.25471 17.3435C6.66699 16.1941 6.35476 14.9129 6.35476 13.6128C6.35476 9.22277 9.78929 5.66173 13.9952 5.66173C18.2011 5.66173 21.6357 9.22277 21.6357 13.6128V13.6317V13.6505C21.6724 14.4984 21.4153 15.1767 20.901 15.5158ZM23.3254 13.6128V13.594V13.5752C23.307 8.24301 19.1195 3.89062 13.9952 3.89062C8.8526 3.89062 4.66504 8.24302 4.66504 13.6128C4.66504 18.9638 8.8526 23.3351 13.9952 23.3351C16.3645 23.3351 18.6052 22.4118 20.3316 20.7349C20.6806 20.3958 20.699 19.8494 20.3684 19.4914C20.0561 19.1334 19.5235 19.1146 19.1746 19.4349C19.1746 19.4349 19.1746 19.4349 19.1562 19.4537C17.7603 20.8103 15.887 21.5828 13.9585 21.5828C11.6994 21.5828 9.67909 20.5654 8.28324 18.945L12.2688 12.3881V15.4216C12.2688 16.8724 12.8198 17.3435 13.2789 17.4754C13.7381 17.6072 14.436 17.513 15.189 16.2883L17.3746 12.6519C17.4481 12.5389 17.5032 12.4258 17.5767 12.3505V14.1969C17.5767 15.5535 18.1093 16.6463 19.0276 17.1739C19.8541 17.6638 20.901 17.6072 21.7642 17.0608C22.8295 16.3449 23.3988 15.1013 23.3254 13.6128Z" fill="#F7F7FC"/>
</svg>
