<svg width="103" height="34" viewBox="0 0 103 34" fill="none" xmlns="http://www.w3.org/2000/svg">
<circle cx="17" cy="17" r="17" fill="url(#paint0_linear_189_3887)"/>
<path d="M6.49101 17.0637L13.2899 22.1171C13.3007 22.1171 13.3007 22.1278 13.3114 22.1278L15.8327 23.9946C16.0482 24.1556 16.3499 24.0054 16.3499 23.7371L16.3607 9.82153C16.3391 9.57476 16.3068 9.31726 16.2529 9.07049C16.1991 8.83445 16.1236 8.60914 16.0159 8.41602C16.1991 9.77861 15.4233 11.3665 14.1088 12.4072C13.8178 12.6433 13.4192 12.9008 12.9774 13.0832C12.5033 13.287 11.0703 13.7806 11.0703 13.7806L6.7496 15.3363C6.00614 15.6045 5.85529 16.5916 6.49101 17.0637Z" fill="white"/>
<path d="M13.236 12.9645C13.2468 12.9538 13.2684 12.9538 13.2791 12.9431C13.3007 12.9323 13.3222 12.9216 13.3546 12.9002C13.3869 12.8894 13.4084 12.868 13.4408 12.8572C13.4515 12.8465 13.4731 12.8358 13.4839 12.8358C13.5162 12.8143 13.5593 12.7929 13.5916 12.7714C13.6024 12.7607 13.6132 12.7607 13.6239 12.75C13.6563 12.7285 13.6886 12.707 13.7317 12.6856C13.7532 12.6749 13.764 12.6641 13.7856 12.6534C13.8071 12.6319 13.8394 12.6212 13.861 12.5997C13.8933 12.5783 13.9256 12.5461 13.9687 12.5246C13.9795 12.5246 13.9795 12.5139 13.9903 12.5139C14.0334 12.4817 14.0765 12.4495 14.1196 12.4174C15.4341 11.3766 16.2099 9.78873 16.0267 8.42614C15.9513 8.29739 15.8543 8.17937 15.7466 8.09353L13.5054 6.44125C13.2899 6.28032 12.9774 6.43053 12.9774 6.69875V10.5934C12.9774 13.0396 11.0703 13.7799 11.0703 13.7799C11.0703 13.7799 12.5141 13.2971 12.9774 13.0933C13.0636 13.0504 13.1498 13.0075 13.236 12.9645Z" fill="#F2EEFF"/>
<path d="M27.3667 16.7921L20.5634 11.7388C20.5527 11.7388 20.5527 11.728 20.5419 11.728L18.019 9.86118C17.8034 9.70024 17.5015 9.85045 17.5015 10.1187V24.0343C17.523 24.281 17.5554 24.5385 17.6093 24.7853C17.6632 25.0213 17.7387 25.2466 17.8465 25.4398C17.6632 24.0772 18.4395 22.4893 19.7548 21.4486C20.0459 21.2125 20.4448 20.955 20.8869 20.7726C21.3505 20.5688 22.7952 20.086 22.7952 20.086L27.1187 18.5303C27.8626 18.2513 28.0028 17.2642 27.3667 16.7921Z" fill="white"/>
<path d="M20.6282 20.8896C20.6174 20.9004 20.5958 20.9004 20.585 20.9111C20.5635 20.9218 20.5419 20.9325 20.5096 20.954C20.4772 20.9647 20.4557 20.9862 20.4233 20.9969C20.4125 21.0076 20.391 21.0184 20.3802 21.0184C20.3478 21.0398 20.3047 21.0613 20.2724 21.0827C20.2616 21.0935 20.2508 21.0935 20.24 21.1042C20.2077 21.1257 20.1753 21.1471 20.1322 21.1686C20.1106 21.1793 20.0999 21.19 20.0783 21.2008C20.0567 21.2222 20.0244 21.233 20.0028 21.2544C19.9705 21.2759 19.9381 21.3081 19.895 21.3295C19.8842 21.3295 19.8842 21.3402 19.8734 21.3402C19.8303 21.3724 19.7872 21.4046 19.7441 21.4368C18.4287 22.4775 17.6524 24.0654 17.8357 25.428C17.9112 25.5568 18.0082 25.6748 18.116 25.7606L20.3478 27.4129C20.5635 27.5738 20.8761 27.4236 20.8761 27.1554V23.2607C20.8761 20.8253 22.7845 20.0742 22.7845 20.0742C22.7845 20.0742 21.3397 20.557 20.8761 20.7609C20.8007 20.8038 20.7144 20.8467 20.6282 20.8896Z" fill="#F2EEFF"/>
<path d="M42 9.42969H47.5207C48.2356 9.42969 48.9108 9.52898 49.5661 9.72757C50.2016 9.90629 50.8172 10.1645 51.3931 10.502C51.9491 10.8396 52.4655 11.2368 52.9421 11.6936C53.3988 12.1503 53.8158 12.6865 54.1336 13.2425C54.4513 13.8184 54.7095 14.4142 54.8882 15.0695C55.0669 15.7249 55.1662 16.4 55.1662 17.1149C55.1662 17.81 55.0669 18.505 54.8882 19.1604C54.7095 19.8157 54.4513 20.4115 54.1137 20.9874C53.7761 21.5434 53.379 22.0796 52.9023 22.5363C52.4257 22.9931 51.9094 23.3903 51.3335 23.7278C50.7576 24.0456 50.142 24.3037 49.5065 24.4825C48.8512 24.6612 48.176 24.7605 47.4611 24.7605H42V9.42969V9.42969ZM47.4412 22.3179C47.9377 22.3179 48.4143 22.2583 48.8711 22.1193C49.3278 22.0002 49.7448 21.8214 50.142 21.5831C50.5392 21.3448 50.8966 21.0668 51.2144 20.7491C51.5321 20.4313 51.8101 20.0739 52.0286 19.6767C52.247 19.2795 52.4257 18.8625 52.5449 18.4058C52.664 17.9689 52.7236 17.4923 52.7236 17.0157C52.7236 16.2809 52.5846 15.566 52.3066 14.9504C52.0286 14.3149 51.6513 13.7589 51.1747 13.3021C50.698 12.8454 50.1222 12.468 49.4867 12.2099C48.8512 11.9517 48.1562 11.8127 47.4611 11.8127H44.4426V22.2782L47.4412 22.3179Z" fill="white"/>
<path d="M57.5493 29.1498L59.8727 23.4107L55.9805 14.1367H57.8869C58.3238 14.1367 58.7011 14.3949 58.8798 14.8318C59.0585 15.2488 61.1437 20.2532 61.1636 20.3326L62.8317 16.341C63.1295 15.5864 63.3877 14.9906 63.4473 14.8715C63.7253 14.2162 64.2416 14.1566 64.4601 14.1566H66.3665L64.2615 19.1609C63.9239 19.9751 63.5069 20.9879 63.0898 22.0206C62.1366 24.3639 61.0444 27.0249 60.5479 28.137C60.3295 28.6533 59.9323 29.1696 58.8004 29.1696L57.5493 29.1498Z" fill="white"/>
<path d="M98.5972 24.8001C96.8496 24.8001 95.4397 23.3107 94.9432 22.5362L94.8042 22.3178L94.9829 22.1192C95.4198 21.6625 95.8964 21.4242 96.3929 21.4242C96.8298 21.4242 97.2468 21.6029 97.6043 21.9206C97.9021 22.1987 98.2397 22.4568 98.5773 22.4568C98.7362 22.4568 98.9149 22.437 99.1135 22.3774C99.2922 22.3377 99.4511 22.2582 99.61 22.1589C99.7291 22.0795 99.8483 21.9802 99.9277 21.8611C99.9873 21.7816 100.007 21.6823 100.007 21.5433C100.007 21.4242 99.9873 21.3447 99.9277 21.2653C99.8284 21.1461 99.7291 21.027 99.5703 20.9277C99.3915 20.8086 99.1929 20.7093 98.9745 20.6298C98.7362 20.5305 98.4979 20.471 98.2596 20.4114C97.8823 20.3121 97.5248 20.1731 97.1674 19.9943C96.8099 19.8156 96.4723 19.5972 96.1943 19.3589C95.8567 19.0809 95.5985 18.7433 95.4 18.3659C95.2212 18.0284 95.1219 17.651 95.1219 17.234C95.1219 16.7773 95.2014 16.3404 95.3801 15.9432C95.5588 15.546 95.7971 15.2084 96.1149 14.9304C96.4127 14.6524 96.79 14.434 97.2269 14.2751C97.644 14.1361 98.1007 14.0566 98.5972 14.0566C99.3121 14.0566 99.9873 14.2155 100.563 14.5332C101.139 14.851 101.874 15.5063 102.072 16.0822L102.152 16.3007L101.993 16.4595C101.576 16.8368 101.139 17.0354 100.643 17.0354C100.305 17.0354 99.9873 16.9361 99.6497 16.7574C99.3717 16.5985 98.7759 16.4198 98.5972 16.4198C98.4185 16.4198 98.2397 16.4397 98.1007 16.4992C97.9617 16.539 97.8624 16.5985 97.7631 16.678C97.6837 16.7375 97.6241 16.8368 97.5645 16.9163C97.5248 17.0156 97.505 17.1149 97.505 17.234C97.505 17.3134 97.5248 17.373 97.5645 17.4326C97.6241 17.5319 97.7035 17.6113 97.8028 17.6709C97.922 17.7503 98.061 17.8298 98.2199 17.8893C98.3986 17.9489 98.5575 18.0085 98.7163 18.0482L98.9943 18.1276C99.4908 18.2667 99.9277 18.4255 100.325 18.6241C100.742 18.8227 101.099 19.061 101.397 19.339C101.715 19.617 101.953 19.9546 102.132 20.3121C102.311 20.6894 102.41 21.0866 102.41 21.5036C102.41 22.0199 102.291 22.5164 102.072 22.9334C101.854 23.3504 101.556 23.688 101.199 23.9661C100.841 24.2242 100.444 24.4427 99.9674 24.5817C99.5305 24.7207 99.0738 24.8001 98.5972 24.8001Z" fill="white"/>
<path d="M73.019 24.0051C71.8077 24.0051 70.8743 23.469 70.1991 22.6945V29.0889H67.7764V14.0957H68.9877C69.3055 14.0957 69.6232 14.2149 69.8417 14.4333C70.0601 14.6716 70.219 14.9695 70.219 15.2674V15.2872C70.914 14.4929 71.8474 13.9766 73.0389 13.9766C75.8191 13.9766 77.8248 16.0816 77.8248 18.9809C77.8049 21.9001 75.7794 24.0051 73.019 24.0051ZM72.8006 15.8631C71.3509 15.8631 70.1991 17.1341 70.1991 18.9809C70.1991 20.8476 71.3509 22.1186 72.8006 22.1186C74.2304 22.1186 75.4021 20.8476 75.4021 18.9809C75.4021 17.1341 74.2105 15.8631 72.8006 15.8631Z" fill="white"/>
<path d="M80.784 13.2027C79.9896 13.2027 79.3145 12.5474 79.3145 11.7332C79.3145 10.919 79.9896 10.2637 80.784 10.2637C81.5982 10.2637 82.2535 10.919 82.2535 11.7332C82.2337 12.5673 81.5982 13.2027 80.784 13.2027ZM80.784 14.4935H81.9954V24.6611H79.5528V15.7248C79.5528 15.0496 80.1088 14.4935 80.784 14.4935Z" fill="white"/>
<path d="M86.6619 20.609C86.6619 22.1381 87.5753 22.8331 88.4491 22.7736C89.5612 22.6941 90.4747 21.8005 90.4747 19.8544V15.3862C90.4747 14.6911 91.0704 14.1152 91.7655 14.1152H93.0364V24.6998H90.4747V23.409C89.8789 24.1637 88.8662 24.8389 87.4165 24.8389C85.5895 24.8389 84.1001 23.409 84.1001 21.2643V14.1152H86.6619V20.609V20.609Z" fill="white"/>
<defs>
<linearGradient id="paint0_linear_189_3887" x1="17" y1="0" x2="17" y2="34" gradientUnits="userSpaceOnUse">
<stop stop-color="#7770E0"/>
<stop offset="1" stop-color="#554FD8"/>
</linearGradient>
</defs>
</svg>
