<svg width="18" height="18" viewBox="0 0 18 18" fill="none" xmlns="http://www.w3.org/2000/svg">
<path d="M1.5 3.1C1.5 2.53995 1.5 2.25992 1.60899 2.04601C1.70487 1.85785 1.85785 1.70487 2.04601 1.60899C2.25992 1.5 2.53995 1.5 3.1 1.5H14.9C15.4601 1.5 15.7401 1.5 15.954 1.60899C16.1422 1.70487 16.2951 1.85785 16.391 2.04601C16.5 2.25992 16.5 2.53995 16.5 3.1V4.17059C16.5 4.41518 16.5 4.53748 16.4724 4.65257C16.4479 4.7546 16.4075 4.85215 16.3526 4.94162C16.2908 5.04253 16.2043 5.12901 16.0314 5.30196L11.1353 10.198C10.9623 10.371 10.8759 10.4575 10.814 10.5584C10.7592 10.6479 10.7188 10.7454 10.6943 10.8474C10.6667 10.9625 10.6667 11.0848 10.6667 11.3294V13.1667L7.33333 16.5V11.3294C7.33333 11.0848 7.33333 10.9625 7.3057 10.8474C7.28121 10.7454 7.2408 10.6479 7.18597 10.5584C7.12413 10.4575 7.03766 10.371 6.8647 10.198L1.96863 5.30196C1.79568 5.12901 1.7092 5.04253 1.64736 4.94162C1.59253 4.85215 1.55213 4.7546 1.52763 4.65257C1.5 4.53748 1.5 4.41518 1.5 4.17059V3.1Z" stroke="#857DFA" stroke-width="2" stroke-linecap="round" stroke-linejoin="round"/>
</svg>

