<svg width="22" height="16" viewBox="0 0 22 16" fill="none" xmlns="http://www.w3.org/2000/svg">
<path d="M18.1904 1.30815C16.8767 0.705376 15.468 0.261279 13.995 0.00692635C13.9682 0.00201742 13.9414 0.0142851 13.9276 0.038821C13.7464 0.361054 13.5458 0.781434 13.4052 1.11185C11.821 0.874677 10.2449 0.874677 8.6932 1.11185C8.55264 0.774089 8.34467 0.361054 8.16268 0.038821C8.14886 0.0151037 8.12207 0.00283606 8.09524 0.00692635C6.62315 0.260466 5.21442 0.704563 3.89993 1.30815C3.88855 1.31306 3.87879 1.32124 3.87232 1.33187C1.20026 5.32386 0.468274 9.21774 0.827363 13.0633C0.828988 13.0821 0.839549 13.1001 0.854173 13.1116C2.61712 14.4062 4.32483 15.1922 6.00084 15.7132C6.02766 15.7214 6.05608 15.7116 6.07315 15.6895C6.46961 15.1481 6.82302 14.5772 7.12603 13.9769C7.14391 13.9417 7.12684 13.9 7.09029 13.8861C6.52973 13.6735 5.99596 13.4142 5.48251 13.1198C5.4419 13.0961 5.43865 13.038 5.47601 13.0102C5.58406 12.9292 5.69213 12.8449 5.79531 12.7599C5.81397 12.7444 5.83998 12.7411 5.86193 12.7509C9.23507 14.2909 12.8869 14.2909 16.2202 12.7509C16.2422 12.7403 16.2682 12.7435 16.2877 12.7591C16.3909 12.8441 16.4989 12.9292 16.6078 13.0102C16.6451 13.038 16.6427 13.0961 16.6021 13.1198C16.0886 13.4199 15.5549 13.6735 14.9935 13.8853C14.9569 13.8992 14.9407 13.9417 14.9586 13.9769C15.2681 14.5764 15.6215 15.1472 16.0106 15.6887C16.0269 15.7116 16.0561 15.7214 16.083 15.7132C17.7671 15.1922 19.4748 14.4062 21.2377 13.1116C21.2532 13.1001 21.2629 13.083 21.2646 13.0641C21.6943 8.61821 20.5447 4.75627 18.2172 1.33268C18.2115 1.32124 18.2017 1.31306 18.1904 1.30815ZM7.62975 10.7218C6.61421 10.7218 5.77742 9.78942 5.77742 8.6444C5.77742 7.49938 6.59798 6.56703 7.62975 6.56703C8.66963 6.56703 9.49831 7.50756 9.48205 8.6444C9.48205 9.78942 8.6615 10.7218 7.62975 10.7218ZM14.4784 10.7218C13.4629 10.7218 12.6261 9.78942 12.6261 8.6444C12.6261 7.49938 13.4466 6.56703 14.4784 6.56703C15.5183 6.56703 16.347 7.50756 16.3307 8.6444C16.3307 9.78942 15.5183 10.7218 14.4784 10.7218Z" fill="#8E97CD"/>
</svg>
