<svg width="19" height="15" viewBox="0 0 19 15" fill="none" xmlns="http://www.w3.org/2000/svg">
<path d="M16.63 0.0390625H2.40836C1.77973 0.0390625 1.17684 0.295867 0.732322 0.752984C0.287809 1.2101 0.0380859 1.83009 0.0380859 2.47655V11.6171C0.0380859 12.2636 0.287809 12.8836 0.732322 13.3407C1.17684 13.7978 1.77973 14.0546 2.40836 14.0546H16.63C17.2587 14.0546 17.8616 13.7978 18.3061 13.3407C18.7506 12.8836 19.0003 12.2636 19.0003 11.6171V2.47655C19.0003 1.83009 18.7506 1.2101 18.3061 0.752984C17.8616 0.295867 17.2587 0.0390625 16.63 0.0390625ZM16.4108 4.1645L9.89251 9.64885C9.78694 9.73692 9.65514 9.785 9.5192 9.785C9.38326 9.785 9.25145 9.73692 9.14588 9.64885L2.62762 4.1645C2.55851 4.11748 2.49976 4.05607 2.45517 3.98425C2.41058 3.91242 2.38112 3.83179 2.36872 3.74753C2.35632 3.66328 2.36124 3.57728 2.38316 3.4951C2.40508 3.41292 2.44352 3.33639 2.49599 3.27044C2.54847 3.20448 2.61381 3.15059 2.68779 3.11222C2.76178 3.07385 2.84278 3.05187 2.92554 3.04769C3.00831 3.04351 3.091 3.05722 3.16829 3.08795C3.24558 3.11868 3.31574 3.16574 3.37425 3.22608L9.5192 8.39355L15.6641 3.22608C15.7866 3.14278 15.9347 3.10917 16.0798 3.13176C16.225 3.15436 16.3568 3.23156 16.4498 3.34839C16.5427 3.46523 16.5902 3.61338 16.583 3.76416C16.5758 3.91494 16.5144 4.0576 16.4108 4.1645Z" fill="#8E97CD"/>
</svg>
