<svg width="25" height="26" viewBox="0 0 25 26" fill="none" xmlns="http://www.w3.org/2000/svg">
<g clip-path="url(#clip0_667_11970)">
<path d="M12.6611 8.99219C10.4401 8.99219 8.65039 10.7943 8.65039 13.0173C8.65039 15.2295 10.4617 17.0532 12.6719 17.0424C14.8714 17.0424 16.7042 15.2079 16.6934 13.0065C16.6827 10.8051 14.8714 8.99219 12.6611 8.99219Z" fill="#8E97CD"/>
<path d="M24.5847 7.26555C24.423 5.10749 23.5174 3.3163 21.6416 2.10778C20.488 1.37404 19.2051 1.0935 17.8576 1.01796C17.4694 0.996383 17.0813 0.964012 16.6932 0.931641C14.0089 0.931641 11.3245 0.931641 8.6293 0.931641C7.99324 0.985592 7.3464 1.01796 6.71034 1.08271C3.36833 1.43879 1.09361 3.71554 0.737843 7.07133C0.673159 7.70796 0.630037 8.35538 0.586914 8.992C0.586914 11.6788 0.586914 14.3656 0.586914 17.0632C0.662379 17.8509 0.68394 18.6493 0.813308 19.4154C1.3739 22.6418 3.62706 24.7674 6.90439 24.9401C9.77205 25.0912 12.6397 25.0696 15.5181 25.0588C16.7364 25.0588 17.9761 25.0372 19.162 24.8322C22.3208 24.2927 24.3799 21.9943 24.5739 18.768C24.7141 16.4805 24.7033 14.1821 24.7141 11.8838C24.7248 10.3516 24.7033 8.79778 24.5847 7.26555ZM12.672 19.232C9.25458 19.2428 6.46238 16.4589 6.46238 13.0276C6.46238 9.58547 9.21145 6.81236 12.6505 6.81236C16.0787 6.81236 18.8602 9.57468 18.8709 13.006C18.8709 16.4265 16.0895 19.2212 12.672 19.232ZM19.1189 8.02088C18.3103 8.03167 17.6527 7.38425 17.6527 6.57497C17.6527 5.77649 18.2672 5.13986 19.065 5.11828C19.8843 5.0967 20.5419 5.73333 20.5527 6.5426C20.5743 7.34109 19.9274 8.01009 19.1189 8.02088Z" fill="#8E97CD"/>
</g>
<defs>
<clipPath id="clip0_667_11970">
<rect width="24.1379" height="24.1379" fill="white" transform="translate(0.586914 0.931641)"/>
</clipPath>
</defs>
</svg>
