<svg width="22" height="22" viewBox="0 0 22 22" fill="none" xmlns="http://www.w3.org/2000/svg">
<path d="M19.5561 0.740234H1.99238C1.15103 0.740234 0.470703 1.40446 0.470703 2.22568V19.8619C0.470703 20.6831 1.15103 21.3513 1.99238 21.3513H19.5561C20.3975 21.3513 21.0818 20.6831 21.0818 19.8659V2.22568C21.0818 1.40446 20.3975 0.740234 19.5561 0.740234ZM6.5856 18.304H3.52614V8.46537H6.5856V18.304ZM5.05587 7.12485C4.07362 7.12485 3.28058 6.3318 3.28058 5.35358C3.28058 4.37536 4.07362 3.58231 5.05587 3.58231C6.03409 3.58231 6.82714 4.37536 6.82714 5.35358C6.82714 6.32778 6.03409 7.12485 5.05587 7.12485ZM18.0344 18.304H14.979V13.5215C14.979 12.3823 14.9589 10.9129 13.3889 10.9129C11.7988 10.9129 11.5572 12.1569 11.5572 13.441V18.304H8.50582V8.46537H11.4365V9.80993H11.4767C11.8833 9.03701 12.8817 8.21981 14.3671 8.21981C17.4628 8.21981 18.0344 10.2568 18.0344 12.9056V18.304Z" fill="#8E97CD"/>
</svg>
