<svg width="25" height="24" viewBox="0 0 25 24" fill="none" xmlns="http://www.w3.org/2000/svg">
<g clip-path="url(#clip0_534_5926)">
<path d="M13.6198 11.874C13.6198 15.6305 10.6008 18.6756 6.87693 18.6756C3.15301 18.6756 0.133789 15.6298 0.133789 11.874C0.133789 8.11833 3.15278 5.07227 6.87693 5.07227C10.6011 5.07227 13.6198 8.11764 13.6198 11.874Z" fill="#8E97CD"/>
<path d="M21.0166 11.8741C21.0166 15.4099 19.5071 18.2774 17.645 18.2774C15.7829 18.2774 14.2734 15.4099 14.2734 11.8741C14.2734 8.33821 15.7827 5.4707 17.6448 5.4707C19.5069 5.4707 21.0164 8.33729 21.0164 11.8741" fill="#8E97CD"/>
<path d="M24.0422 11.8751C24.0422 15.0423 23.5114 17.6115 22.8565 17.6115C22.2015 17.6115 21.6709 15.043 21.6709 11.8751C21.6709 8.70713 22.2017 6.13867 22.8565 6.13867C23.5112 6.13867 24.0422 8.7069 24.0422 11.8751Z" fill="#8E97CD"/>
</g>
<defs>
<clipPath id="clip0_534_5926">
<rect width="23.9089" height="23.9089" fill="white" transform="translate(0.133789 0.0917969)"/>
</clipPath>
</defs>
</svg>
