<svg width="22" height="22" viewBox="0 0 22 22" fill="none" xmlns="http://www.w3.org/2000/svg">
<g clip-path="url(#clip0_534_5982)">
<path fill-rule="evenodd" clip-rule="evenodd" d="M21.4822 11.0458C21.4822 16.7374 16.8682 21.3513 11.1766 21.3513C5.48505 21.3513 0.871094 16.7374 0.871094 11.0458C0.871094 5.35419 5.48505 0.740234 11.1766 0.740234C16.8682 0.740234 21.4822 5.35419 21.4822 11.0458ZM11.546 8.34825C10.5436 8.76517 8.54026 9.62809 5.53598 10.937C5.04813 11.131 4.79258 11.3208 4.76931 11.5064C4.73 11.82 5.12275 11.9435 5.65757 12.1117C5.73032 12.1345 5.8057 12.1582 5.88298 12.1834C6.40916 12.3544 7.11697 12.5545 7.48493 12.5625C7.81871 12.5697 8.19124 12.4321 8.60253 12.1496C11.4095 10.2548 12.8585 9.29712 12.9495 9.27647C13.0136 9.2619 13.1026 9.24359 13.1628 9.29715C13.2231 9.35071 13.2172 9.45214 13.2108 9.47935C13.1719 9.64522 11.6302 11.0785 10.8324 11.8202C10.5836 12.0515 10.4072 12.2155 10.3712 12.2529C10.2904 12.3369 10.208 12.4162 10.1289 12.4925C9.64006 12.9638 9.27348 13.3172 10.1492 13.8942C10.57 14.1716 10.9068 14.4009 11.2427 14.6297C11.6096 14.8795 11.9756 15.1287 12.4491 15.4391C12.5697 15.5182 12.6849 15.6003 12.7971 15.6803C13.2241 15.9847 13.6077 16.2582 14.0816 16.2146C14.357 16.1892 14.6414 15.9303 14.7859 15.158C15.1273 13.3329 15.7984 9.3784 15.9535 7.74885C15.967 7.60608 15.95 7.42336 15.9362 7.34315C15.9225 7.26295 15.8938 7.14866 15.7896 7.06407C15.6661 6.96388 15.4755 6.94275 15.3902 6.94425C15.0026 6.95108 14.4079 7.15786 11.546 8.34825Z" fill="#8E97CD"/>
</g>
<defs>
<clipPath id="clip0_534_5982">
<rect width="20.6111" height="20.6111" fill="white" transform="translate(0.871094 0.740234)"/>
</clipPath>
</defs>
</svg>

