<svg width="21" height="18" viewBox="0 0 21 18" fill="none" xmlns="http://www.w3.org/2000/svg">
<path d="M6.48405 17.419C14.2599 17.419 18.5142 10.9752 18.5142 5.38889C18.5142 5.20774 18.5101 5.02256 18.5021 4.84141C19.3297 4.24292 20.0439 3.5016 20.6111 2.65229C19.8404 2.9952 19.022 3.21916 18.1841 3.31651C19.0664 2.78764 19.727 1.95681 20.0435 0.978035C19.2135 1.46995 18.3057 1.81695 17.3592 2.00416C16.7215 1.32653 15.8783 0.877856 14.96 0.727511C14.0416 0.577165 13.0994 0.733522 12.2788 1.17241C11.4583 1.61129 10.8052 2.30826 10.4205 3.15555C10.0358 4.00285 9.94094 4.95327 10.1506 5.85989C8.46987 5.77555 6.82566 5.33895 5.32452 4.57839C3.82338 3.81784 2.49883 2.75031 1.43674 1.44501C0.896926 2.37571 0.731743 3.47703 0.97476 4.52514C1.21778 5.57326 1.85076 6.48952 2.74506 7.0877C2.07367 7.06638 1.41699 6.88562 0.829275 6.56034V6.61268C0.828674 7.58938 1.16633 8.53615 1.78484 9.29204C2.40336 10.0479 3.26456 10.5663 4.22206 10.7591C3.60012 10.9292 2.94737 10.954 2.31432 10.8315C2.58451 11.6715 3.11019 12.4061 3.81801 12.933C4.52583 13.4598 5.38046 13.7525 6.26264 13.7702C4.76497 14.9467 2.9149 15.5848 1.01043 15.5817C0.672684 15.5812 0.335273 15.5605 0 15.5197C1.93474 16.761 4.18537 17.4202 6.48405 17.419Z" fill="#8E97CD"/>
</svg>
