<svg width="25" height="17" viewBox="0 0 25 17" fill="none" xmlns="http://www.w3.org/2000/svg">
<path d="M23.9735 4.01692C23.9735 4.01692 23.74 2.42535 23.0208 1.72651C22.1103 0.806736 21.0923 0.802227 20.6253 0.748123C17.2818 0.513672 12.2618 0.513672 12.2618 0.513672H12.2525C12.2525 0.513672 7.23258 0.513672 3.88907 0.748123C3.4221 0.802227 2.4041 0.806736 1.49351 1.72651C0.774375 2.42535 0.545559 4.01692 0.545559 4.01692C0.545559 4.01692 0.302734 5.88802 0.302734 7.75461V9.50398C0.302734 11.3706 0.540889 13.2417 0.540889 13.2417C0.540889 13.2417 0.774375 14.8332 1.48884 15.5321C2.39943 16.4519 3.59488 16.4203 4.12722 16.5195C6.0418 16.6953 12.2572 16.7494 12.2572 16.7494C12.2572 16.7494 17.2818 16.7404 20.6253 16.5105C21.0923 16.4564 22.1103 16.4519 23.0208 15.5321C23.74 14.8332 23.9735 13.2417 23.9735 13.2417C23.9735 13.2417 24.2116 11.3751 24.2116 9.50398V7.75461C24.2116 5.88802 23.9735 4.01692 23.9735 4.01692ZM9.78691 11.6276V5.13958L16.2451 8.39484L9.78691 11.6276Z" fill="#8E97CD"/>
</svg>
