<svg width="24" height="24" viewBox="0 0 24 24" fill="none" xmlns="http://www.w3.org/2000/svg">
<path d="M12 16L12.3536 16.3536C12.1583 16.5488 11.8417 16.5488 11.6464 16.3536L12 16ZM17.6464 9.64645C17.8417 9.45118 18.1583 9.45118 18.3536 9.64645C18.5488 9.84171 18.5488 10.1583 18.3536 10.3536L17.6464 9.64645ZM5.64645 10.3536C5.45118 10.1583 5.45118 9.84171 5.64645 9.64645C5.84171 9.45118 6.15829 9.45118 6.35355 9.64645L5.64645 10.3536ZM11.6464 15.6464L17.6464 9.64645L18.3536 10.3536L12.3536 16.3536L11.6464 15.6464ZM11.6464 16.3536L5.64645 10.3536L6.35355 9.64645L12.3536 15.6464L11.6464 16.3536Z" fill="#f7f7fc"/>
</svg>
