<svg width="24" height="24" viewBox="0 0 24 24" fill="none" xmlns="http://www.w3.org/2000/svg">
<path d="M12 8L11.6464 7.64645C11.8417 7.45118 12.1583 7.45118 12.3536 7.64645L12 8ZM6.35355 14.3536C6.15829 14.5488 5.84171 14.5488 5.64645 14.3536C5.45118 14.1583 5.45118 13.8417 5.64645 13.6464L6.35355 14.3536ZM18.3536 13.6464C18.5488 13.8417 18.5488 14.1583 18.3536 14.3536C18.1583 14.5488 17.8417 14.5488 17.6464 14.3536L18.3536 13.6464ZM12.3536 8.35355L6.35355 14.3536L5.64645 13.6464L11.6464 7.64645L12.3536 8.35355ZM12.3536 7.64645L18.3536 13.6464L17.6464 14.3536L11.6464 8.35355L12.3536 7.64645Z" fill="#4ED5D2"/>
</svg>
