<svg width="32" height="32" viewBox="0 0 32 32" fill="none" xmlns="http://www.w3.org/2000/svg">
<rect width="32" height="32" rx="16" fill="#1D1E42"/>
<path fill-rule="evenodd" clip-rule="evenodd" d="M11.6531 23.1113H8.71818C8.10148 23.1113 7.79685 23.1113 7.61111 22.9886C7.41049 22.8543 7.28789 22.6317 7.27303 22.3861C7.26188 22.1598 7.41421 21.8835 7.71884 21.331L14.9654 8.13867C15.2738 7.57847 15.4298 7.29837 15.6267 7.19478C15.8385 7.08351 16.0911 7.08351 16.3029 7.19478C16.4998 7.29837 16.6558 7.57847 16.9641 8.13867L18.4539 10.8245L18.4615 10.8383C18.7945 11.4392 18.9634 11.744 19.0371 12.0639C19.1189 12.413 19.1189 12.7814 19.0371 13.1306C18.9628 13.4529 18.7957 13.7598 18.4576 14.3699L14.6511 21.3195L14.6413 21.3373C14.306 21.9432 14.1361 22.2503 13.9007 22.482C13.6444 22.7353 13.336 22.9194 12.9979 23.0231C12.6896 23.1113 12.3441 23.1113 11.6531 23.1113ZM19.0646 23.1113H23.27C23.8904 23.1113 24.2025 23.1113 24.3884 22.9849C24.5889 22.8505 24.7152 22.624 24.7265 22.3786C24.7371 22.1596 24.5881 21.894 24.2961 21.3736C24.2861 21.3559 24.276 21.3379 24.2657 21.3195L22.1592 17.5977L22.1353 17.5558C21.8393 17.0388 21.6899 16.7777 21.498 16.6768C21.2863 16.5655 21.0372 16.5655 20.8256 16.6768C20.6324 16.7804 20.4764 17.0528 20.168 17.6015L18.069 21.3234L18.0618 21.3362C17.7545 21.884 17.601 22.1578 17.612 22.3824C17.6269 22.628 17.7495 22.8543 17.9501 22.9886C18.1322 23.1113 18.4442 23.1113 19.0646 23.1113Z" fill="white"/>
</svg>
