<svg width="30" height="30" viewBox="0 0 30 30" fill="none" xmlns="http://www.w3.org/2000/svg">
<rect width="30" height="30" rx="15" fill="url(#paint0_linear_67_33011)"/>
<path fill-rule="evenodd" clip-rule="evenodd" d="M10.9242 20.9316H8.17275C7.59459 20.9316 7.309 20.9316 7.13486 20.8166C6.94678 20.6906 6.83185 20.482 6.81792 20.2518C6.80746 20.0396 6.95027 19.7805 7.23586 19.2625L14.0295 6.89478C14.3186 6.36959 14.4649 6.10699 14.6495 6.00988C14.848 5.90556 15.0849 5.90556 15.2834 6.00988C15.468 6.10699 15.6143 6.36959 15.9033 6.89478L17.3 9.41279L17.3071 9.42563C17.6193 9.98906 17.7776 10.2748 17.8468 10.5747C17.9234 10.902 17.9234 11.2473 17.8468 11.5747C17.7771 11.8768 17.6204 12.1646 17.3034 12.7366L13.7349 19.2518L13.7256 19.2684C13.4114 19.8365 13.2521 20.1244 13.0313 20.3416C12.791 20.5791 12.5019 20.7517 12.185 20.849C11.8959 20.9316 11.572 20.9316 10.9242 20.9316ZM17.8725 20.9316H21.8151C22.3967 20.9316 22.6893 20.9316 22.8636 20.8131C23.0516 20.6871 23.1699 20.4748 23.1805 20.2447C23.1905 20.0394 23.0508 19.7904 22.7771 19.3026C22.7677 19.2859 22.7582 19.269 22.7486 19.2518L20.7737 15.7626L20.7513 15.7233C20.4738 15.2387 20.3337 14.9939 20.1538 14.8993C19.9554 14.795 19.7218 14.795 19.5234 14.8993C19.3423 14.9964 19.196 15.2518 18.907 15.7662L16.9391 19.2554L16.9324 19.2675C16.6443 19.781 16.5004 20.0377 16.5107 20.2482C16.5247 20.4785 16.6396 20.6906 16.8277 20.8166C16.9983 20.9316 17.2909 20.9316 17.8725 20.9316Z" fill="white"/>
<defs>
<linearGradient id="paint0_linear_67_33011" x1="30" y1="30" x2="0" y2="0" gradientUnits="userSpaceOnUse">
<stop stop-color="#D91D1E"/>
<stop offset="1" stop-color="#FF7576"/>
</linearGradient>
</defs>
</svg>
