<svg width="18" height="18" viewBox="0 0 18 18" fill="none" xmlns="http://www.w3.org/2000/svg">
<rect x="0.5" y="0.5" width="17" height="17" rx="8.5" fill="url(#paint0_linear_117_6991)" stroke="#F7C0C0"/>
<path fill-rule="evenodd" clip-rule="evenodd" d="M6.82702 12.5556H5.35958C5.05123 12.5556 4.89891 12.5556 4.80604 12.4943C4.70573 12.4271 4.64443 12.3158 4.637 12.193C4.63143 12.0799 4.70759 11.9417 4.85991 11.6654L8.48321 5.06928C8.63738 4.78917 8.71539 4.64912 8.81384 4.59733C8.91972 4.54169 9.04604 4.54169 9.15192 4.59733C9.25037 4.64912 9.32839 4.78917 9.48255 5.06928L10.2274 6.41221L10.2312 6.41907C10.3977 6.71956 10.4822 6.87194 10.5191 7.03188C10.5599 7.20646 10.5599 7.39063 10.5191 7.56522C10.4819 7.72637 10.3983 7.87985 10.2293 8.18489L8.32605 11.6597L8.32113 11.6686C8.15351 11.9715 8.06856 12.1251 7.95083 12.2409C7.82266 12.3676 7.66849 12.4596 7.49945 12.5115C7.34527 12.5556 7.17253 12.5556 6.82702 12.5556ZM10.5328 12.5556H12.6355C12.9457 12.5556 13.1017 12.5556 13.1947 12.4924C13.295 12.4252 13.3581 12.312 13.3637 12.1893C13.3691 12.0798 13.2946 11.947 13.1486 11.6868C13.1435 11.6779 13.1385 11.6689 13.1334 11.6597L12.0801 9.79879L12.0681 9.77783C11.9201 9.51934 11.8454 9.38881 11.7495 9.33835C11.6436 9.28271 11.5191 9.28271 11.4133 9.33835C11.3167 9.39015 11.2387 9.52636 11.0845 9.8007L10.035 11.6616L10.0314 11.668C9.87776 11.9419 9.80097 12.0788 9.80651 12.1911C9.81394 12.3139 9.87524 12.4271 9.97554 12.4943C10.0666 12.5556 10.2226 12.5556 10.5328 12.5556Z" fill="white"/>
<defs>
<linearGradient id="paint0_linear_117_6991" x1="17" y1="17" x2="1" y2="1" gradientUnits="userSpaceOnUse">
<stop stop-color="#D91D1E"/>
<stop offset="1" stop-color="#FF7576"/>
</linearGradient>
</defs>
</svg>
