<svg width="18" height="18" viewBox="0 0 18 18" fill="none" xmlns="http://www.w3.org/2000/svg">
<rect width="18" height="18" rx="9" fill="url(#paint0_linear_650_5090)"/>
<path fill-rule="evenodd" clip-rule="evenodd" d="M6.55491 13H4.90404C4.55714 13 4.38579 13 4.28131 12.931C4.16846 12.8554 4.0995 12.7302 4.09114 12.5921C4.08487 12.4648 4.17055 12.3093 4.34191 11.9985L8.41812 4.57788C8.59157 4.26277 8.67933 4.10521 8.79008 4.04694C8.9092 3.98435 9.05131 3.98435 9.17042 4.04694C9.28117 4.10521 9.36895 4.26277 9.54238 4.57788L10.3804 6.08869L10.3846 6.0964C10.572 6.43445 10.667 6.60588 10.7085 6.78581C10.7544 6.98221 10.7544 7.18941 10.7085 7.38582C10.6667 7.56711 10.5726 7.73978 10.3825 8.08295L8.24132 11.9921L8.23578 12.0021C8.04721 12.3429 7.95165 12.5157 7.8192 12.646C7.67501 12.7885 7.50156 12.892 7.31139 12.9504C7.13794 13 6.94361 13 6.55491 13ZM10.7239 13H13.0894C13.4384 13 13.614 13 13.7185 12.9289C13.8313 12.8533 13.9024 12.7259 13.9087 12.5879C13.9147 12.4647 13.8309 12.3153 13.6666 12.0225C13.661 12.0126 13.6553 12.0024 13.6495 11.9921L12.4646 9.89858L12.4512 9.87501C12.2846 9.58421 12.2006 9.43735 12.0927 9.38059C11.9736 9.31799 11.8335 9.31799 11.7144 9.38059C11.6058 9.43886 11.518 9.5921 11.3446 9.90074L10.1639 11.9943L10.1598 12.0015C9.98699 12.3096 9.90061 12.4636 9.90684 12.59C9.9152 12.7281 9.98415 12.8554 10.097 12.931C10.1994 13 10.3749 13 10.7239 13Z" fill="white"/>
<defs>
<linearGradient id="paint0_linear_650_5090" x1="18" y1="18" x2="0" y2="0" gradientUnits="userSpaceOnUse">
<stop stop-color="#D91D1E"/>
<stop offset="1" stop-color="#FF7576"/>
</linearGradient>
</defs>
</svg>
