<svg width="32" height="32" viewBox="0 0 32 32" fill="none" xmlns="http://www.w3.org/2000/svg">
<path d="M17.3333 26.6663V23.9997C17.3333 20.3178 14.3486 17.333 10.6667 17.333C6.98477 17.333 4 20.3178 4 23.9997V26.6663H17.3333ZM17.3333 26.6663H28V25.333C28 21.4056 25.0152 18.6663 21.3333 18.6663C19.4489 18.6663 17.7471 19.5003 16.5346 20.8411M14.6667 9.33301C14.6667 11.5421 12.8758 13.333 10.6667 13.333C8.45753 13.333 6.66667 11.5421 6.66667 9.33301C6.66667 7.12387 8.45753 5.33301 10.6667 5.33301C12.8758 5.33301 14.6667 7.12387 14.6667 9.33301ZM24 11.9997C24 13.4724 22.8061 14.6663 21.3333 14.6663C19.8606 14.6663 18.6667 13.4724 18.6667 11.9997C18.6667 10.5269 19.8606 9.33301 21.3333 9.33301C22.8061 9.33301 24 10.5269 24 11.9997Z" stroke="#D6D8E7" stroke-width="2" stroke-linecap="round" stroke-linejoin="round"/>
</svg>
