<svg width="32" height="32" viewBox="0 0 32 32" fill="none" xmlns="http://www.w3.org/2000/svg">
<path d="M5 15.0664C5 8.99127 9.92487 4.06641 16 4.06641V2.06641C8.8203 2.06641 3 7.8867 3 15.0664H5ZM16 4.06641C22.0751 4.06641 27 8.99127 27 15.0664H29C29 7.8867 23.1797 2.06641 16 2.06641V4.06641ZM4 16.0664H6.66667V14.0664H4V16.0664ZM8.33333 17.7331V20.3997H10.3333V17.7331H8.33333ZM6.66667 22.0664H5.33333V24.0664H6.66667V22.0664ZM5.33333 22.0664C5.14924 22.0664 5 21.9172 5 21.7331H3C3 23.0217 4.04467 24.0664 5.33333 24.0664V22.0664ZM8.33333 20.3997C8.33333 21.3202 7.58714 22.0664 6.66667 22.0664V24.0664C8.69171 24.0664 10.3333 22.4248 10.3333 20.3997H8.33333ZM6.66667 16.0664C7.58714 16.0664 8.33333 16.8126 8.33333 17.7331H10.3333C10.3333 15.708 8.69171 14.0664 6.66667 14.0664V16.0664ZM28 14.0664H25.3333V16.0664H28V14.0664ZM21.6667 17.7331V20.3997H23.6667V17.7331H21.6667ZM25.3333 24.0664H26.6667V22.0664H25.3333V24.0664ZM26.6667 24.0664C27.9553 24.0664 29 23.0217 29 21.7331H27C27 21.9172 26.8508 22.0664 26.6667 22.0664V24.0664ZM21.6667 20.3997C21.6667 22.4248 23.3083 24.0664 25.3333 24.0664V22.0664C24.4129 22.0664 23.6667 21.3202 23.6667 20.3997H21.6667ZM25.3333 14.0664C23.3083 14.0664 21.6667 15.708 21.6667 17.7331H23.6667C23.6667 16.8126 24.4129 16.0664 25.3333 16.0664V14.0664ZM5.66667 23.0664V24.3997H7.66667V23.0664H5.66667ZM9.33333 28.0664H12V26.0664H9.33333V28.0664ZM5.66667 24.3997C5.66667 26.4248 7.30829 28.0664 9.33333 28.0664V26.0664C8.41286 26.0664 7.66667 25.3202 7.66667 24.3997H5.66667ZM14 26.0664H15.3333V24.0664H14V26.0664ZM15.3333 28.0664H14V30.0664H15.3333V28.0664ZM14 28.0664C13.4477 28.0664 13 27.6187 13 27.0664H11C11 28.7233 12.3431 30.0664 14 30.0664V28.0664ZM16.3333 27.0664C16.3333 27.6187 15.8856 28.0664 15.3333 28.0664V30.0664C16.9902 30.0664 18.3333 28.7233 18.3333 27.0664H16.3333ZM15.3333 26.0664C15.8856 26.0664 16.3333 26.5141 16.3333 27.0664H18.3333C18.3333 25.4096 16.9902 24.0664 15.3333 24.0664V26.0664ZM14 24.0664C12.3431 24.0664 11 25.4096 11 27.0664H13C13 26.5141 13.4477 26.0664 14 26.0664V24.0664ZM3 15.0664V21.7331H5V15.0664H3ZM27 15.0664V21.7331H29V15.0664H27Z" fill="#D6D8E7"/>
</svg>
