<svg width="32" height="32" viewBox="0 0 32 32" fill="none" xmlns="http://www.w3.org/2000/svg">
<path d="M15.9999 19.3333V22M9.33325 13.3717C9.96181 13.3333 10.7367 13.3333 11.7333 13.3333H20.2666C21.2631 13.3333 22.038 13.3333 22.6666 13.3717M9.33325 13.3717C8.54883 13.4196 7.99231 13.5273 7.51729 13.7693C6.76464 14.1528 6.15272 14.7647 5.76923 15.5174C5.33325 16.373 5.33325 17.4931 5.33325 19.7333V21.6C5.33325 23.8402 5.33325 24.9603 5.76923 25.816C6.15272 26.5686 6.76464 27.1805 7.51729 27.564C8.37294 28 9.49304 28 11.7333 28H20.2666C22.5068 28 23.6269 28 24.4825 27.564C25.2352 27.1805 25.8471 26.5686 26.2306 25.816C26.6666 24.9603 26.6666 23.8402 26.6666 21.6V19.7333C26.6666 17.4931 26.6666 16.373 26.2306 15.5174C25.8471 14.7647 25.2352 14.1528 24.4825 13.7693C24.0075 13.5273 23.451 13.4196 22.6666 13.3717M9.33325 13.3717V10.6667C9.33325 6.98477 12.318 4 15.9999 4C19.6818 4 22.6666 6.98477 22.6666 10.6667V13.3717" stroke="#D6D8E7" stroke-width="2" stroke-linecap="round" stroke-linejoin="round"/>
</svg>
