<svg width="30" height="30" viewBox="0 0 30 30" fill="none" xmlns="http://www.w3.org/2000/svg">
<rect width="30" height="30" rx="15" fill="url(#paint0_linear_67_32973)"/>
<path d="M7.7921 15.2442L7.80386 19.5584L11.4696 21.7155V24.2413L5.65853 20.8331V13.9827L7.7921 15.2442ZM7.7921 10.9301V13.4441L5.65723 12.1812V9.66718L7.7921 8.4043L9.93742 9.66718L7.7921 10.9301ZM13.0005 9.66718L15.1354 8.4043L17.2807 9.66718L15.1354 10.9301L13.0005 9.66718Z" fill="white"/>
<path d="M9.33594 18.6642V16.1385L11.4708 17.4013V19.9153L9.33594 18.6642ZM13.0017 22.6202L15.1366 23.8831L17.2819 22.6202V25.1342L15.1366 26.3971L13.0017 25.1342V22.6202ZM20.3437 9.66718L22.4785 8.4043L24.6239 9.66718V12.1812L22.4785 13.4441V10.9301L20.3437 9.66718ZM22.4785 19.5584L22.4903 15.2442L24.6252 13.9814V20.8318L18.8141 24.24V21.7142L22.4785 19.5584Z" fill="white"/>
<path d="M20.9464 18.6644L18.8115 19.9155V17.4016L20.9464 16.1387V18.6644Z" fill="white"/>
<path d="M20.9476 11.8237L20.9594 14.3494L17.2832 16.5065V20.8312L15.1483 22.0823L13.0135 20.8312V16.5065L9.33724 14.3494V11.8237L11.4813 10.5608L15.1353 12.7283L18.8115 10.5608L20.9568 11.8237H20.9476ZM9.33594 7.51079L15.1366 4.09082L20.9476 7.51079L18.8128 8.77367L15.1366 6.60612L11.4708 8.77367L9.33594 7.51079Z" fill="white"/>
<defs>
<linearGradient id="paint0_linear_67_32973" x1="30" y1="30" x2="0" y2="0" gradientUnits="userSpaceOnUse">
<stop stop-color="#D1A000"/>
<stop offset="1" stop-color="#FFD632"/>
</linearGradient>
</defs>
</svg>
