<svg width="17" height="17" viewBox="0 0 17 17" fill="none" xmlns="http://www.w3.org/2000/svg">
<path d="M0 4C0 1.79086 1.79086 0 4 0H13C15.2091 0 17 1.79086 17 4V13C17 15.2091 15.2091 17 13 17H4C1.79086 17 0 15.2091 0 13V4Z" fill="url(#paint0_linear_1_5139)"/>
<path d="M4.41642 8.63809L4.42309 11.0828L6.50035 12.3051V13.7364L3.20741 11.8051V7.92319L4.41642 8.63809ZM4.41642 6.19338V7.61798L3.20667 6.90234V5.47775L4.41642 4.76212L5.63211 5.47775L4.41642 6.19338ZM7.36785 5.47775L8.57761 4.76212L9.79329 5.47775L8.57761 6.19338L7.36785 5.47775Z" fill="white"/>
<path d="M5.29077 10.5761V9.14481L6.50053 9.86044V11.285L5.29077 10.5761ZM7.36803 12.8178L8.57779 13.5334L9.79347 12.8178V14.2424L8.57779 14.958L7.36803 14.2424V12.8178ZM11.5285 5.47775L12.7382 4.76212L13.9539 5.47775V6.90234L12.7382 7.61798V6.19338L11.5285 5.47775ZM12.7382 11.0828L12.7449 8.63809L13.9547 7.92245V11.8044L10.6617 13.7357V12.3044L12.7382 11.0828Z" fill="white"/>
<path d="M11.8705 10.5759L10.6608 11.2849V9.86032L11.8705 9.14468V10.5759Z" fill="white"/>
<path d="M11.8707 6.70019L11.8774 8.13145L9.79422 9.3538V11.8044L8.58446 12.5134L7.3747 11.8044V9.3538L5.29151 8.13145V6.70019L6.50646 5.98456L8.57705 7.21283L10.6602 5.98456L11.8759 6.70019H11.8707ZM5.29077 4.25622L8.57779 2.31824L11.8707 4.25622L10.661 4.97185L8.57779 3.74357L6.50053 4.97185L5.29077 4.25622Z" fill="white"/>
<defs>
<linearGradient id="paint0_linear_1_5139" x1="17" y1="17" x2="0" y2="0" gradientUnits="userSpaceOnUse">
<stop stop-color="#D1A000"/>
<stop offset="1" stop-color="#FFD632"/>
</linearGradient>
</defs>
</svg>
