<svg width="18" height="18" viewBox="0 0 18 18" fill="none" xmlns="http://www.w3.org/2000/svg">
<rect x="0.5" y="0.5" width="17" height="17" rx="8.5" fill="url(#paint0_linear_117_6979)" stroke="#F6F7C0"/>
<path fill-rule="evenodd" clip-rule="evenodd" d="M6.92915 8.14874L9.00089 6.07791L11.0735 8.15043L12.2783 6.94483L9.00089 3.66672L5.72352 6.94399L6.92915 8.14874ZM3.66699 9.00024L4.87219 7.79509L6.07738 9.00024L4.87219 10.2054L3.66699 9.00024ZM9.0012 11.9229L6.92946 9.85127L5.72214 11.0552L5.72382 11.0569L9.0012 14.3333L12.2786 11.0552L12.2794 11.0543L11.0738 9.85043L9.0012 11.9229ZM11.9234 9.00047L13.1286 7.79532L14.3338 9.00047L13.1286 10.2056L11.9234 9.00047ZM9.00146 7.77632L10.2239 8.99961H10.2248L10.2239 9.00045L9.00146 10.2237L7.77897 9.00214L7.77729 8.99961L7.77897 8.99793L7.99297 8.78394L8.09744 8.68031L9.00146 7.77632Z" fill="white"/>
<defs>
<linearGradient id="paint0_linear_117_6979" x1="17" y1="17" x2="1" y2="1" gradientUnits="userSpaceOnUse">
<stop stop-color="#D1A000"/>
<stop offset="1" stop-color="#FFD632"/>
</linearGradient>
</defs>
</svg>
