<svg width="18" height="18" viewBox="0 0 18 18" fill="none" xmlns="http://www.w3.org/2000/svg">
<rect width="18" height="18" rx="9" fill="url(#paint0_linear_123_3532)"/>
<path d="M4.67594 9.14596L4.683 11.7345L6.88245 13.0287V14.5442L3.3958 12.4993V8.38902L4.67594 9.14596ZM4.67594 6.55745V8.06585L3.39502 7.30812V5.79972L4.67594 5.04199L5.96314 5.79972L4.67594 6.55745ZM7.80098 5.79972L9.0819 5.04199L10.3691 5.79972L9.0819 6.55745L7.80098 5.79972Z" fill="white"/>
<path d="M5.60156 11.1979V9.68249L6.88248 10.4402V11.9486L5.60156 11.1979ZM7.80101 13.5715L9.08193 14.3293L10.3691 13.5715V15.0799L9.08193 15.8377L7.80101 15.0799V13.5715ZM12.2062 5.79972L13.4871 5.04199L14.7743 5.79972V7.30812L13.4871 8.06585V6.55745L12.2062 5.79972ZM13.4871 11.7345L13.4942 9.14596L14.7751 8.38823V12.4985L11.2884 14.5434V13.0279L13.4871 11.7345Z" fill="white"/>
<path d="M12.5685 11.1971L11.2876 11.9478V10.4394L12.5685 9.68164V11.1971Z" fill="white"/>
<path d="M12.5686 7.09381L12.5756 8.60927L10.3699 9.90353V12.4983L9.08899 13.249L7.80807 12.4983V9.90353L5.60235 8.60927V7.09381L6.88876 6.33609L9.08115 7.63662L11.2869 6.33609L12.5741 7.09381H12.5686ZM5.60156 4.50609L9.08193 2.4541L12.5686 4.50609L11.2877 5.26381L9.08193 3.96328L6.88248 5.26381L5.60156 4.50609Z" fill="white"/>
<defs>
<linearGradient id="paint0_linear_123_3532" x1="18" y1="18" x2="0" y2="0" gradientUnits="userSpaceOnUse">
<stop stop-color="#D1A000"/>
<stop offset="1" stop-color="#FFD632"/>
</linearGradient>
</defs>
</svg>
