<svg width="48" height="48" viewBox="0 0 48 48" fill="none" xmlns="http://www.w3.org/2000/svg">
<mask id="mask0_1_4741" style="mask-type:alpha" maskUnits="userSpaceOnUse" x="0" y="0" width="48" height="48">
<rect width="48" height="48" fill="#D9D9D9"/>
</mask>
<g mask="url(#mask0_1_4741)">
<path fill-rule="evenodd" clip-rule="evenodd" d="M24.0148 4.6674C24.1285 4.57652 24.2928 4.5 24.4895 4.5H24.4903C35.5569 4.5114 44.536 13.4908 44.536 24.5568C44.536 29.9249 42.4208 34.792 38.9842 38.392H41.3886C41.7904 38.392 42.1161 38.7177 42.1161 39.1196C42.1161 39.5214 41.7904 39.8471 41.3886 39.8471H37.2002C36.9584 39.8471 36.7773 39.7337 36.671 39.6275C36.5647 39.5213 36.4507 39.34 36.4507 39.0976V35.1267C36.4507 34.7249 36.7764 34.3992 37.1782 34.3992C37.5801 34.3992 37.9058 34.7249 37.9058 35.1267V37.4144C41.1111 34.0703 43.0809 29.5467 43.0809 24.5568C43.0809 14.5274 35.1267 6.34445 25.1841 5.96857V24.6446C25.1841 25.0464 24.8584 25.3722 24.4566 25.3722C24.0547 25.3722 23.729 25.0464 23.729 24.6446V5.26049C23.729 4.9787 23.878 4.77666 24.0148 4.6674Z" fill="url(#paint0_linear_1_4741)"/>
<path fill-rule="evenodd" clip-rule="evenodd" d="M24.3803 43.1355C24.2665 43.2264 24.1023 43.3029 23.9055 43.3029L23.9047 43.3029C12.8381 43.2915 3.85899 34.3121 3.85899 23.2461C3.85899 17.878 5.97423 13.0109 9.41082 9.41088L7.00646 9.41088C6.60464 9.41088 6.27891 9.08514 6.27891 8.68333C6.27891 8.28152 6.60464 7.95578 7.00646 7.95578L11.1948 7.95578C11.4366 7.95578 11.6177 8.06923 11.724 8.17543C11.8303 8.28157 11.9443 8.46288 11.9443 8.70529L11.9443 12.6761C11.9443 13.078 11.6186 13.4037 11.2168 13.4037C10.815 13.4037 10.4892 13.078 10.4892 12.6761L10.4892 10.3885C7.28395 13.7326 5.31409 18.2562 5.31409 23.2461C5.31409 33.2755 13.2683 41.4584 23.2109 41.8343L23.2109 23.1583C23.2109 22.7565 23.5367 22.4307 23.9385 22.4307C24.3403 22.4307 24.666 22.7565 24.666 23.1583L24.666 42.5424C24.666 42.8242 24.517 43.0262 24.3803 43.1355Z" fill="url(#paint1_linear_1_4741)"/>
<circle cx="24.412" cy="23.907" r="12.914" fill="url(#paint2_linear_1_4741)"/>
<path d="M16.4073 24.2173L21.685 28.1568C21.6934 28.1568 21.6934 28.1651 21.7017 28.1651L23.6589 29.6205C23.8262 29.7459 24.0604 29.6288 24.0604 29.4197L24.0687 18.5716C24.052 18.3792 24.0269 18.1785 23.9851 17.9861C23.9433 17.8021 23.8847 17.6264 23.8011 17.4759C23.9433 18.5381 23.3411 19.776 22.3207 20.5873C22.0948 20.7713 21.7854 20.9721 21.4424 21.1142C21.0744 21.2732 19.962 21.6579 19.962 21.6579L16.608 22.8707C16.0309 23.0798 15.9138 23.8493 16.4073 24.2173Z" fill="#F2EEFF"/>
<path d="M21.645 21.0223C21.6534 21.0139 21.6701 21.0139 21.6785 21.0056C21.6952 20.9972 21.7119 20.9888 21.737 20.9721C21.7621 20.9637 21.7789 20.947 21.804 20.9387C21.8123 20.9303 21.829 20.9219 21.8374 20.9219C21.8625 20.9052 21.896 20.8885 21.921 20.8717C21.9294 20.8634 21.9378 20.8634 21.9461 20.855C21.9712 20.8383 21.9963 20.8216 22.0298 20.8048C22.0465 20.7965 22.0549 20.7881 22.0716 20.7797C22.0883 20.763 22.1134 20.7546 22.1301 20.7379C22.1552 20.7212 22.1803 20.6961 22.2138 20.6794C22.2222 20.6794 22.2222 20.671 22.2305 20.671C22.264 20.6459 22.2974 20.6208 22.3309 20.5957C23.3513 19.7844 23.9535 18.5465 23.8113 17.4843C23.7528 17.3839 23.6775 17.2919 23.5939 17.225L21.8541 15.937C21.6869 15.8115 21.4443 15.9286 21.4443 16.1377V19.1738C21.4443 21.0808 19.9639 21.658 19.9639 21.658C19.9639 21.658 21.0846 21.2816 21.4443 21.1227C21.5112 21.0892 21.5781 21.0557 21.645 21.0223Z" fill="#DBD9FF"/>
<path d="M32.5337 23.8235L27.256 19.8841C27.2476 19.8841 27.2476 19.8757 27.2393 19.8757L25.2821 18.4204C25.1148 18.2949 24.8806 18.412 24.8806 18.6211V29.4692C24.8973 29.6616 24.9224 29.8623 24.9643 30.0547C25.0061 30.2387 25.0646 30.4144 25.1483 30.5649C25.0061 29.5027 25.6083 28.2648 26.6287 27.4535C26.8545 27.2695 27.164 27.0688 27.5069 26.9266C27.8666 26.7677 28.9874 26.3913 28.9874 26.3913L32.3413 25.1785C32.9184 24.961 33.0272 24.1915 32.5337 23.8235Z" fill="#F2EEFF"/>
<path d="M27.3056 27.0193C27.2972 27.0276 27.2805 27.0276 27.2721 27.036C27.2554 27.0444 27.2387 27.0527 27.2136 27.0695C27.1885 27.0778 27.1718 27.0945 27.1467 27.1029C27.1383 27.1113 27.1216 27.1196 27.1132 27.1196C27.0881 27.1364 27.0547 27.1531 27.0296 27.1698C27.0212 27.1782 27.0129 27.1782 27.0045 27.1866C26.9794 27.2033 26.9543 27.22 26.9209 27.2367C26.9041 27.2451 26.8958 27.2535 26.879 27.2618C26.8623 27.2786 26.8372 27.2869 26.8205 27.3036C26.7954 27.3204 26.7703 27.3455 26.7368 27.3622C26.7285 27.3622 26.7285 27.3706 26.7201 27.3706C26.6867 27.3957 26.6532 27.4207 26.6197 27.4458C25.5993 28.2571 24.9971 29.495 25.1393 30.5573C25.1979 30.6576 25.2731 30.7496 25.3568 30.8165L27.0881 32.1046C27.2554 32.2301 27.498 32.113 27.498 31.9039V28.8677C27.498 26.9691 28.9784 26.3836 28.9784 26.3836C28.9784 26.3836 27.8576 26.76 27.498 26.9189C27.4394 26.9524 27.3725 26.9858 27.3056 27.0193Z" fill="#DBD9FF"/>
</g>
<defs>
<linearGradient id="paint0_linear_1_4741" x1="23.685" y1="4.44511" x2="37.5083" y2="34.6383" gradientUnits="userSpaceOnUse">
<stop stop-color="#F8845B" stop-opacity="0.3"/>
<stop offset="1" stop-color="#F0603A"/>
</linearGradient>
<linearGradient id="paint1_linear_1_4741" x1="24.5943" y1="43.3688" x2="9.04294" y2="13.4484" gradientUnits="userSpaceOnUse">
<stop stop-color="#F8845B" stop-opacity="0.3"/>
<stop offset="1" stop-color="#F0603A"/>
</linearGradient>
<linearGradient id="paint2_linear_1_4741" x1="24.412" y1="10.993" x2="24.412" y2="36.8209" gradientUnits="userSpaceOnUse">
<stop stop-color="#7770E0"/>
<stop offset="1" stop-color="#554FD8"/>
</linearGradient>
</defs>
</svg>
