<svg width="100" height="100" viewBox="0 0 100 100" fill="none" xmlns="http://www.w3.org/2000/svg">
<path d="M98.504 62.0952C91.8254 88.8812 64.6924 105.183 37.9002 98.5031C11.1193 91.8252 -5.18395 64.6937 1.4976 37.9099C8.17328 11.121 35.3062 -5.18169 62.0901 1.49617C88.8803 8.17403 105.183 35.3085 98.5032 62.0957L98.5037 62.0952H98.504Z" fill="#F7931A"/>
<path d="M72.0503 42.8764C73.0455 36.2225 67.9791 32.6458 61.0512 30.2597L63.2987 21.2464L57.8114 19.8793L55.6236 28.6553C54.181 28.2955 52.6995 27.9565 51.2271 27.6205L53.4308 18.7866L47.947 17.4194L45.6983 26.4298C44.5045 26.158 43.332 25.8894 42.1945 25.6064L42.2008 25.5781L34.6337 23.6887L33.174 29.5488C33.174 29.5488 37.2451 30.4819 37.1594 30.5393C39.3814 31.0938 39.7832 32.5646 39.7165 33.7304L37.1564 43.9987C37.3094 44.0375 37.5079 44.0937 37.7269 44.1817C37.5438 44.1362 37.349 44.0866 37.1469 44.0382L33.5585 58.4226C33.287 59.0976 32.5977 60.1107 31.0441 59.726C31.0991 59.8057 27.0559 58.7308 27.0559 58.7308L24.3315 65.0113L31.4724 66.7912C32.8008 67.1243 34.1026 67.4728 35.3846 67.8006L33.1139 76.9172L38.5948 78.2844L40.8435 69.2645C42.3409 69.6709 43.794 70.0458 45.2165 70.3992L42.9754 79.3766L48.4629 80.7437L50.7334 71.6442C60.0904 73.4148 67.1261 72.7009 70.0875 64.2385C72.4738 57.4252 69.9687 53.4954 65.0461 50.9326C68.6315 50.1059 71.3321 47.7479 72.0522 42.8771L72.0505 42.8759L72.0503 42.8764ZM59.5131 60.4548C57.8173 67.268 46.3445 63.585 42.6249 62.6614L45.6381 50.5834C49.3575 51.5119 61.2854 53.3492 59.5133 60.4548H59.5131ZM61.2101 42.7777C59.6631 48.975 50.1143 45.8265 47.0167 45.0544L49.7486 34.1004C52.8462 34.8724 62.8216 36.3134 61.2106 42.7777H61.2101Z" fill="white"/>
</svg>
