<svg width="40" height="40" viewBox="0 0 40 40" fill="none" xmlns="http://www.w3.org/2000/svg">
<rect opacity="0.2" width="40" height="40" rx="12" fill="#7770E0"/>
<path d="M13 17H27M23 26V23M17 26H17.01M20 26H20.01M20 23H20.01M17 23H17.01M23 20H23.01M20 20H20.01M17 20H17.01M16.2 29H23.8C24.9201 29 25.4802 29 25.908 28.782C26.2843 28.5903 26.5903 28.2843 26.782 27.908C27 27.4802 27 26.9201 27 25.8V14.2C27 13.0799 27 12.5198 26.782 12.092C26.5903 11.7157 26.2843 11.4097 25.908 11.218C25.4802 11 24.9201 11 23.8 11H16.2C15.0799 11 14.5198 11 14.092 11.218C13.7157 11.4097 13.4097 11.7157 13.218 12.092C13 12.5198 13 13.0799 13 14.2V25.8C13 26.9201 13 27.4802 13.218 27.908C13.4097 28.2843 13.7157 28.5903 14.092 28.782C14.5198 29 15.0799 29 16.2 29Z" stroke="#8E97CD" stroke-width="2" stroke-linecap="round" stroke-linejoin="round"/>
</svg>
