<svg width="32" height="32" viewBox="0 0 32 32" fill="none" xmlns="http://www.w3.org/2000/svg">
<path d="M10.6654 21.3327V14.666M15.9987 21.3327L15.9987 10.666M21.332 21.3327V17.3327M5.33203 22.3993L5.33203 9.59935C5.33203 8.10588 5.33203 7.35914 5.62268 6.78871C5.87834 6.28694 6.28629 5.87899 6.78806 5.62333C7.35849 5.33268 8.10522 5.33268 9.5987 5.33268H22.3987C23.8922 5.33268 24.6389 5.33268 25.2093 5.62333C25.7111 5.87899 26.1191 6.28694 26.3747 6.78871C26.6654 7.35914 26.6654 8.10588 26.6654 9.59935V22.3993C26.6654 23.8928 26.6654 24.6396 26.3747 25.21C26.1191 25.7118 25.7111 26.1197 25.2093 26.3754C24.6389 26.666 23.8922 26.666 22.3987 26.666H9.5987C8.10522 26.666 7.35849 26.666 6.78806 26.3754C6.28629 26.1197 5.87834 25.7118 5.62268 25.21C5.33203 24.6396 5.33203 23.8928 5.33203 22.3993Z" stroke="#D6D8E7" stroke-width="2" stroke-linecap="round" stroke-linejoin="round"/>
</svg>
