<svg width="94" height="25" viewBox="0 0 94 25" fill="none" xmlns="http://www.w3.org/2000/svg">
<path d="M89 -2.18557e-07C91.7614 -9.78513e-08 94 2.23858 94 5L94 25L-1.09278e-06 25L-2.18557e-07 5C-9.78513e-08 2.23857 2.23858 -4.01102e-06 5 -3.89031e-06L89 -2.18557e-07Z" fill="#141429"/>
<path d="M15.444 11.812C15.444 10.996 15.632 10.264 16.008 9.616C16.392 8.968 16.908 8.464 17.556 8.104C18.212 7.736 18.928 7.552 19.704 7.552C20.592 7.552 21.38 7.772 22.068 8.212C22.764 8.644 23.268 9.26 23.58 10.06H21.936C21.72 9.62 21.42 9.292 21.036 9.076C20.652 8.86 20.208 8.752 19.704 8.752C19.152 8.752 18.66 8.876 18.228 9.124C17.796 9.372 17.456 9.728 17.208 10.192C16.968 10.656 16.848 11.196 16.848 11.812C16.848 12.428 16.968 12.968 17.208 13.432C17.456 13.896 17.796 14.256 18.228 14.512C18.66 14.76 19.152 14.884 19.704 14.884C20.208 14.884 20.652 14.776 21.036 14.56C21.42 14.344 21.72 14.016 21.936 13.576H23.58C23.268 14.376 22.764 14.992 22.068 15.424C21.38 15.856 20.592 16.072 19.704 16.072C18.92 16.072 18.204 15.892 17.556 15.532C16.908 15.164 16.392 14.656 16.008 14.008C15.632 13.36 15.444 12.628 15.444 11.812ZM26.5493 7.12V16H25.1813V7.12H26.5493ZM31.2133 16.108C30.5893 16.108 30.0253 15.968 29.5213 15.688C29.0173 15.4 28.6213 15 28.3333 14.488C28.0453 13.968 27.9013 13.368 27.9013 12.688C27.9013 12.016 28.0493 11.42 28.3453 10.9C28.6413 10.38 29.0453 9.98 29.5573 9.7C30.0693 9.42 30.6413 9.28 31.2733 9.28C31.9053 9.28 32.4773 9.42 32.9893 9.7C33.5013 9.98 33.9053 10.38 34.2013 10.9C34.4973 11.42 34.6453 12.016 34.6453 12.688C34.6453 13.36 34.4933 13.956 34.1893 14.476C33.8853 14.996 33.4693 15.4 32.9413 15.688C32.4213 15.968 31.8453 16.108 31.2133 16.108ZM31.2133 14.92C31.5653 14.92 31.8933 14.836 32.1973 14.668C32.5093 14.5 32.7613 14.248 32.9533 13.912C33.1453 13.576 33.2413 13.168 33.2413 12.688C33.2413 12.208 33.1493 11.804 32.9653 11.476C32.7813 11.14 32.5373 10.888 32.2333 10.72C31.9293 10.552 31.6013 10.468 31.2493 10.468C30.8973 10.468 30.5693 10.552 30.2653 10.72C29.9693 10.888 29.7333 11.14 29.5573 11.476C29.3813 11.804 29.2933 12.208 29.2933 12.688C29.2933 13.4 29.4733 13.952 29.8333 14.344C30.2013 14.728 30.6613 14.92 31.2133 14.92ZM38.3977 16.108C37.8777 16.108 37.4097 16.016 36.9937 15.832C36.5857 15.64 36.2617 15.384 36.0217 15.064C35.7817 14.736 35.6537 14.372 35.6377 13.972H37.0537C37.0777 14.252 37.2097 14.488 37.4497 14.68C37.6977 14.864 38.0057 14.956 38.3737 14.956C38.7577 14.956 39.0537 14.884 39.2617 14.74C39.4777 14.588 39.5857 14.396 39.5857 14.164C39.5857 13.916 39.4657 13.732 39.2257 13.612C38.9937 13.492 38.6217 13.36 38.1097 13.216C37.6137 13.08 37.2097 12.948 36.8977 12.82C36.5857 12.692 36.3137 12.496 36.0817 12.232C35.8577 11.968 35.7457 11.62 35.7457 11.188C35.7457 10.836 35.8497 10.516 36.0577 10.228C36.2657 9.932 36.5617 9.7 36.9457 9.532C37.3377 9.364 37.7857 9.28 38.2897 9.28C39.0417 9.28 39.6457 9.472 40.1017 9.856C40.5657 10.232 40.8137 10.748 40.8457 11.404H39.4777C39.4537 11.108 39.3337 10.872 39.1177 10.696C38.9017 10.52 38.6097 10.432 38.2417 10.432C37.8817 10.432 37.6057 10.5 37.4137 10.636C37.2217 10.772 37.1257 10.952 37.1257 11.176C37.1257 11.352 37.1897 11.5 37.3177 11.62C37.4457 11.74 37.6017 11.836 37.7857 11.908C37.9697 11.972 38.2417 12.056 38.6017 12.16C39.0817 12.288 39.4737 12.42 39.7777 12.556C40.0897 12.684 40.3577 12.876 40.5817 13.132C40.8057 13.388 40.9217 13.728 40.9297 14.152C40.9297 14.528 40.8257 14.864 40.6177 15.16C40.4097 15.456 40.1137 15.688 39.7297 15.856C39.3537 16.024 38.9097 16.108 38.3977 16.108ZM48.4678 12.532C48.4678 12.78 48.4518 13.004 48.4198 13.204H43.3678C43.4078 13.732 43.6038 14.156 43.9558 14.476C44.3078 14.796 44.7398 14.956 45.2518 14.956C45.9878 14.956 46.5078 14.648 46.8118 14.032H48.2878C48.0878 14.64 47.7238 15.14 47.1958 15.532C46.6758 15.916 46.0278 16.108 45.2518 16.108C44.6198 16.108 44.0518 15.968 43.5478 15.688C43.0518 15.4 42.6598 15 42.3718 14.488C42.0918 13.968 41.9518 13.368 41.9518 12.688C41.9518 12.008 42.0878 11.412 42.3598 10.9C42.6398 10.38 43.0278 9.98 43.5238 9.7C44.0278 9.42 44.6038 9.28 45.2518 9.28C45.8758 9.28 46.4318 9.416 46.9198 9.688C47.4078 9.96 47.7878 10.344 48.0598 10.84C48.3318 11.328 48.4678 11.892 48.4678 12.532ZM47.0398 12.1C47.0318 11.596 46.8518 11.192 46.4998 10.888C46.1478 10.584 45.7118 10.432 45.1918 10.432C44.7198 10.432 44.3158 10.584 43.9798 10.888C43.6438 11.184 43.4438 11.588 43.3798 12.1H47.0398Z" fill="#C0C9FF"/>
<mask id="mask0_361_7862" style="mask-type:alpha" maskUnits="userSpaceOnUse" x="63" y="4" width="16" height="16">
<rect x="79" y="20" width="16" height="16" transform="rotate(-180 79 20)" fill="#D9D9D9"/>
</mask>
<g mask="url(#mask0_361_7862)">
<path d="M71 9.67285L70.6497 9.31607C70.8442 9.12511 71.1558 9.12511 71.3503 9.31607L71 9.67285ZM67.3503 13.9569C67.1532 14.1504 66.8367 14.1475 66.6432 13.9504C66.4498 13.7534 66.4527 13.4368 66.6497 13.2433L67.3503 13.9569ZM75.3503 13.2433C75.5473 13.4368 75.5502 13.7534 75.3568 13.9504C75.1633 14.1475 74.8467 14.1504 74.6497 13.9569L75.3503 13.2433ZM71.3503 10.0296L67.3503 13.9569L66.6497 13.2433L70.6497 9.31607L71.3503 10.0296ZM71.3503 9.31607L75.3503 13.2433L74.6497 13.9569L70.6497 10.0296L71.3503 9.31607Z" fill="#C0C9FF"/>
</g>
</svg>
