<svg width="32" height="32" viewBox="0 0 32 32" fill="none" xmlns="http://www.w3.org/2000/svg">
<path d="M14.6667 26.6673H6.66667C5.19391 26.6673 4 25.4734 4 24.0007C4 22.5279 5.19391 21.334 6.66667 21.334M14.6667 26.6673C16.1394 26.6673 17.3333 25.4734 17.3333 24.0007C17.3333 22.5279 16.1394 21.334 14.6667 21.334M14.6667 26.6673H25.3333C26.8061 26.6673 28 25.4734 28 24.0007C28 22.5279 26.8061 21.334 25.3333 21.334M14.6667 21.334H6.66667M14.6667 21.334H25.3333M14.6667 21.334C16.1394 21.334 17.3333 20.1401 17.3333 18.6673C17.3333 17.1946 16.1394 16.0007 14.6667 16.0007M6.66667 21.334C5.19391 21.334 4 20.1401 4 18.6673C4 17.1946 5.19391 16.0007 6.66667 16.0007M25.3333 21.334C26.8061 21.334 28 20.1401 28 18.6673C28 17.1946 26.8061 16.0007 25.3333 16.0007M14.6667 16.0007H25.3333M14.6667 16.0007H6.66667M14.6667 16.0007C16.1394 16.0007 17.3333 14.8067 17.3333 13.334C17.3333 11.8612 16.1394 10.6673 14.6667 10.6673M25.3333 16.0007C26.8061 16.0007 28 14.8067 28 13.334C28 11.8612 26.8061 10.6673 25.3333 10.6673H14.6667M14.6667 10.6673H6.66667M14.6667 10.6673C16.1394 10.6673 17.3333 9.47341 17.3333 8.00065C17.3333 6.52789 16.1394 5.33398 14.6667 5.33398H6.66667C5.19391 5.33398 4 6.52789 4 8.00065C4 9.47341 5.19391 10.6673 6.66667 10.6673M6.66667 16.0007C5.19391 16.0007 4 14.8067 4 13.334C4 11.8612 5.19391 10.6673 6.66667 10.6673" stroke="#D6D8E7" stroke-width="2" stroke-linecap="round" stroke-linejoin="round"/>
</svg>
