<svg width="91" height="24" viewBox="0 0 91 24" fill="none" xmlns="http://www.w3.org/2000/svg">
<rect width="91" height="24" rx="6" fill="url(#paint0_linear_108_3013)"/>
<path d="M29.2179 12.208C29.2179 11.664 29.3432 11.176 29.5939 10.744C29.8499 10.312 30.1939 9.976 30.6259 9.736C31.0632 9.49067 31.5405 9.368 32.0579 9.368C32.6499 9.368 33.1752 9.51467 33.6339 9.808C34.0979 10.096 34.4339 10.5067 34.6419 11.04H33.5459C33.4019 10.7467 33.2019 10.528 32.9459 10.384C32.6899 10.24 32.3939 10.168 32.0579 10.168C31.6899 10.168 31.3619 10.2507 31.0739 10.416C30.7859 10.5813 30.5592 10.8187 30.3939 11.128C30.2339 11.4373 30.1539 11.7973 30.1539 12.208C30.1539 12.6187 30.2339 12.9787 30.3939 13.288C30.5592 13.5973 30.7859 13.8373 31.0739 14.008C31.3619 14.1733 31.6899 14.256 32.0579 14.256C32.3939 14.256 32.6899 14.184 32.9459 14.04C33.2019 13.896 33.4019 13.6773 33.5459 13.384H34.6419C34.4339 13.9173 34.0979 14.328 33.6339 14.616C33.1752 14.904 32.6499 15.048 32.0579 15.048C31.5352 15.048 31.0579 14.928 30.6259 14.688C30.1939 14.4427 29.8499 14.104 29.5939 13.672C29.3432 13.24 29.2179 12.752 29.2179 12.208ZM37.6214 15.072C37.2054 15.072 36.8294 14.9787 36.4934 14.792C36.1574 14.6 35.8934 14.3333 35.7014 13.992C35.5094 13.6453 35.4134 13.2453 35.4134 12.792C35.4134 12.344 35.512 11.9467 35.7094 11.6C35.9067 11.2533 36.176 10.9867 36.5174 10.8C36.8587 10.6133 37.24 10.52 37.6614 10.52C38.0827 10.52 38.464 10.6133 38.8054 10.8C39.1467 10.9867 39.416 11.2533 39.6134 11.6C39.8107 11.9467 39.9094 12.344 39.9094 12.792C39.9094 13.24 39.808 13.6373 39.6054 13.984C39.4027 14.3307 39.1254 14.6 38.7734 14.792C38.4267 14.9787 38.0427 15.072 37.6214 15.072ZM37.6214 14.28C37.856 14.28 38.0747 14.224 38.2774 14.112C38.4854 14 38.6534 13.832 38.7814 13.608C38.9094 13.384 38.9734 13.112 38.9734 12.792C38.9734 12.472 38.912 12.2027 38.7894 11.984C38.6667 11.76 38.504 11.592 38.3014 11.48C38.0987 11.368 37.88 11.312 37.6454 11.312C37.4107 11.312 37.192 11.368 36.9894 11.48C36.792 11.592 36.6347 11.76 36.5174 11.984C36.4 12.2027 36.3414 12.472 36.3414 12.792C36.3414 13.2667 36.4614 13.6347 36.7014 13.896C36.9467 14.152 37.2534 14.28 37.6214 14.28ZM46.1469 10.52C46.4936 10.52 46.8029 10.592 47.0749 10.736C47.3523 10.88 47.5683 11.0933 47.7229 11.376C47.8829 11.6587 47.9629 12 47.9629 12.4V15H47.0589V12.536C47.0589 12.1413 46.9603 11.84 46.7629 11.632C46.5656 11.4187 46.2963 11.312 45.9549 11.312C45.6136 11.312 45.3416 11.4187 45.1389 11.632C44.9416 11.84 44.8429 12.1413 44.8429 12.536V15H43.9389V12.536C43.9389 12.1413 43.8403 11.84 43.6429 11.632C43.4456 11.4187 43.1763 11.312 42.8349 11.312C42.4936 11.312 42.2216 11.4187 42.0189 11.632C41.8216 11.84 41.7229 12.1413 41.7229 12.536V15H40.8109V10.592H41.7229V11.096C41.8723 10.9147 42.0616 10.7733 42.2909 10.672C42.5203 10.5707 42.7656 10.52 43.0269 10.52C43.3789 10.52 43.6936 10.5947 43.9709 10.744C44.2483 10.8933 44.4616 11.1093 44.6109 11.392C44.7443 11.1253 44.9523 10.9147 45.2349 10.76C45.5176 10.6 45.8216 10.52 46.1469 10.52ZM49.5874 10.008C49.4221 10.008 49.2834 9.952 49.1714 9.84C49.0594 9.728 49.0034 9.58933 49.0034 9.424C49.0034 9.25867 49.0594 9.12 49.1714 9.008C49.2834 8.896 49.4221 8.84 49.5874 8.84C49.7474 8.84 49.8834 8.896 49.9954 9.008C50.1074 9.12 50.1634 9.25867 50.1634 9.424C50.1634 9.58933 50.1074 9.728 49.9954 9.84C49.8834 9.952 49.7474 10.008 49.5874 10.008ZM50.0354 10.592V15H49.1234V10.592H50.0354ZM53.4568 10.52C53.8035 10.52 54.1128 10.592 54.3848 10.736C54.6621 10.88 54.8781 11.0933 55.0328 11.376C55.1875 11.6587 55.2648 12 55.2648 12.4V15H54.3608V12.536C54.3608 12.1413 54.2621 11.84 54.0648 11.632C53.8675 11.4187 53.5981 11.312 53.2568 11.312C52.9155 11.312 52.6435 11.4187 52.4408 11.632C52.2435 11.84 52.1448 12.1413 52.1448 12.536V15H51.2328V10.592H52.1448V11.096C52.2941 10.9147 52.4835 10.7733 52.7128 10.672C52.9475 10.5707 53.1955 10.52 53.4568 10.52ZM58.2041 10.52C58.5455 10.52 58.8468 10.5893 59.1081 10.728C59.3748 10.8613 59.5828 11.0293 59.7321 11.232V10.592H60.6521V15.072C60.6521 15.4773 60.5668 15.8373 60.3961 16.152C60.2255 16.472 59.9775 16.7227 59.6521 16.904C59.3321 17.0853 58.9481 17.176 58.5001 17.176C57.9028 17.176 57.4068 17.0347 57.0121 16.752C56.6175 16.4747 56.3935 16.096 56.3401 15.616H57.2441C57.3135 15.8453 57.4601 16.0293 57.6841 16.168C57.9135 16.312 58.1855 16.384 58.5001 16.384C58.8681 16.384 59.1641 16.272 59.3881 16.048C59.6175 15.824 59.7321 15.4987 59.7321 15.072V14.336C59.5775 14.544 59.3668 14.72 59.1001 14.864C58.8388 15.0027 58.5401 15.072 58.2041 15.072C57.8201 15.072 57.4681 14.976 57.1481 14.784C56.8335 14.5867 56.5828 14.3147 56.3961 13.968C56.2148 13.616 56.1241 13.2187 56.1241 12.776C56.1241 12.3333 56.2148 11.9413 56.3961 11.6C56.5828 11.2587 56.8335 10.9947 57.1481 10.808C57.4681 10.616 57.8201 10.52 58.2041 10.52ZM59.7321 12.792C59.7321 12.488 59.6681 12.224 59.5401 12C59.4175 11.776 59.2548 11.6053 59.0521 11.488C58.8495 11.3707 58.6308 11.312 58.3961 11.312C58.1615 11.312 57.9428 11.3707 57.7401 11.488C57.5375 11.6 57.3721 11.768 57.2441 11.992C57.1215 12.2107 57.0601 12.472 57.0601 12.776C57.0601 13.08 57.1215 13.3467 57.2441 13.576C57.3721 13.8053 57.5375 13.9813 57.7401 14.104C57.9481 14.2213 58.1668 14.28 58.3961 14.28C58.6308 14.28 58.8495 14.2213 59.0521 14.104C59.2548 13.9867 59.4175 13.816 59.5401 13.592C59.6681 13.3627 59.7321 13.096 59.7321 12.792ZM65.5281 15.072C65.1815 15.072 64.8695 15.0107 64.5921 14.888C64.3201 14.76 64.1041 14.5893 63.9441 14.376C63.7841 14.1573 63.6988 13.9147 63.6881 13.648H64.6321C64.6481 13.8347 64.7361 13.992 64.8961 14.12C65.0615 14.2427 65.2668 14.304 65.5121 14.304C65.7681 14.304 65.9655 14.256 66.1041 14.16C66.2481 14.0587 66.3201 13.9307 66.3201 13.776C66.3201 13.6107 66.2401 13.488 66.0801 13.408C65.9255 13.328 65.6775 13.24 65.3361 13.144C65.0055 13.0533 64.7361 12.9653 64.5281 12.88C64.3201 12.7947 64.1388 12.664 63.9841 12.488C63.8348 12.312 63.7601 12.08 63.7601 11.792C63.7601 11.5573 63.8295 11.344 63.9681 11.152C64.1068 10.9547 64.3041 10.8 64.5601 10.688C64.8215 10.576 65.1201 10.52 65.4561 10.52C65.9575 10.52 66.3601 10.648 66.6641 10.904C66.9735 11.1547 67.1388 11.4987 67.1601 11.936H66.2481C66.2321 11.7387 66.1521 11.5813 66.0081 11.464C65.8641 11.3467 65.6695 11.288 65.4241 11.288C65.1841 11.288 65.0001 11.3333 64.8721 11.424C64.7441 11.5147 64.6801 11.6347 64.6801 11.784C64.6801 11.9013 64.7228 12 64.8081 12.08C64.8935 12.16 64.9975 12.224 65.1201 12.272C65.2428 12.3147 65.4241 12.3707 65.6641 12.44C65.9841 12.5253 66.2455 12.6133 66.4481 12.704C66.6561 12.7893 66.8348 12.9173 66.9841 13.088C67.1335 13.2587 67.2108 13.4853 67.2161 13.768C67.2161 14.0187 67.1468 14.2427 67.0081 14.44C66.8695 14.6373 66.6721 14.792 66.4161 14.904C66.1655 15.016 65.8695 15.072 65.5281 15.072ZM70.1136 15.072C69.6976 15.072 69.3216 14.9787 68.9856 14.792C68.6496 14.6 68.3856 14.3333 68.1936 13.992C68.0016 13.6453 67.9056 13.2453 67.9056 12.792C67.9056 12.344 68.0042 11.9467 68.2016 11.6C68.3989 11.2533 68.6682 10.9867 69.0096 10.8C69.3509 10.6133 69.7322 10.52 70.1536 10.52C70.5749 10.52 70.9562 10.6133 71.2976 10.8C71.6389 10.9867 71.9082 11.2533 72.1056 11.6C72.3029 11.9467 72.4016 12.344 72.4016 12.792C72.4016 13.24 72.3002 13.6373 72.0976 13.984C71.8949 14.3307 71.6176 14.6 71.2656 14.792C70.9189 14.9787 70.5349 15.072 70.1136 15.072ZM70.1136 14.28C70.3482 14.28 70.5669 14.224 70.7696 14.112C70.9776 14 71.1456 13.832 71.2736 13.608C71.4016 13.384 71.4656 13.112 71.4656 12.792C71.4656 12.472 71.4042 12.2027 71.2816 11.984C71.1589 11.76 70.9962 11.592 70.7936 11.48C70.5909 11.368 70.3722 11.312 70.1376 11.312C69.9029 11.312 69.6842 11.368 69.4816 11.48C69.2842 11.592 69.1269 11.76 69.0096 11.984C68.8922 12.2027 68.8336 12.472 68.8336 12.792C68.8336 13.2667 68.9536 13.6347 69.1936 13.896C69.4389 14.152 69.7456 14.28 70.1136 14.28ZM75.2151 15.072C74.7991 15.072 74.4231 14.9787 74.0871 14.792C73.7511 14.6 73.4871 14.3333 73.2951 13.992C73.1031 13.6453 73.0071 13.2453 73.0071 12.792C73.0071 12.344 73.1058 11.9467 73.3031 11.6C73.5005 11.2533 73.7698 10.9867 74.1111 10.8C74.4525 10.6133 74.8338 10.52 75.2551 10.52C75.6765 10.52 76.0578 10.6133 76.3991 10.8C76.7405 10.9867 77.0098 11.2533 77.2071 11.6C77.4045 11.9467 77.5031 12.344 77.5031 12.792C77.5031 13.24 77.4018 13.6373 77.1991 13.984C76.9965 14.3307 76.7191 14.6 76.3671 14.792C76.0205 14.9787 75.6365 15.072 75.2151 15.072ZM75.2151 14.28C75.4498 14.28 75.6685 14.224 75.8711 14.112C76.0791 14 76.2471 13.832 76.3751 13.608C76.5031 13.384 76.5671 13.112 76.5671 12.792C76.5671 12.472 76.5058 12.2027 76.3831 11.984C76.2605 11.76 76.0978 11.592 75.8951 11.48C75.6925 11.368 75.4738 11.312 75.2391 11.312C75.0045 11.312 74.7858 11.368 74.5831 11.48C74.3858 11.592 74.2285 11.76 74.1111 11.984C73.9938 12.2027 73.9351 12.472 73.9351 12.792C73.9351 13.2667 74.0551 13.6347 74.2951 13.896C74.5405 14.152 74.8471 14.28 75.2151 14.28ZM80.6287 10.52C80.9754 10.52 81.2847 10.592 81.5567 10.736C81.834 10.88 82.05 11.0933 82.2047 11.376C82.3594 11.6587 82.4367 12 82.4367 12.4V15H81.5327V12.536C81.5327 12.1413 81.434 11.84 81.2367 11.632C81.0394 11.4187 80.77 11.312 80.4287 11.312C80.0874 11.312 79.8154 11.4187 79.6127 11.632C79.4154 11.84 79.3167 12.1413 79.3167 12.536V15H78.4047V10.592H79.3167V11.096C79.466 10.9147 79.6554 10.7733 79.8847 10.672C80.1194 10.5707 80.3674 10.52 80.6287 10.52Z" fill="#312F69"/>
<path d="M10.8782 11.9381C10.844 12.2122 11.0385 12.462 11.3125 12.4962C11.5865 12.5303 11.8363 12.3359 11.8705 12.0619L10.8782 11.9381ZM16.1667 12.6667C16.1667 12.9428 16.3905 13.1667 16.6667 13.1667C16.9428 13.1667 17.1667 12.9428 17.1667 12.6667H16.1667ZM17.1667 10C17.1667 9.72386 16.9428 9.5 16.6667 9.5C16.3905 9.5 16.1667 9.72386 16.1667 10H17.1667ZM15.3333 5.5C15.0572 5.5 14.8333 5.72386 14.8333 6C14.8333 6.27614 15.0572 6.5 15.3333 6.5V5.5ZM18 6.5C18.2761 6.5 18.5 6.27614 18.5 6C18.5 5.72386 18.2761 5.5 18 5.5V6.5ZM10 13.5C9.72386 13.5 9.5 13.7239 9.5 14C9.5 14.2761 9.72386 14.5 10 14.5V13.5ZM13.3333 14.5C13.6095 14.5 13.8333 14.2761 13.8333 14C13.8333 13.7239 13.6095 13.5 13.3333 13.5V14.5ZM11.3333 15.5C11.0572 15.5 10.8333 15.7239 10.8333 16C10.8333 16.2761 11.0572 16.5 11.3333 16.5V15.5ZM14.6667 16.5C14.9428 16.5 15.1667 16.2761 15.1667 16C15.1667 15.7239 14.9428 15.5 14.6667 15.5V16.5ZM13.3333 17.5C13.0572 17.5 12.8333 17.7239 12.8333 18C12.8333 18.2761 13.0572 18.5 13.3333 18.5V17.5ZM21.4998 12.6667C21.4998 15.336 19.3358 17.5 16.6664 17.5V18.5C19.8881 18.5 22.4998 15.8883 22.4998 12.6667H21.4998ZM16.6664 7.83333C19.3358 7.83333 21.4998 9.99729 21.4998 12.6667H22.4998C22.4998 9.44501 19.8881 6.83333 16.6664 6.83333V7.83333ZM11.8705 12.0619C12.1678 9.67815 14.202 7.83333 16.6664 7.83333V6.83333C13.6913 6.83333 11.2371 9.0601 10.8782 11.9381L11.8705 12.0619ZM17.1667 12.6667V10H16.1667V12.6667H17.1667ZM15.3333 6.5H18V5.5H15.3333V6.5ZM10 14.5H13.3333V13.5H10V14.5ZM11.3333 16.5H14.6667V15.5H11.3333V16.5ZM13.3333 18.5H16.6664V17.5H13.3333V18.5Z" fill="#312F69"/>
<defs>
<linearGradient id="paint0_linear_108_3013" x1="0" y1="0" x2="91.9564" y2="4.51322" gradientUnits="userSpaceOnUse">
<stop stop-color="#4ED4D0"/>
<stop offset="1" stop-color="#D4CF4E"/>
</linearGradient>
</defs>
</svg>
