<svg width="40" height="41" viewBox="0 0 40 41" fill="none" xmlns="http://www.w3.org/2000/svg">
<rect opacity="0.2" y="0.0478516" width="40" height="40" rx="12" fill="#75CAC2"/>
<path d="M21 11.0479H16.2C15.0799 11.0479 14.5198 11.0479 14.092 11.2658C13.7157 11.4576 13.4097 11.7635 13.218 12.1399C13 12.5677 13 13.1277 13 14.2479V25.8479C13 26.968 13 27.528 13.218 27.9558C13.4097 28.3322 13.7157 28.6381 14.092 28.8299C14.5198 29.0479 15.0799 29.0479 16.2 29.0479H21M21 11.0479L27 17.0479M21 11.0479V13.8479C21 14.968 21 15.528 21.218 15.9558C21.4097 16.3322 21.7157 16.6381 22.092 16.8299C22.5198 17.0479 23.0799 17.0479 24.2 17.0479H27M27 17.0479V21.0479M17 25.0479H20M17 21.0479H23M17 17.0479H18M25 27.0479H29M27 25.0479V29.0479" stroke="#F7F7FC" stroke-width="2" stroke-linecap="round" stroke-linejoin="round"/>
</svg>
