<svg width="94" height="27" viewBox="0 0 94 27" fill="none" xmlns="http://www.w3.org/2000/svg">
<path d="M89 -2.18557e-07C91.7614 -9.78513e-08 94 2.23858 94 5L94 27L-1.18021e-06 27L-2.18557e-07 5C-9.78513e-08 2.23857 2.23858 -4.01102e-06 5 -3.89031e-06L89 -2.18557e-07Z" fill="#302E66"/>
<path d="M18.624 7.66C19.512 7.66 20.288 7.832 20.952 8.176C21.624 8.512 22.14 9 22.5 9.64C22.868 10.272 23.052 11.012 23.052 11.86C23.052 12.708 22.868 13.444 22.5 14.068C22.14 14.692 21.624 15.172 20.952 15.508C20.288 15.836 19.512 16 18.624 16H15.9V7.66H18.624ZM18.624 14.884C19.6 14.884 20.348 14.62 20.868 14.092C21.388 13.564 21.648 12.82 21.648 11.86C21.648 10.892 21.388 10.136 20.868 9.592C20.348 9.048 19.6 8.776 18.624 8.776H17.268V14.884H18.624ZM30.4678 12.532C30.4678 12.78 30.4518 13.004 30.4198 13.204H25.3678C25.4078 13.732 25.6038 14.156 25.9558 14.476C26.3078 14.796 26.7398 14.956 27.2518 14.956C27.9878 14.956 28.5078 14.648 28.8118 14.032H30.2878C30.0878 14.64 29.7238 15.14 29.1958 15.532C28.6758 15.916 28.0278 16.108 27.2518 16.108C26.6198 16.108 26.0518 15.968 25.5478 15.688C25.0518 15.4 24.6598 15 24.3718 14.488C24.0918 13.968 23.9518 13.368 23.9518 12.688C23.9518 12.008 24.0878 11.412 24.3598 10.9C24.6398 10.38 25.0278 9.98 25.5238 9.7C26.0278 9.42 26.6038 9.28 27.2518 9.28C27.8758 9.28 28.4318 9.416 28.9198 9.688C29.4078 9.96 29.7878 10.344 30.0598 10.84C30.3318 11.328 30.4678 11.892 30.4678 12.532ZM29.0398 12.1C29.0318 11.596 28.8518 11.192 28.4998 10.888C28.1478 10.584 27.7118 10.432 27.1918 10.432C26.7198 10.432 26.3158 10.584 25.9798 10.888C25.6438 11.184 25.4438 11.588 25.3798 12.1H29.0398ZM33.4101 10.504V14.164C33.4101 14.412 33.4661 14.592 33.5781 14.704C33.6981 14.808 33.8981 14.86 34.1781 14.86H35.0181V16H33.9381C33.3221 16 32.8501 15.856 32.5221 15.568C32.1941 15.28 32.0301 14.812 32.0301 14.164V10.504H31.2501V9.388H32.0301V7.744H33.4101V9.388H35.0181V10.504H33.4101ZM35.8229 12.664C35.8229 12 35.9589 11.412 36.2309 10.9C36.5109 10.388 36.8869 9.992 37.3589 9.712C37.8389 9.424 38.3669 9.28 38.9429 9.28C39.4629 9.28 39.9149 9.384 40.2989 9.592C40.6909 9.792 41.0029 10.044 41.2349 10.348V9.388H42.6149V16H41.2349V15.016C41.0029 15.328 40.6869 15.588 40.2869 15.796C39.8869 16.004 39.4309 16.108 38.9189 16.108C38.3509 16.108 37.8309 15.964 37.3589 15.676C36.8869 15.38 36.5109 14.972 36.2309 14.452C35.9589 13.924 35.8229 13.328 35.8229 12.664ZM41.2349 12.688C41.2349 12.232 41.1389 11.836 40.9469 11.5C40.7629 11.164 40.5189 10.908 40.2149 10.732C39.9109 10.556 39.5829 10.468 39.2309 10.468C38.8789 10.468 38.5509 10.556 38.2469 10.732C37.9429 10.9 37.6949 11.152 37.5029 11.488C37.3189 11.816 37.2269 12.208 37.2269 12.664C37.2269 13.12 37.3189 13.52 37.5029 13.864C37.6949 14.208 37.9429 14.472 38.2469 14.656C38.5589 14.832 38.8869 14.92 39.2309 14.92C39.5829 14.92 39.9109 14.832 40.2149 14.656C40.5189 14.48 40.7629 14.224 40.9469 13.888C41.1389 13.544 41.2349 13.144 41.2349 12.688ZM45.1077 8.512C44.8597 8.512 44.6517 8.428 44.4837 8.26C44.3157 8.092 44.2317 7.884 44.2317 7.636C44.2317 7.388 44.3157 7.18 44.4837 7.012C44.6517 6.844 44.8597 6.76 45.1077 6.76C45.3477 6.76 45.5517 6.844 45.7197 7.012C45.8877 7.18 45.9717 7.388 45.9717 7.636C45.9717 7.884 45.8877 8.092 45.7197 8.26C45.5517 8.428 45.3477 8.512 45.1077 8.512ZM45.7797 9.388V16H44.4117V9.388H45.7797ZM48.9438 7.12V16H47.5758V7.12H48.9438ZM53.1398 16.108C52.6198 16.108 52.1518 16.016 51.7358 15.832C51.3278 15.64 51.0038 15.384 50.7638 15.064C50.5238 14.736 50.3958 14.372 50.3798 13.972H51.7958C51.8198 14.252 51.9518 14.488 52.1918 14.68C52.4398 14.864 52.7478 14.956 53.1158 14.956C53.4998 14.956 53.7958 14.884 54.0038 14.74C54.2198 14.588 54.3278 14.396 54.3278 14.164C54.3278 13.916 54.2078 13.732 53.9678 13.612C53.7358 13.492 53.3638 13.36 52.8518 13.216C52.3558 13.08 51.9518 12.948 51.6398 12.82C51.3278 12.692 51.0558 12.496 50.8238 12.232C50.5998 11.968 50.4878 11.62 50.4878 11.188C50.4878 10.836 50.5918 10.516 50.7998 10.228C51.0078 9.932 51.3038 9.7 51.6878 9.532C52.0798 9.364 52.5278 9.28 53.0318 9.28C53.7838 9.28 54.3878 9.472 54.8438 9.856C55.3078 10.232 55.5558 10.748 55.5878 11.404H54.2198C54.1958 11.108 54.0758 10.872 53.8598 10.696C53.6438 10.52 53.3518 10.432 52.9838 10.432C52.6238 10.432 52.3478 10.5 52.1558 10.636C51.9638 10.772 51.8678 10.952 51.8678 11.176C51.8678 11.352 51.9318 11.5 52.0598 11.62C52.1878 11.74 52.3438 11.836 52.5278 11.908C52.7118 11.972 52.9838 12.056 53.3438 12.16C53.8238 12.288 54.2158 12.42 54.5198 12.556C54.8318 12.684 55.0998 12.876 55.3238 13.132C55.5478 13.388 55.6638 13.728 55.6718 14.152C55.6718 14.528 55.5678 14.864 55.3598 15.16C55.1518 15.456 54.8558 15.688 54.4718 15.856C54.0958 16.024 53.6518 16.108 53.1398 16.108Z" fill="#4ED5D2"/>
<mask id="mask0_361_7697" style="mask-type:alpha" maskUnits="userSpaceOnUse" x="63" y="4" width="16" height="16">
<rect x="63" y="4" width="16" height="16" fill="#D9D9D9"/>
</mask>
<g mask="url(#mask0_361_7697)">
<path d="M71 14.3271L71.3503 14.6839C71.1558 14.8749 70.8442 14.8749 70.6497 14.6839L71 14.3271ZM74.6497 10.0431C74.8468 9.84963 75.1633 9.85253 75.3568 10.0496C75.5502 10.2466 75.5473 10.5632 75.3503 10.7567L74.6497 10.0431ZM66.6497 10.7567C66.4527 10.5632 66.4498 10.2466 66.6432 10.0496C66.8367 9.85253 67.1532 9.84963 67.3503 10.0431L66.6497 10.7567ZM70.6497 13.9704L74.6497 10.0431L75.3503 10.7567L71.3503 14.6839L70.6497 13.9704ZM70.6497 14.6839L66.6497 10.7567L67.3503 10.0431L71.3503 13.9704L70.6497 14.6839Z" fill="#4ED5D2"/>
</g>
</svg>
