<svg width="134" height="134" viewBox="0 0 134 134" fill="none" xmlns="http://www.w3.org/2000/svg">
<g opacity="0.5">
<mask id="mask0_1062_5513" style="mask-type:alpha" maskUnits="userSpaceOnUse" x="0" y="0" width="134" height="134">
<rect width="134" height="134" fill="#D9D9D9"/>
</mask>
<g mask="url(#mask0_1062_5513)">
<rect x="96.6943" y="107.662" width="24.5534" height="77.2976" rx="10" transform="rotate(-180 96.6943 107.662)" fill="url(#paint0_linear_1062_5513)"/>
<circle cx="92.1396" cy="104.339" r="9.559" fill="#F4F4F4"/>
<path d="M98.1704 98.792L97.6455 99.317C98.8981 100.687 99.5927 102.476 99.5927 104.332C99.5927 106.188 98.8981 107.977 97.6455 109.347L98.1704 109.872C99.5634 108.361 100.337 106.381 100.337 104.326C100.337 102.271 99.5634 100.291 98.1704 98.7798V98.792Z" fill="#5A5564"/>
<path d="M87.128 98.8373C88.4978 97.5847 90.2867 96.8901 92.1428 96.8901C93.999 96.8901 95.7879 97.5847 97.1577 98.8373L97.6826 98.3124C96.1717 96.9194 94.1918 96.146 92.1367 96.146C90.0816 96.146 88.1018 96.9194 86.5908 98.3124L87.128 98.8373Z" fill="#5A5564"/>
<path d="M86.6405 109.351C85.3894 107.982 84.6957 106.194 84.6957 104.339C84.6957 102.484 85.3894 100.696 86.6405 99.3267L86.1156 98.8018C84.7226 100.313 83.9492 102.293 83.9492 104.348C83.9492 106.403 84.7226 108.383 86.1156 109.894L86.6405 109.351Z" fill="#5A5564"/>
<path d="M97.1508 109.837C95.781 111.09 93.9921 111.785 92.136 111.785C90.2798 111.785 88.4909 111.09 87.1211 109.837L86.5962 110.362C88.1072 111.755 90.087 112.529 92.1421 112.529C94.1972 112.529 96.177 111.755 97.688 110.362L97.1508 109.837Z" fill="#5A5564"/>
<path d="M95.4535 102.588C95.3485 101.493 94.4036 101.125 93.2085 101.013V99.5049H92.2847V100.985C92.0414 100.985 91.793 100.985 91.5463 100.985V99.5049H90.6294V101.024H88.7554V102.012C88.7554 102.012 89.4378 102 89.4273 102.012C89.5503 101.999 89.6738 102.034 89.7717 102.109C89.8697 102.185 89.9344 102.296 89.9522 102.418V106.576C89.9496 106.619 89.9383 106.661 89.9191 106.7C89.8999 106.739 89.873 106.773 89.8402 106.801C89.808 106.83 89.7704 106.852 89.7295 106.866C89.6886 106.88 89.6453 106.885 89.6023 106.882C89.6145 106.892 88.9303 106.882 88.9303 106.882L88.7554 107.986H90.6119V109.529H91.5358V108.009H92.2742V109.522H93.1998V107.997C94.7606 107.902 95.8489 107.517 95.9854 106.056C96.0957 104.88 95.5427 104.355 94.6591 104.144C95.1963 103.879 95.5287 103.389 95.4535 102.588ZM94.1587 105.874C94.1587 107.022 92.1919 106.891 91.5655 106.891V104.854C92.1919 104.856 94.1587 104.675 94.1587 105.874ZM93.73 103.004C93.73 104.054 92.0887 103.927 91.5673 103.927V102.075C92.0887 102.075 93.73 101.911 93.73 103.004Z" fill="#F09242"/>
<path d="M92.1378 113.898C90.2474 113.898 88.3995 113.337 86.8278 112.287C85.2561 111.236 84.0312 109.743 83.3079 107.997C82.5846 106.25 82.3954 104.328 82.7643 102.474C83.1332 100.62 84.0436 98.9168 85.3803 97.58C86.7171 96.2433 88.4202 95.3329 90.2743 94.964C92.1284 94.5951 94.0502 94.7843 95.7968 95.5076C97.5434 96.2309 99.0364 97.4558 100.087 99.0275C101.137 100.599 101.698 102.447 101.699 104.338C101.699 105.593 101.452 106.836 100.971 107.997C100.491 109.157 99.7866 110.211 98.8988 111.099C98.011 111.986 96.9569 112.691 95.7968 113.171C94.6368 113.651 93.3934 113.899 92.1378 113.898ZM92.1378 95.5257C90.3961 95.5271 88.694 96.0448 87.2464 97.0133C85.7989 97.9819 84.671 99.3578 84.0053 100.967C83.3396 102.577 83.1659 104.347 83.5063 106.055C83.8467 107.764 84.6858 109.332 85.9176 110.564C87.1494 111.795 88.7186 112.634 90.4268 112.973C92.1351 113.313 93.9056 113.139 95.5148 112.472C97.124 111.806 98.4995 110.677 99.4675 109.23C100.435 107.782 100.952 106.079 100.953 104.338C100.954 103.18 100.726 102.034 100.283 100.964C99.8401 99.8945 99.1907 98.9227 98.372 98.1043C97.5533 97.286 96.5813 96.637 95.5116 96.1945C94.4419 95.752 93.2954 95.5248 92.1378 95.5257Z" fill="#2A233A"/>
<path d="M95.9785 80.3505C102.832 80.3505 108.346 74.8366 108.346 67.9828C108.346 61.1291 102.832 55.6152 95.9785 55.6152C89.1247 55.6152 83.6108 61.1291 83.6108 67.9828C83.6108 74.8366 89.1247 80.3505 95.9785 80.3505Z" fill="#2775CA"/>
<path d="M99.3793 69.9408C99.3793 68.1372 98.2972 67.5189 96.1328 67.2612C94.5869 67.0551 94.2777 66.6429 94.2777 65.9213C94.2777 65.1998 94.793 64.7361 95.8236 64.7361C96.7512 64.7361 97.2666 65.0453 97.5242 65.8183C97.5758 65.9729 97.7304 66.0759 97.885 66.0759H98.7094C98.9155 66.0759 99.0701 65.9213 99.0701 65.7153V65.6637C98.864 64.53 97.9364 63.654 96.7512 63.551V62.3142C96.7512 62.108 96.5966 61.9534 96.339 61.9019H95.566C95.3599 61.9019 95.2053 62.0565 95.1537 62.3142V63.4994C93.6077 63.7055 92.6287 64.7361 92.6287 66.0245C92.6287 67.725 93.6593 68.3949 95.8236 68.6526C97.2666 68.9102 97.7304 69.2194 97.7304 70.044C97.7304 70.8685 97.0088 71.4353 96.0298 71.4353C94.6899 71.4353 94.2261 70.8684 94.0715 70.0954C94.0201 69.8894 93.8655 69.7862 93.7109 69.7862H92.8348C92.6287 69.7862 92.4741 69.9408 92.4741 70.147V70.1985C92.6802 71.4868 93.5047 72.4143 95.2053 72.6721V73.9088C95.2053 74.1149 95.3599 74.2695 95.6175 74.321H96.3904C96.5966 74.321 96.7512 74.1664 96.8028 73.9088V72.6721C98.3487 72.4143 99.3793 71.3322 99.3793 69.9408Z" fill="white"/>
<path d="M93.3505 75.3515C89.331 73.9087 87.2697 69.4254 88.7642 65.4574C89.5372 63.2931 91.2377 61.6441 93.3505 60.8711C93.5567 60.7681 93.6597 60.6135 93.6597 60.3558V59.6344C93.6597 59.4282 93.5567 59.2736 93.3505 59.2222C93.2989 59.2222 93.1959 59.2222 93.1443 59.2736C88.2488 60.8196 85.5692 66.0244 87.1151 70.9198C88.0427 73.8056 90.2586 76.0215 93.1443 76.949C93.3505 77.0521 93.5567 76.949 93.6081 76.7429C93.6597 76.6914 93.6597 76.6398 93.6597 76.5368V75.8153C93.6597 75.6607 93.5051 75.4547 93.3505 75.3515ZM98.8129 59.2736C98.6067 59.1706 98.4006 59.2736 98.3491 59.4798C98.2975 59.5314 98.2975 59.5828 98.2975 59.686V60.4074C98.2975 60.6135 98.4521 60.8196 98.6067 60.9227C102.626 62.3655 104.688 66.8488 103.193 70.8168C102.42 72.9811 100.719 74.6301 98.6067 75.4031C98.4006 75.5061 98.2975 75.6607 98.2975 75.9184V76.6398C98.2975 76.846 98.4006 77.0006 98.6067 77.0521C98.6583 77.0521 98.7613 77.0521 98.8129 77.0006C103.708 75.4547 106.388 70.2499 104.842 65.3544C103.915 62.4171 101.647 60.2012 98.8129 59.2736Z" fill="white"/>
<path d="M114.022 102.509C120.162 102.509 125.102 97.5697 125.102 91.4299C125.102 85.2901 120.162 80.3506 114.022 80.3506C107.882 80.3506 102.943 85.2901 102.943 91.4299C102.943 97.5697 107.882 102.509 114.022 102.509Z" fill="#50AF95"/>
<path fill-rule="evenodd" clip-rule="evenodd" d="M115.528 92.6614C115.444 92.6678 115.008 92.6941 114.037 92.6941C113.264 92.6941 112.715 92.6707 112.522 92.6614C109.535 92.5286 107.306 92.0027 107.306 91.3731C107.306 90.7435 109.535 90.2183 112.522 90.0833V92.1377C112.718 92.1519 113.277 92.1853 114.05 92.1853C114.978 92.1853 115.442 92.1462 115.526 92.1384V90.0847C118.506 90.219 120.731 90.7449 120.731 91.3731C120.731 92.0013 118.507 92.5271 115.526 92.6607L115.528 92.6614ZM115.528 89.8723V88.0339H119.688V85.2305H108.362V88.0339H112.522V89.8715C109.141 90.0286 106.599 90.7058 106.599 91.5173C106.599 92.3289 109.141 93.0054 112.522 93.1631V99.0542H115.528V93.161C118.901 93.004 121.439 92.3275 121.439 91.5166C121.439 90.7058 118.903 90.0293 115.528 89.8715L115.528 89.8723Z" fill="white"/>
<rect x="8.375" y="39.2471" width="5.2486" height="22.7439" rx="2.6243" fill="url(#paint1_linear_1062_5513)"/>
<rect x="8.375" y="77.4551" width="5.2486" height="22.7439" rx="2.6243" fill="url(#paint2_linear_1062_5513)"/>
<path d="M116.635 43.3008C121.602 43.3008 125.627 47.3272 125.627 52.2932C125.627 57.26 121.602 61.2856 116.635 61.2856C111.669 61.2856 107.643 57.2596 107.643 52.2932C107.643 47.3272 111.669 43.3008 116.635 43.3008Z" fill="url(#paint3_linear_1062_5513)"/>
<path d="M116.963 52.9281H120.38C120.453 52.9281 120.487 52.9281 120.493 52.8326C120.521 52.485 120.521 52.1354 120.493 51.7874C120.493 51.7198 120.459 51.6919 120.386 51.6919H113.586C113.501 51.6919 113.479 51.7198 113.479 51.7987V52.799C113.479 52.9281 113.479 52.9281 113.613 52.9281H116.963ZM120.111 50.5228C120.121 50.4973 120.121 50.4694 120.111 50.4443C120.054 50.3201 119.987 50.2015 119.908 50.0902C119.79 49.9 119.651 49.7248 119.492 49.5674C119.417 49.4723 119.331 49.3869 119.233 49.3145C118.747 48.9005 118.169 48.6076 117.547 48.4603C117.234 48.3898 116.913 48.3563 116.592 48.3591H113.574C113.49 48.3591 113.478 48.3927 113.478 48.4659V50.4609C113.478 50.5451 113.478 50.5677 113.585 50.5677H120.071C120.071 50.5677 120.127 50.5564 120.138 50.5228H120.111H120.111ZM120.111 54.0972C120.016 54.0867 119.919 54.0867 119.824 54.0972H113.591C113.507 54.0972 113.479 54.0972 113.479 54.2097V56.1602C113.479 56.25 113.479 56.2727 113.591 56.2727H116.469C116.606 56.2832 116.744 56.2735 116.879 56.2447C117.296 56.2148 117.707 56.1242 118.099 55.9748C118.241 55.9255 118.379 55.8611 118.509 55.7838H118.548C119.223 55.433 119.77 54.8818 120.116 54.2052C120.116 54.2052 120.155 54.1203 120.111 54.098V54.0972ZM112.349 57.2839V57.2503V55.9408V55.4969V54.1761C112.349 54.1029 112.349 54.0919 112.259 54.0919H111.04C110.972 54.0919 110.944 54.0919 110.944 54.0021V52.9342H112.248C112.321 52.9342 112.349 52.9342 112.349 52.8387V51.7821C112.349 51.7145 112.349 51.698 112.259 51.698H111.04C110.972 51.698 110.944 51.698 110.944 51.6081V50.6191C110.944 50.5572 110.944 50.5406 111.034 50.5406H112.242C112.327 50.5406 112.349 50.5406 112.349 50.4338V47.4045C112.349 47.3147 112.349 47.292 112.462 47.292H116.677C116.983 47.3041 117.287 47.3377 117.587 47.3932C118.207 47.5077 118.802 47.729 119.346 48.0451C119.707 48.2575 120.04 48.5141 120.335 48.8095C120.558 49.0405 120.759 49.2906 120.937 49.5569C121.114 49.8268 121.26 50.1153 121.376 50.4168C121.39 50.4953 121.465 50.5483 121.544 50.535H122.55C122.679 50.535 122.679 50.535 122.684 50.6588V51.5806C122.684 51.6704 122.651 51.6931 122.561 51.6931H121.785C121.706 51.6931 121.684 51.6931 121.689 51.7943C121.72 52.1366 121.72 52.4802 121.689 52.8225C121.689 52.918 121.689 52.9293 121.797 52.9293H122.684C122.723 52.9799 122.684 53.0305 122.684 53.0815C122.69 53.1467 122.69 53.2126 122.684 53.2778V53.958C122.684 54.0535 122.656 54.0818 122.572 54.0818H121.509C121.435 54.0677 121.363 54.115 121.346 54.1887C121.093 54.8462 120.689 55.4358 120.166 55.9085C119.975 56.0805 119.774 56.2423 119.564 56.3916C119.339 56.5211 119.121 56.6559 118.89 56.7627C118.465 56.9537 118.02 57.0945 117.563 57.184C117.13 57.2617 116.69 57.2969 116.248 57.2908H112.348V57.2851L112.349 57.2839Z" fill="#FEFEFD"/>
<rect x="95.9907" y="22.1206" width="16.4901" height="16.4901" rx="8.24507" fill="url(#paint4_linear_1062_5513)"/>
<path d="M104.355 25.4194L104.29 25.6369V31.9454L104.355 32.0093L107.357 30.2783L104.355 25.4194Z" fill="#C1CCF8"/>
<path d="M104.353 25.4194L101.351 30.2783L104.353 32.0093V28.9473V25.4194Z" fill="white"/>
<path d="M104.356 32.564L104.319 32.608V34.8552L104.356 34.9605L107.36 30.834L104.356 32.564Z" fill="#C1CCF8"/>
<path d="M104.353 34.9605V32.564L101.351 30.834L104.353 34.9605Z" fill="white"/>
<path d="M104.355 32.0093L107.357 30.2783L104.355 28.9473V32.0093Z" fill="#8197EE"/>
<path d="M101.351 30.2783L104.353 32.0093V28.9473L101.351 30.2783Z" fill="#C1CCF8"/>
<rect x="12.8296" y="30.3647" width="76.9795" height="77.2976" rx="10" fill="url(#paint5_linear_1062_5513)"/>
<rect x="79.6279" y="57.4038" width="5.2486" height="22.7439" rx="2.6243" fill="url(#paint6_linear_1062_5513)"/>
<path fill-rule="evenodd" clip-rule="evenodd" d="M68.0637 80.4138C70.2744 77.1692 71.5627 73.2567 71.5627 69.0419C71.5627 64.7953 70.2585 60.8668 68.0159 57.6063L75.7775 49.8447C77.2567 48.3656 77.2567 45.9798 75.7775 44.5166C74.2984 43.0374 71.9126 43.0374 70.4494 44.5166L62.6719 52.2941C59.4432 50.1151 55.5624 48.8427 51.3795 48.8427C47.2124 48.8427 43.3316 50.1151 40.1029 52.2782L32.3255 44.5166C30.8463 43.0374 28.4606 43.0374 26.9973 44.5166C25.5182 45.9957 25.5182 48.3815 26.9973 49.8447L34.7271 57.5745C32.4845 60.835 31.1644 64.7794 31.1644 69.026C31.1644 73.2567 32.4686 77.1692 34.6794 80.4138L26.9814 88.1436C25.5023 89.6227 25.5023 92.0085 26.9814 93.4717C28.4606 94.9509 30.8463 94.9509 32.3096 93.4717L40.0075 85.7738C43.2362 87.9686 47.1488 89.2569 51.3477 89.2569C55.5624 89.2569 59.475 87.9686 62.7196 85.7579L70.4335 93.4717C71.9126 94.9509 74.2984 94.9509 75.7616 93.4717C77.2408 91.9926 77.2408 89.6068 75.7616 88.1436L68.0637 80.4138ZM51.3636 78.7597C46.0036 78.7597 41.6616 74.4177 41.6616 69.0578C41.6616 63.6978 46.0036 59.3558 51.3636 59.3558C56.7235 59.3558 61.0655 63.6978 61.0655 69.0578C61.0655 74.4177 56.7235 78.7597 51.3636 78.7597Z" fill="url(#paint7_linear_1062_5513)"/>
</g>
</g>
<defs>
<linearGradient id="paint0_linear_1062_5513" x1="118.66" y1="146.31" x2="96.6943" y2="146.31" gradientUnits="userSpaceOnUse">
<stop stop-color="#7770E0"/>
<stop offset="0.46875" stop-color="#808BF7"/>
<stop offset="1" stop-color="#7770E0"/>
</linearGradient>
<linearGradient id="paint1_linear_1062_5513" x1="8.375" y1="53.8795" x2="14.2598" y2="53.8795" gradientUnits="userSpaceOnUse">
<stop stop-color="#F0633D"/>
<stop offset="1" stop-color="#F8845B"/>
</linearGradient>
<linearGradient id="paint2_linear_1062_5513" x1="8.375" y1="92.0875" x2="14.2598" y2="92.0875" gradientUnits="userSpaceOnUse">
<stop stop-color="#F1643E"/>
<stop offset="1" stop-color="#F8845B"/>
</linearGradient>
<linearGradient id="paint3_linear_1062_5513" x1="116.635" y1="43.3008" x2="116.635" y2="61.2856" gradientUnits="userSpaceOnUse">
<stop stop-color="#F9AB12"/>
<stop offset="1" stop-color="#FBC856"/>
</linearGradient>
<linearGradient id="paint4_linear_1062_5513" x1="112.481" y1="38.6108" x2="95.9907" y2="22.1206" gradientUnits="userSpaceOnUse">
<stop stop-color="#556ECC"/>
<stop offset="1" stop-color="#627EEA"/>
</linearGradient>
<linearGradient id="paint5_linear_1062_5513" x1="98.7158" y1="69.0135" x2="24.5197" y2="69.0135" gradientUnits="userSpaceOnUse">
<stop stop-color="#A3ABF8"/>
<stop offset="1" stop-color="#7770E0"/>
</linearGradient>
<linearGradient id="paint6_linear_1062_5513" x1="79.6279" y1="72.0363" x2="85.5127" y2="72.0363" gradientUnits="userSpaceOnUse">
<stop stop-color="#F1643E"/>
<stop offset="1" stop-color="#F8845B"/>
</linearGradient>
<linearGradient id="paint7_linear_1062_5513" x1="44.0831" y1="76.0917" x2="75.4157" y2="44.7591" gradientUnits="userSpaceOnUse">
<stop stop-color="white"/>
<stop offset="1" stop-color="#C1CCF8"/>
</linearGradient>
</defs>
</svg>
