<svg width="20" height="20" viewBox="0 0 20 20" fill="none" xmlns="http://www.w3.org/2000/svg">
<path d="M15.8337 7.5L10.8337 2.5M15.8337 7.5H13.5003C12.5669 7.5 12.1002 7.5 11.7437 7.31834C11.4301 7.15856 11.1751 6.90359 11.0153 6.58998C10.8337 6.23346 10.8337 5.76675 10.8337 4.83333V2.5M15.8337 7.5V9.16667M10.8337 2.5H6.83366C5.90024 2.5 5.43353 2.5 5.07701 2.68166C4.7634 2.84144 4.50844 3.09641 4.34865 3.41002C4.16699 3.76654 4.16699 4.23325 4.16699 5.16667V14.8333C4.16699 15.7668 4.16699 16.2335 4.34865 16.59C4.50844 16.9036 4.7634 17.1586 5.07701 17.3183C5.43353 17.5 6.73357 17.5 7.66699 17.5" stroke="#F7F7FC" stroke-linecap="round" stroke-linejoin="round"/>
<path d="M14.9791 16.6318C13.84 17.789 11.9933 17.789 10.8543 16.6318C10.2848 16.0533 10 15.295 10 14.5367C10 13.7784 10.2848 13.0201 10.8543 12.4416C10.8543 12.4416 11.0938 13.0552 11.8229 13.4256C11.8229 12.6848 12.0052 11.5737 12.9115 10.833C13.6458 11.5737 14.4082 11.8617 14.9791 12.4416C15.5486 13.0201 15.8333 13.7784 15.8333 14.5367C15.8333 15.295 15.5486 16.0533 14.9791 16.6318Z" stroke="#F7F7FC" stroke-linecap="round" stroke-linejoin="round"/>
</svg>
