<svg width="32" height="32" viewBox="0 0 32 32" fill="none" xmlns="http://www.w3.org/2000/svg">
<circle cx="16" cy="16" r="16" fill="url(#paint0_linear_1_4921)"/>
<path d="M6.13414 16.375L12.6349 21.2274C12.6452 21.2274 12.6452 21.2377 12.6555 21.2377L15.0662 23.0303C15.2722 23.1848 15.5607 23.0406 15.5607 22.783L15.571 9.42101C15.5504 9.18405 15.5195 8.9368 15.468 8.69985C15.4165 8.4732 15.3444 8.25685 15.2413 8.07141C15.4165 9.3798 14.6747 10.9045 13.4178 11.9038C13.1397 12.1305 12.7585 12.3778 12.3361 12.5529C11.8828 12.7486 10.5126 13.2225 10.5126 13.2225L6.3814 14.7164C5.67054 14.9739 5.52631 15.9217 6.13414 16.375Z" fill="#F2EEFF"/>
<path d="M12.5839 12.4397C12.5942 12.4294 12.6148 12.4294 12.6251 12.4191C12.6457 12.4088 12.6664 12.3985 12.6973 12.3779C12.7282 12.3676 12.7488 12.347 12.7797 12.3367C12.79 12.3264 12.8106 12.3161 12.8209 12.3161C12.8518 12.2955 12.893 12.2749 12.9239 12.2543C12.9342 12.2439 12.9445 12.2439 12.9548 12.2336C12.9857 12.213 13.0166 12.1924 13.0578 12.1718C13.0784 12.1615 13.0887 12.1512 13.1094 12.1409C13.13 12.1203 13.1609 12.11 13.1815 12.0894C13.2124 12.0688 13.2433 12.0379 13.2845 12.0173C13.2948 12.0173 13.2948 12.007 13.3051 12.007C13.3463 11.9761 13.3875 11.9452 13.4287 11.9143C14.6856 10.915 15.4274 9.39023 15.2522 8.08184C15.1801 7.95821 15.0874 7.84489 14.9844 7.76247L12.8415 6.17592C12.6354 6.02139 12.3367 6.16562 12.3367 6.42318V10.1629C12.3367 12.5118 10.5132 13.2227 10.5132 13.2227C10.5132 13.2227 11.8937 12.7591 12.3367 12.5633C12.4191 12.5221 12.5015 12.4809 12.5839 12.4397Z" fill="#DBD9FF"/>
<path d="M25.9971 15.891L19.4964 11.0386C19.4861 11.0386 19.4861 11.0283 19.4758 11.0283L17.0651 9.23574C16.859 9.0812 16.5706 9.22544 16.5706 9.48299V22.845C16.5912 23.082 16.6221 23.3292 16.6736 23.5662C16.7251 23.7928 16.7972 24.0092 16.9002 24.1946C16.7251 22.8862 17.4669 21.3615 18.7237 20.3622C19.0019 20.1355 19.3831 19.8883 19.8055 19.7131C20.2485 19.5174 21.629 19.0538 21.629 19.0538L25.7602 17.56C26.471 17.2921 26.6049 16.3443 25.9971 15.891Z" fill="#F2EEFF"/>
<path d="M19.5585 19.8266C19.5482 19.8369 19.5276 19.8369 19.5173 19.8472C19.4967 19.8575 19.4761 19.8678 19.4452 19.8884C19.4142 19.8987 19.3936 19.9193 19.3627 19.9296C19.3524 19.9399 19.3318 19.9502 19.3215 19.9502C19.2906 19.9708 19.2494 19.9914 19.2185 20.012C19.2082 20.0223 19.1979 20.0223 19.1876 20.0326C19.1567 20.0532 19.1258 20.0738 19.0846 20.0944C19.064 20.1047 19.0537 20.115 19.0331 20.1253C19.0125 20.1459 18.9816 20.1562 18.9609 20.1768C18.93 20.1974 18.8991 20.2283 18.8579 20.2489C18.8476 20.2489 18.8476 20.2592 18.8373 20.2592C18.7961 20.2902 18.7549 20.3211 18.7137 20.352C17.4568 21.3513 16.7151 22.876 16.8902 24.1844C16.9623 24.308 17.055 24.4214 17.1581 24.5038L19.2906 26.0903C19.4967 26.2449 19.7954 26.1006 19.7954 25.8431V22.1033C19.7954 19.7647 21.6189 19.0436 21.6189 19.0436C21.6189 19.0436 20.2384 19.5072 19.7954 19.7029C19.7233 19.7441 19.6409 19.7853 19.5585 19.8266Z" fill="#DBD9FF"/>
<defs>
<linearGradient id="paint0_linear_1_4921" x1="16" y1="0" x2="16" y2="32" gradientUnits="userSpaceOnUse">
<stop stop-color="#7770E0"/>
<stop offset="1" stop-color="#554FD8"/>
</linearGradient>
</defs>
</svg>
