<svg width="24" height="24" viewBox="0 0 24 24" fill="none" xmlns="http://www.w3.org/2000/svg">
<path d="M13 8C13 7.44772 12.5523 7 12 7C11.4477 7 11 7.44772 11 8H13ZM11 11C11 11.5523 11.4477 12 12 12C12.5523 12 13 11.5523 13 11H11ZM12 13C11.4477 13 11 13.4477 11 14C11 14.5523 11.4477 15 12 15V13ZM12.01 15C12.5623 15 13.01 14.5523 13.01 14C13.01 13.4477 12.5623 13 12.01 13V15ZM21 20L20.5528 20.8944C20.8628 21.0494 21.2309 21.0329 21.5257 20.8507C21.8205 20.6684 22 20.3466 22 20H21ZM16.8052 18.0193L16.9438 17.029L16.8052 18.0193ZM17.6757 18.3378L17.2285 19.2323L17.6757 18.3378ZM17.1656 18.1044L16.8467 19.0522L17.1656 18.1044ZM3.32698 16.362L2.43597 16.816L3.32698 16.362ZM4.63803 17.673L4.18404 18.564L4.63803 17.673ZM19.362 4.32698L19.816 3.43597L19.362 4.32698ZM20.673 5.63803L21.564 5.18404L20.673 5.63803ZM4.63803 4.32698L4.18404 3.43597L4.63803 4.32698ZM3.32698 5.63803L2.43597 5.18404L3.32698 5.63803ZM11 8V11H13V8H11ZM12 15H12.01V13H12V15ZM7.8 5H16.2V3H7.8V5ZM4 13.2V8.8H2V13.2H4ZM16.2446 17H7.8V19H16.2446V17ZM21.4472 19.1056L18.1229 17.4434L17.2285 19.2323L20.5528 20.8944L21.4472 19.1056ZM16.2446 19C16.553 19 16.6133 19.0022 16.6665 19.0097L16.9438 17.029C16.7211 16.9978 16.4996 17 16.2446 17V19ZM18.1229 17.4434C17.8948 17.3294 17.6977 17.2283 17.4845 17.1566L16.8467 19.0522C16.8977 19.0693 16.9526 19.0943 17.2285 19.2323L18.1229 17.4434ZM16.6665 19.0097C16.7278 19.0182 16.7881 19.0325 16.8467 19.0522L17.4845 17.1566C17.3086 17.0974 17.1276 17.0547 16.9438 17.029L16.6665 19.0097ZM2 13.2C2 14.0236 1.99922 14.7014 2.04419 15.2518C2.09012 15.8139 2.18868 16.3306 2.43597 16.816L4.21799 15.908C4.1383 15.7516 4.07337 15.5274 4.03755 15.089C4.00078 14.6389 4 14.0566 4 13.2H2ZM7.8 17C6.94342 17 6.36113 16.9992 5.91104 16.9624C5.47262 16.9266 5.24842 16.8617 5.09202 16.782L4.18404 18.564C4.66937 18.8113 5.18608 18.9099 5.74817 18.9558C6.2986 19.0008 6.97642 19 7.8 19V17ZM2.43597 16.816C2.81947 17.5686 3.43139 18.1805 4.18404 18.564L5.09202 16.782C4.71569 16.5903 4.40973 16.2843 4.21799 15.908L2.43597 16.816ZM16.2 5C17.0566 5 17.6389 5.00078 18.089 5.03755C18.5274 5.07337 18.7516 5.1383 18.908 5.21799L19.816 3.43597C19.3306 3.18868 18.8139 3.09012 18.2518 3.04419C17.7014 2.99922 17.0236 3 16.2 3V5ZM22 8.8C22 7.97642 22.0008 7.2986 21.9558 6.74817C21.9099 6.18608 21.8113 5.66937 21.564 5.18404L19.782 6.09202C19.8617 6.24842 19.9266 6.47262 19.9624 6.91104C19.9992 7.36113 20 7.94342 20 8.8H22ZM18.908 5.21799C19.2843 5.40973 19.5903 5.7157 19.782 6.09202L21.564 5.18404C21.1805 4.43139 20.5686 3.81947 19.816 3.43597L18.908 5.21799ZM7.8 3C6.97642 3 6.2986 2.99922 5.74817 3.04419C5.18608 3.09012 4.66937 3.18868 4.18404 3.43597L5.09202 5.21799C5.24842 5.1383 5.47262 5.07337 5.91104 5.03755C6.36113 5.00078 6.94342 5 7.8 5V3ZM4 8.8C4 7.94342 4.00078 7.36113 4.03755 6.91104C4.07337 6.47262 4.1383 6.24842 4.21799 6.09202L2.43597 5.18404C2.18868 5.66937 2.09012 6.18608 2.04419 6.74817C1.99922 7.2986 2 7.97642 2 8.8H4ZM4.18404 3.43597C3.43139 3.81947 2.81947 4.43139 2.43597 5.18404L4.21799 6.09202C4.40973 5.71569 4.71569 5.40973 5.09202 5.21799L4.18404 3.43597ZM20 8.8V20H22V8.8H20Z" fill="#F8845B"/>
</svg>
