<svg width="18" height="18" viewBox="0 0 18 18" fill="none" xmlns="http://www.w3.org/2000/svg">
<rect x="0.5" y="0.5" width="17" height="17" rx="8.5" fill="url(#paint0_linear_117_6968)" stroke="#C0CBF7"/>
<path d="M9.11446 4.20007L9.05078 4.41103V10.5321L9.11446 10.594L12.0275 8.91454L9.11446 4.20007Z" fill="#C1CCF8"/>
<path d="M9.11279 4.2002L6.19971 8.91466L9.11279 10.5941V7.62317V4.2002Z" fill="white"/>
<path d="M9.11401 11.1317L9.07812 11.1744V13.3548L9.11401 13.457L12.0288 9.45306L9.11401 11.1317Z" fill="#C1CCF8"/>
<path d="M9.11279 13.457V11.1317L6.19971 9.45306L9.11279 13.457Z" fill="white"/>
<path d="M9.11328 10.5937L12.0263 8.91423L9.11328 7.62274V10.5937Z" fill="#8197EE"/>
<path d="M6.19971 8.91423L9.11279 10.5937V7.62274L6.19971 8.91423Z" fill="#C1CCF8"/>
<defs>
<linearGradient id="paint0_linear_117_6968" x1="17" y1="17" x2="1" y2="1" gradientUnits="userSpaceOnUse">
<stop stop-color="#556ECC"/>
<stop offset="1" stop-color="#627EEA"/>
</linearGradient>
</defs>
</svg>
