<svg width="38" height="38" viewBox="0 0 38 38" fill="none" xmlns="http://www.w3.org/2000/svg">
<rect width="38" height="38" rx="12" fill="#292757"/>
<mask id="mask0_14_5985" style="mask-type:alpha" maskUnits="userSpaceOnUse" x="7" y="7" width="24" height="24">
<rect x="7" y="7" width="24" height="24" fill="#D9D9D9"/>
</mask>
<g mask="url(#mask0_14_5985)">
<path d="M15.5 10H18.5118C19.2455 10 19.6124 10 19.9577 10.0829C20.2638 10.1564 20.5564 10.2776 20.8249 10.4421C21.1276 10.6276 21.387 10.887 21.9059 11.4059L27.5 17M14.5498 17.0498H14.5598M16.5118 13H15.3C13.6198 13 12.7798 13 12.138 13.327C11.5735 13.6146 11.1146 14.0735 10.827 14.638C10.5 15.2798 10.5 16.1198 10.5 17.8V19.0118C10.5 19.7455 10.5 20.1124 10.5829 20.4577C10.6564 20.7638 10.7776 21.0564 10.9421 21.3249C11.1276 21.6276 11.387 21.887 11.9059 22.4059L15.1059 25.6059C16.2939 26.7939 16.888 27.388 17.5729 27.6105C18.1755 27.8063 18.8245 27.8063 19.4271 27.6105C20.112 27.388 20.7061 26.7939 21.8941 25.6059L23.1059 24.3941C24.2939 23.2061 24.888 22.612 25.1105 21.9271C25.3063 21.3245 25.3063 20.6755 25.1105 20.0729C24.888 19.388 24.2939 18.7939 23.1059 17.6059L19.9059 14.4059C19.387 13.887 19.1276 13.6276 18.8249 13.4421C18.5564 13.2776 18.2638 13.1564 17.9577 13.0829C17.6124 13 17.2455 13 16.5118 13ZM15.0498 17.0498C15.0498 17.3259 14.8259 17.5498 14.5498 17.5498C14.2737 17.5498 14.0498 17.3259 14.0498 17.0498C14.0498 16.7737 14.2737 16.5498 14.5498 16.5498C14.8259 16.5498 15.0498 16.7737 15.0498 17.0498Z" stroke="#75CAC2" stroke-linecap="round" stroke-linejoin="round"/>
</g>
</svg>
