<svg width="24" height="24" viewBox="0 0 24 24" fill="none" xmlns="http://www.w3.org/2000/svg">
<rect opacity="0.6" width="24" height="24" rx="8" fill="#14142A"/>
<path d="M14.3273 12L14.6841 11.6497C14.875 11.8442 14.875 12.1558 14.6841 12.3503L14.3273 12ZM10.0432 8.3503C9.84975 8.15325 9.85266 7.83668 10.0497 7.64322C10.2467 7.44976 10.5633 7.45266 10.7568 7.6497L10.0432 8.3503ZM10.7568 16.3503C10.5633 16.5473 10.2467 16.5502 10.0497 16.3568C9.85266 16.1633 9.84975 15.8468 10.0432 15.6497L10.7568 16.3503ZM13.9705 12.3503L10.0432 8.3503L10.7568 7.6497L14.6841 11.6497L13.9705 12.3503ZM14.6841 12.3503L10.7568 16.3503L10.0432 15.6497L13.9705 11.6497L14.6841 12.3503Z" fill="#4ED5D2"/>
</svg>
