<svg width="24" height="24" viewBox="0 0 24 24" fill="none" xmlns="http://www.w3.org/2000/svg">
<rect opacity="0.6" width="24" height="24" rx="8" fill="#14142A"/>
<path d="M14.3271 12L14.6839 11.6497C14.8749 11.8442 14.8749 12.1558 14.6839 12.3503L14.3271 12ZM10.0431 8.3503C9.84963 8.15325 9.85253 7.83668 10.0496 7.64322C10.2466 7.44976 10.5632 7.45266 10.7567 7.6497L10.0431 8.3503ZM10.7567 16.3503C10.5632 16.5473 10.2466 16.5502 10.0496 16.3568C9.85253 16.1633 9.84963 15.8468 10.0431 15.6497L10.7567 16.3503ZM13.9704 12.3503L10.0431 8.3503L10.7567 7.6497L14.6839 11.6497L13.9704 12.3503ZM14.6839 12.3503L10.7567 16.3503L10.0431 15.6497L13.9704 11.6497L14.6839 12.3503Z" fill="#4ED5D2"/>
</svg>
