<svg width="32" height="32" viewBox="0 0 32 32" fill="none" xmlns="http://www.w3.org/2000/svg">
<path d="M25.3334 12V23.7333C25.3334 25.2268 25.3334 25.9735 25.0428 26.544C24.7871 27.0457 24.3792 27.4537 23.8774 27.7094C23.307 28 22.5602 28 21.0667 28H10.9334C9.43994 28 8.6932 28 8.12277 27.7094C7.62101 27.4537 7.21306 27.0457 6.9574 26.544C6.66675 25.9735 6.66675 25.2268 6.66675 23.7333V8.26667C6.66675 6.77319 6.66675 6.02646 6.9574 5.45603C7.21306 4.95426 7.62101 4.54631 8.12277 4.29065C8.6932 4 9.43994 4 10.9334 4H17.3334M25.3334 12L17.3334 4M25.3334 12H21.6001C20.1066 12 19.3599 12 18.7894 11.7094C18.2877 11.4537 17.8797 11.0457 17.6241 10.544C17.3334 9.97354 17.3334 9.22681 17.3334 7.73333V4M10.6667 8H13.3334M10.6667 12H13.3334M21.3334 22.6667H18.6667L17.3334 20.6667L16.0001 22.6667L13.3334 18.6667L12.6667 22.6667H10.6667" stroke="#D6D8E7" stroke-width="2" stroke-linecap="round" stroke-linejoin="round"/>
</svg>
