<svg width="20" height="20" viewBox="0 0 20 20" fill="none" xmlns="http://www.w3.org/2000/svg">
<path d="M7.50033 14.1667H9.58366M7.50033 10.8333H11.667M7.50033 7.5H8.33366M10.8337 2.5H6.83366C5.90024 2.5 5.43353 2.5 5.07701 2.68166C4.7634 2.84144 4.50844 3.09641 4.34865 3.41002C4.16699 3.76654 4.16699 4.23325 4.16699 5.16667V14.8333C4.16699 15.7668 4.16699 16.2335 4.34865 16.59C4.50844 16.9036 4.7634 17.1586 5.07701 17.3183C5.43353 17.5 5.90024 17.5 6.83366 17.5H8.33366M10.8337 2.5L15.8337 7.5M10.8337 2.5V4.83333C10.8337 5.76675 10.8337 6.23346 11.0153 6.58998C11.1751 6.90359 11.4301 7.15856 11.7437 7.31834C12.1002 7.5 12.5669 7.5 13.5003 7.5H15.8337M15.8337 7.5V8.33333M11.667 17.5L13.3545 17.1625C13.5016 17.1331 13.5752 17.1184 13.6438 17.0915C13.7047 17.0676 13.7625 17.0366 13.8162 16.9992C13.8766 16.957 13.9297 16.904 14.0358 16.7979L17.5003 13.3333C17.9606 12.8731 17.9606 12.1269 17.5003 11.6667C17.0401 11.2064 16.2939 11.2064 15.8337 11.6667L12.3691 15.1312C12.263 15.2373 12.21 15.2904 12.1678 15.3508C12.1304 15.4045 12.0994 15.4623 12.0755 15.5232C12.0486 15.5918 12.0339 15.6654 12.0045 15.8125L11.667 17.5Z" stroke="#8E97CD" stroke-linecap="round" stroke-linejoin="round"/>
</svg>
