<svg width="48" height="48" viewBox="0 0 48 48" fill="none" xmlns="http://www.w3.org/2000/svg">
<mask id="mask0_1_4778" style="mask-type:alpha" maskUnits="userSpaceOnUse" x="0" y="0" width="48" height="48">
<rect width="48" height="48" fill="#D9D9D9"/>
</mask>
<g mask="url(#mask0_1_4778)">
<mask id="mask1_1_4778" style="mask-type:alpha" maskUnits="userSpaceOnUse" x="0" y="0" width="48" height="48">
<rect width="47.5058" height="47.5058" rx="23.7529" fill="#191744"/>
</mask>
<g mask="url(#mask1_1_4778)">
<path d="M8.74783 13.9993C7.06092 19.527 5.37826 25.0706 3.69135 30.5984C3.32821 31.7857 3.55108 32.9353 3.96891 34.0497C5.26383 37.484 6.58628 40.8938 7.84942 44.3366C7.89511 44.4436 7.93655 44.5347 7.97374 44.6099C7.78304 44.661 7.57645 44.7163 7.38575 44.7674C6.87722 44.9037 6.72172 45.1497 6.87388 45.654C7.2219 46.8893 7.57419 48.1405 7.87454 49.3885C8.0162 49.9808 8.29404 50.1278 8.86187 49.9586C10.4107 49.5095 11.9883 49.1038 13.5456 48.6865C15.103 48.2692 16.6561 47.836 18.2379 47.4463C18.8302 47.3046 18.9814 47.0427 18.808 46.4589C18.444 45.2279 18.1235 43.9682 17.8073 42.7244C17.671 42.2159 17.4292 42.0763 16.9207 42.2125C16.5234 42.319 16.1261 42.4254 15.7447 42.5276C15.7405 42.5118 15.7405 42.5118 15.7521 42.4916C15.6646 41.0843 15.9247 39.7031 16.1329 38.3188C16.4409 36.2264 16.1132 34.3044 15.0724 32.4542C13.7396 30.0861 12.5296 27.6681 11.2444 25.2872C10.8365 24.5279 10.1611 24.2319 9.47891 24.4829C8.79671 24.7338 8.51013 25.2534 8.54595 25.9592C8.55789 26.1944 8.67369 26.4359 8.78098 26.6456C9.61602 28.3636 10.4553 30.0975 11.2904 31.8154C11.3361 31.9224 11.3934 32.0092 11.4391 32.1162C11.5805 32.4531 11.7144 32.8259 11.2834 33.0607C10.864 33.2753 10.6315 32.9799 10.4541 32.6356C10.1365 32.0224 9.83906 31.4208 9.53734 30.8033C8.92965 29.5524 8.30181 28.2899 7.71001 27.0348C7.06088 25.6928 7.43026 24.4016 8.70211 23.618C9.0696 23.4003 9.25261 23.1298 9.35389 22.745C10.0597 20.1032 10.7814 17.4571 11.483 14.7994C11.7457 13.8092 11.3782 13.0731 10.5481 12.8357C9.70633 12.6184 9.04231 13.0007 8.74783 13.9993Z" fill="url(#paint0_linear_1_4778)"/>
<path d="M38.8712 13.9993C40.5581 19.527 42.2408 25.0706 43.9277 30.5984C44.2908 31.7857 44.0679 32.9353 43.6501 34.0497C42.3552 37.484 41.0327 40.8938 39.7696 44.3366C39.7239 44.4436 39.6825 44.5347 39.6453 44.6099C39.836 44.661 40.0426 44.7163 40.2333 44.7674C40.7418 44.9037 40.8973 45.1497 40.7451 45.654C40.3971 46.8893 40.0448 48.1405 39.7445 49.3885C39.6028 49.9808 39.325 50.1278 38.7571 49.9586C37.2083 49.5095 35.6308 49.1038 34.0734 48.6865C32.516 48.2692 30.9629 47.836 29.3811 47.4463C28.7889 47.3046 28.6376 47.0427 28.8111 46.4589C29.175 45.2279 29.4955 43.9682 29.8117 42.7244C29.948 42.2159 30.1898 42.0763 30.6983 42.2125C31.0956 42.319 31.4929 42.4254 31.8743 42.5276C31.8785 42.5118 31.8785 42.5118 31.8669 42.4916C31.9544 41.0843 31.6943 39.7031 31.4862 38.3188C31.1781 36.2264 31.5058 34.3044 32.5466 32.4542C33.8794 30.0861 35.0894 27.6681 36.3746 25.2872C36.7825 24.5279 37.4579 24.2319 38.1401 24.4829C38.8223 24.7338 39.1089 25.2534 39.0731 25.9592C39.0611 26.1944 38.9453 26.4359 38.838 26.6456C38.003 28.3636 37.1637 30.0975 36.3286 31.8154C36.283 31.9224 36.2256 32.0092 36.1799 32.1162C36.0386 32.4531 35.9046 32.8259 36.3356 33.0607C36.7551 33.2753 36.9875 32.9799 37.1649 32.6356C37.4825 32.0224 37.78 31.4208 38.0817 30.8033C38.6894 29.5524 39.3172 28.2899 39.909 27.0348C40.5581 25.6928 40.1888 24.4016 38.9169 23.618C38.5494 23.4003 38.3664 23.1298 38.2651 22.745C37.5593 20.1032 36.8376 17.4571 36.136 14.7994C35.8733 13.8092 36.2409 13.0731 37.071 12.8357C37.9127 12.6184 38.5767 13.0007 38.8712 13.9993Z" fill="url(#paint1_linear_1_4778)"/>
</g>
<rect x="18.4084" y="2.83069" width="10.6888" height="10.6888" rx="5.3444" fill="url(#paint2_linear_1_4778)"/>
<path d="M23.829 4.96854L23.7865 5.10947V9.19862L23.829 9.24002L25.7751 8.11803L23.829 4.96854Z" fill="#C1CCF8"/>
<path d="M23.828 4.96841L21.882 8.11791L23.828 9.23989V7.25513V4.96841Z" fill="white"/>
<path d="M23.8285 9.59934L23.8046 9.62785V11.0845L23.8285 11.1527L25.7758 8.47794L23.8285 9.59934Z" fill="#C1CCF8"/>
<path d="M23.8282 11.1527V9.59934L21.8821 8.47794L23.8282 11.1527Z" fill="white"/>
<path d="M23.8284 9.24001L25.7744 8.11803L23.8284 7.25525V9.24001Z" fill="#8197EE"/>
<path d="M21.8821 8.11803L23.8282 9.24001V7.25525L21.8821 8.11803Z" fill="#C1CCF8"/>
<rect x="24.4655" y="13.8758" width="10.6888" height="10.6888" rx="5.3444" fill="url(#paint3_linear_1_4778)"/>
<path d="M27.2426 19.3073L27.2468 20.8444L28.5528 21.6129V22.5129L26.4824 21.2985V18.8578L27.2426 19.3073ZM27.2426 17.7702V18.6659L26.4819 18.2159V17.3202L27.2426 16.8702L28.0069 17.3202L27.2426 17.7702ZM29.0983 17.3202L29.8589 16.8702L30.6233 17.3202L29.8589 17.7702L29.0983 17.3202Z" fill="white"/>
<path d="M27.7924 20.5258V19.6259L28.553 20.0758V20.9715L27.7924 20.5258ZM29.0984 21.9353L29.8591 22.3852L30.6234 21.9353V22.831L29.8591 23.2809L29.0984 22.831V21.9353ZM31.7143 17.3202L32.475 16.8702L33.2393 17.3202V18.2159L32.475 18.6659V17.7702L31.7143 17.3202ZM32.475 20.8444L32.4792 19.3073L33.2398 18.8573V21.2981L31.1694 22.5124V21.6125L32.475 20.8444Z" fill="white"/>
<path d="M31.9293 20.5256L31.1687 20.9714V20.0757L31.9293 19.6257V20.5256Z" fill="white"/>
<path d="M31.9295 18.0885L31.9337 18.9884L30.6239 19.757V21.2978L29.8633 21.7436L29.1026 21.2978V19.757L27.7928 18.9884V18.0885L28.5567 17.6386L29.8586 18.4108L31.1684 17.6386L31.9328 18.0885H31.9295ZM27.7924 16.5519L29.8591 15.3333L31.9295 16.5519L31.1689 17.0018L29.8591 16.2295L28.553 17.0018L27.7924 16.5519Z" fill="white"/>
<rect x="12.3514" y="13.8758" width="10.6888" height="10.6888" rx="5.3444" fill="url(#paint4_linear_1_4778)"/>
<path fill-rule="evenodd" clip-rule="evenodd" d="M16.2435 21.3336H15.2632C15.0572 21.3336 14.9554 21.3336 14.8934 21.2926C14.8264 21.2478 14.7854 21.1734 14.7805 21.0914C14.7767 21.0158 14.8276 20.9235 14.9294 20.7389L17.3499 16.3324C17.4529 16.1453 17.505 16.0517 17.5708 16.0171C17.6415 15.9799 17.7259 15.9799 17.7967 16.0171C17.8624 16.0517 17.9145 16.1453 18.0175 16.3324L18.5151 17.2295L18.5177 17.2341C18.6289 17.4349 18.6853 17.5367 18.71 17.6435C18.7373 17.7601 18.7373 17.8832 18.71 17.9998C18.6852 18.1075 18.6293 18.21 18.5164 18.4138L17.2449 20.7351L17.2416 20.741C17.1297 20.9434 17.0729 21.046 16.9943 21.1234C16.9086 21.208 16.8056 21.2695 16.6927 21.3042C16.5897 21.3336 16.4743 21.3336 16.2435 21.3336ZM18.7192 21.3336H20.1238C20.3311 21.3336 20.4353 21.3336 20.4974 21.2914C20.5644 21.2465 20.6066 21.1709 20.6103 21.0889C20.6139 21.0157 20.5641 20.927 20.4666 20.7532C20.4632 20.7473 20.4599 20.7413 20.4565 20.7351L19.7528 19.4919L19.7448 19.4779C19.646 19.3053 19.596 19.218 19.5319 19.1843C19.4613 19.1472 19.378 19.1472 19.3073 19.1843C19.2428 19.2189 19.1907 19.3099 19.0877 19.4932L18.3866 20.7364L18.3842 20.7407C18.2815 20.9237 18.2303 21.0151 18.234 21.0901C18.2389 21.1722 18.2799 21.2478 18.3469 21.2926C18.4077 21.3336 18.5119 21.3336 18.7192 21.3336Z" fill="white"/>
</g>
<defs>
<linearGradient id="paint0_linear_1_4778" x1="15.7701" y1="44.1308" x2="15.7701" y2="13.7558" gradientUnits="userSpaceOnUse">
<stop stop-color="#A3ABF8"/>
<stop offset="1" stop-color="#7770E0"/>
</linearGradient>
<linearGradient id="paint1_linear_1_4778" x1="37.7555" y1="43.0058" x2="37.7555" y2="12.2558" gradientUnits="userSpaceOnUse">
<stop stop-color="#A3ABF8"/>
<stop offset="1" stop-color="#7770E0"/>
</linearGradient>
<linearGradient id="paint2_linear_1_4778" x1="29.0972" y1="13.5195" x2="18.4084" y2="2.83069" gradientUnits="userSpaceOnUse">
<stop stop-color="#556ECC"/>
<stop offset="1" stop-color="#627EEA"/>
</linearGradient>
<linearGradient id="paint3_linear_1_4778" x1="35.1543" y1="24.5646" x2="24.4655" y2="13.8758" gradientUnits="userSpaceOnUse">
<stop stop-color="#D1A000"/>
<stop offset="1" stop-color="#FFD632"/>
</linearGradient>
<linearGradient id="paint4_linear_1_4778" x1="23.0402" y1="24.5646" x2="12.3514" y2="13.8758" gradientUnits="userSpaceOnUse">
<stop stop-color="#D91D1E"/>
<stop offset="1" stop-color="#FF7576"/>
</linearGradient>
</defs>
</svg>
