<svg width="36" height="36" viewBox="0 0 36 36" fill="none" xmlns="http://www.w3.org/2000/svg">
<path d="M10.5 15.0432C11.2071 15 12.0789 15 13.2 15H22.8C23.9211 15 24.7929 15 25.5 15.0432M10.5 15.0432C9.61752 15.0971 8.99144 15.2182 8.45704 15.4905C7.61031 15.9219 6.9219 16.6103 6.49047 17.457C6 18.4196 6 19.6798 6 22.2V24.3C6 26.8202 6 28.0804 6.49047 29.043C6.9219 29.8897 7.61031 30.5781 8.45704 31.0095C9.41965 31.5 10.6798 31.5 13.2 31.5H22.8C25.3202 31.5 26.5804 31.5 27.543 31.0095C28.3897 30.5781 29.0781 29.8897 29.5095 29.043C30 28.0804 30 26.8202 30 24.3V22.2C30 19.6798 30 18.4196 29.5095 17.457C29.0781 16.6103 28.3897 15.9219 27.543 15.4905C27.0086 15.2182 26.3825 15.0971 25.5 15.0432M10.5 15.0432V12C10.5 7.85786 13.8579 4.5 18 4.5C22.1421 4.5 25.5 7.85786 25.5 12V15.0432" stroke="#4ED5D2" stroke-width="2" stroke-linecap="round" stroke-linejoin="round"/>
</svg>
