<svg width="20" height="20" viewBox="0 0 20 20" fill="none" xmlns="http://www.w3.org/2000/svg">
<path d="M16.6668 16.6673L15.2233 15.2238M15.2233 15.2238C15.6003 14.8468 15.8335 14.3259 15.8335 13.7507C15.8335 12.6001 14.9008 11.6673 13.7502 11.6673C12.5996 11.6673 11.6668 12.6001 11.6668 13.7507C11.6668 14.9012 12.5996 15.834 13.7502 15.834C14.3255 15.834 14.8463 15.6008 15.2233 15.2238ZM13.0002 8.33398H15.3335C15.8002 8.33398 16.0336 8.33398 16.2118 8.24316C16.3686 8.16326 16.4961 8.03578 16.576 7.87898C16.6668 7.70072 16.6668 7.46736 16.6668 7.00065V4.66732C16.6668 4.20061 16.6668 3.96725 16.576 3.78899C16.4961 3.63219 16.3686 3.50471 16.2118 3.42481C16.0336 3.33398 15.8002 3.33398 15.3335 3.33398H13.0002C12.5335 3.33398 12.3001 3.33398 12.1218 3.42481C11.965 3.50471 11.8376 3.63219 11.7577 3.78899C11.6668 3.96725 11.6668 4.20061 11.6668 4.66732V7.00065C11.6668 7.46736 11.6668 7.70072 11.7577 7.87898C11.8376 8.03578 11.965 8.16326 12.1218 8.24316C12.3001 8.33398 12.5335 8.33398 13.0002 8.33398ZM4.66683 8.33398H7.00016C7.46687 8.33398 7.70023 8.33398 7.87849 8.24316C8.03529 8.16326 8.16277 8.03578 8.24267 7.87898C8.3335 7.70072 8.3335 7.46736 8.3335 7.00065V4.66732C8.3335 4.20061 8.3335 3.96725 8.24267 3.78899C8.16277 3.63219 8.03529 3.50471 7.87849 3.42481C7.70023 3.33398 7.46687 3.33398 7.00016 3.33398H4.66683C4.20012 3.33398 3.96676 3.33398 3.7885 3.42481C3.6317 3.50471 3.50422 3.63219 3.42432 3.78899C3.3335 3.96725 3.3335 4.20061 3.3335 4.66732V7.00065C3.3335 7.46736 3.3335 7.70072 3.42432 7.87898C3.50422 8.03578 3.6317 8.16326 3.7885 8.24316C3.96676 8.33398 4.20012 8.33398 4.66683 8.33398ZM4.66683 16.6673H7.00016C7.46687 16.6673 7.70023 16.6673 7.87849 16.5765C8.03529 16.4966 8.16277 16.3691 8.24267 16.2123C8.3335 16.0341 8.3335 15.8007 8.3335 15.334V13.0007C8.3335 12.5339 8.3335 12.3006 8.24267 12.1223C8.16277 11.9655 8.03529 11.838 7.87849 11.7581C7.70023 11.6673 7.46687 11.6673 7.00016 11.6673H4.66683C4.20012 11.6673 3.96676 11.6673 3.7885 11.7581C3.6317 11.838 3.50422 11.9655 3.42432 12.1223C3.3335 12.3006 3.3335 12.5339 3.3335 13.0007V15.334C3.3335 15.8007 3.3335 16.0341 3.42432 16.2123C3.50422 16.3691 3.6317 16.4966 3.7885 16.5765C3.96676 16.6673 4.20012 16.6673 4.66683 16.6673Z" stroke="#C0C9FF" stroke-linecap="round" stroke-linejoin="round"/>
</svg>
