<svg width="24" height="24" viewBox="0 0 24 24" fill="none" xmlns="http://www.w3.org/2000/svg">
<mask id="mask0_1_5451" style="mask-type:alpha" maskUnits="userSpaceOnUse" x="0" y="0" width="24" height="24">
<rect width="24" height="24" fill="#D9D9D9"/>
</mask>
<g mask="url(#mask0_1_5451)">
<path d="M6 11.5001C5.72386 11.5001 5.5 11.7239 5.5 12.0001C5.5 12.2762 5.72386 12.5001 6 12.5001V11.5001ZM13 12.5001C13.2761 12.5001 13.5 12.2762 13.5 12.0001C13.5 11.7239 13.2761 11.5001 13 11.5001V12.5001ZM6 7.50008C5.72386 7.50008 5.5 7.72393 5.5 8.00008C5.5 8.27622 5.72386 8.50008 6 8.50008V7.50008ZM9 8.50008C9.27614 8.50008 9.5 8.27622 9.5 8.00008C9.5 7.72393 9.27614 7.50008 9 7.50008V8.50008ZM6 15.5001C5.72386 15.5001 5.5 15.7239 5.5 16.0001C5.5 16.2762 5.72386 16.5001 6 16.5001V15.5001ZM13 16.5001C13.2761 16.5001 13.5 16.2762 13.5 16.0001C13.5 15.7239 13.2761 15.5001 13 15.5001V16.5001ZM17 13.0001V12.5001C16.7239 12.5001 16.5 12.7239 16.5 13.0001H17ZM21 13.0001H21.5C21.5 12.7239 21.2761 12.5001 21 12.5001V13.0001ZM16 20.5001C15.7239 20.5001 15.5 20.7239 15.5 21.0001C15.5 21.2762 15.7239 21.5001 16 21.5001V20.5001ZM18.5 21.5001C18.7761 21.5001 19 21.2762 19 21.0001C19 20.7239 18.7761 20.5001 18.5 20.5001V21.5001ZM17 21.5001C17.2761 21.5001 17.5 21.2762 17.5 21.0001C17.5 20.7239 17.2761 20.5001 17 20.5001V21.5001ZM16.5 14.0001C16.5 14.2762 16.7239 14.5001 17 14.5001C17.2761 14.5001 17.5 14.2762 17.5 14.0001H16.5ZM3.32698 19.362L3.77248 19.1351L3.77248 19.1351L3.32698 19.362ZM4.63803 20.6731L4.41103 21.1186H4.41103L4.63803 20.6731ZM3.89237 3.72906V3.22906C3.8744 3.22906 3.85643 3.23003 3.83856 3.23197L3.89237 3.72906ZM3.1902 4.13655L2.7853 3.8432L2.7853 3.8432L3.1902 4.13655ZM16.1076 3.72906L16.1614 3.23197C16.1436 3.23003 16.1256 3.22906 16.1076 3.22906V3.72906ZM16.8098 4.13655L16.4049 4.4299V4.4299L16.8098 4.13655ZM6 12.5001H13V11.5001H6V12.5001ZM6 8.50008H9V7.50008H6V8.50008ZM17 13.5001H21V12.5001H17V13.5001ZM20.5 13.0001V19.0001H21.5V13.0001H20.5ZM17.5 19.0001V13.0001H16.5V19.0001H17.5ZM19 20.5001C18.1716 20.5001 17.5 19.8285 17.5 19.0001H16.5C16.5 20.3808 17.6193 21.5001 19 21.5001V20.5001ZM20.5 19.0001C20.5 19.8285 19.8284 20.5001 19 20.5001V21.5001C20.3807 21.5001 21.5 20.3808 21.5 19.0001H20.5ZM16 21.5001H18.5V20.5001H16V21.5001ZM2.5 5.75716V16.2001H3.5V5.75716H2.5ZM7.8 21.5001H17V20.5001H7.8V21.5001ZM17.5 14.0001V5.75716H16.5V14.0001H17.5ZM2.5 16.2001C2.5 17.0319 2.49961 17.6858 2.54253 18.2112C2.58593 18.7424 2.67609 19.1859 2.88148 19.589L3.77248 19.1351C3.65089 18.8964 3.57756 18.5991 3.53921 18.1298C3.50039 17.6546 3.5 17.0484 3.5 16.2001H2.5ZM7.8 20.5001C6.95167 20.5001 6.34549 20.4997 5.87032 20.4609C5.40099 20.4225 5.10366 20.3492 4.86502 20.2276L4.41103 21.1186C4.81413 21.324 5.25771 21.4141 5.78889 21.4575C6.31423 21.5005 6.96817 21.5001 7.8 21.5001V20.5001ZM2.88148 19.589C3.21703 20.2476 3.75247 20.783 4.41103 21.1186L4.86502 20.2276C4.39462 19.9879 4.01217 19.6055 3.77248 19.1351L2.88148 19.589ZM3.5 5.75716C3.5 5.29462 3.5005 4.98236 3.52168 4.75146C3.54309 4.51811 3.58054 4.45 3.5951 4.4299L2.7853 3.8432C2.60966 4.08563 2.55201 4.37512 2.52587 4.66011C2.4995 4.94753 2.5 5.31432 2.5 5.75716H3.5ZM3.83856 3.23197C3.41684 3.27762 3.03417 3.4997 2.7853 3.8432L3.5951 4.4299C3.67806 4.3154 3.80561 4.24138 3.94619 4.22616L3.83856 3.23197ZM17.5 5.75716C17.5 5.14595 17.5008 4.76918 17.4732 4.51896C17.4582 4.38307 17.4327 4.25813 17.3832 4.136C17.3338 4.01413 17.2705 3.92016 17.2147 3.8432L16.4049 4.4299C16.4442 4.48421 16.4522 4.50129 16.4563 4.51147C16.4604 4.52139 16.4705 4.54948 16.4792 4.62877C16.4992 4.80894 16.5 5.11121 16.5 5.75716H17.5ZM16.0538 4.22616C16.1944 4.24138 16.3219 4.3154 16.4049 4.4299L17.2147 3.8432C16.9658 3.4997 16.5832 3.27762 16.1614 3.23197L16.0538 4.22616ZM16.1076 3.22906H3.89237V4.22906H16.1076V3.22906ZM6 16.5001H9V15.5001H6V16.5001ZM9 16.5001H13V15.5001H9V16.5001Z" fill="#C0C9FF"/>
</g>
</svg>
