<svg width="32" height="32" viewBox="0 0 32 32" fill="none" xmlns="http://www.w3.org/2000/svg">
<path d="M17.3346 12.0007H12.0013M20.0013 22.6673H12.0013M18.668 17.334H12.0013M10.9346 28.0006H21.068C22.5614 28.0006 23.3082 28.0006 23.8786 27.71C24.3804 27.4543 24.7883 27.0464 25.044 26.5446C25.3346 25.9742 25.3346 25.2275 25.3346 23.734V9.60065C25.3346 8.10718 25.3346 7.36044 25.044 6.79001C24.7883 6.28824 24.3804 5.8803 23.8786 5.62463C23.3082 5.33398 22.5614 5.33398 21.068 5.33398H10.9346C9.44116 5.33398 8.69443 5.33398 8.12399 5.62463C7.62223 5.8803 7.21428 6.28824 6.95862 6.79001C6.66797 7.36044 6.66797 8.10718 6.66797 9.60065V23.734C6.66797 25.2275 6.66797 25.9742 6.95862 26.5446C7.21428 27.0464 7.62223 27.4543 8.12399 27.71C8.69443 28.0006 9.44116 28.0006 10.9346 28.0006Z" stroke="#D6D8E7" stroke-width="2" stroke-linecap="round" stroke-linejoin="round"/>
</svg>
