<svg width="100" height="100" viewBox="0 0 100 100" fill="none" xmlns="http://www.w3.org/2000/svg">
<path d="M50 100C77.7085 100 100 77.7085 100 50C100 22.2915 77.7085 0 50 0C22.2915 0 0 22.2915 0 50C0 77.7085 22.2915 100 50 100Z" fill="#41D6E2"/>
<path d="M80.4323 62.5012C80.4323 72.8137 66.743 81.2321 49.8947 81.2321C33.0464 81.2321 19.3572 72.8137 19.3572 62.5012V57.6606H80.6429V62.5012H80.4323Z" fill="#FEDC90"/>
<path fill-rule="evenodd" clip-rule="evenodd" d="M30.8482 26.1991C30.0029 22.3774 33.3049 18.7681 37.1088 18.7681C40.4901 18.7681 44.1071 21.5282 44.1071 24.9252V38.2145C46.2204 38.0022 47.464 38.5135 49.7886 38.5135C51.9019 38.5135 53.1902 38.3012 55.3035 38.5135V24.9252C55.3035 21.5282 58.8758 18.7681 62.2571 18.7681C66.0611 18.7681 69.0197 22.3774 68.3857 26.1991L65.6384 41.4859C74.5143 44.883 80.6428 50.8278 80.6428 57.6219C80.6428 68.0254 66.9064 76.5181 50 76.5181C33.0936 76.5181 18.7678 68.0254 18.7678 57.6219C18.7678 50.8278 24.6241 44.558 33.5 41.1609L30.8482 26.1991Z" fill="#D1884F"/>
<path fill-rule="evenodd" clip-rule="evenodd" d="M28.7615 27.3125C27.7298 21.95 31.8567 17 37.2216 17C41.9675 17 45.888 20.9187 45.888 25.6625V36.3875C47.1261 36.3875 48.3641 36.1813 49.6022 36.1813C50.8402 36.1813 51.872 36.1812 53.11 36.3875V25.6625C53.11 20.9187 57.0305 17 61.7764 17C67.1413 17 71.2682 21.95 70.4428 27.3125L68.173 39.8938C76.2204 43.4 82.4107 49.5875 82.4107 57.2188V61.9625C82.4107 68.3562 78.2839 73.7188 72.2999 77.225C66.316 80.9375 58.4749 83 49.6022 83C40.7294 83 32.8884 80.9375 26.9045 77.225C21.1269 73.7188 17 68.3562 17 61.9625V57.2188C17 49.5875 22.9839 43.4 31.0313 39.8938L28.7615 27.3125ZM65.0779 41.5437L67.7604 26.6937C68.3794 22.9812 65.6969 19.475 61.7764 19.475C58.4749 19.475 55.7925 22.1562 55.7925 25.4562V39.0687C54.9671 38.8625 53.9354 38.8625 53.11 38.8625C51.872 38.8625 50.8402 38.6562 49.6022 38.6562C48.3641 38.6562 47.1261 38.6563 45.888 38.8625C45.0626 38.8625 44.0309 39.0687 43.2056 39.0687V25.6625C43.2056 22.3625 40.5231 19.6812 37.2216 19.6812C33.5074 19.6812 30.6186 23.1875 31.444 26.9L34.1265 41.75C25.4601 45.05 19.6825 50.825 19.6825 57.425V62.1687C19.6825 72.275 33.0947 80.525 49.6022 80.525C66.1096 80.525 79.5219 72.275 79.5219 62.1687V57.425C79.7283 50.6188 73.9506 44.8437 65.0779 41.5437Z" fill="#633001"/>
<path d="M41.3483 55.9812C41.3483 58.6625 39.9039 60.9312 38.0468 60.9312C36.1898 60.9312 34.7454 58.6625 34.7454 55.9812C34.7454 53.3 36.1898 51.0312 38.0468 51.0312C39.9039 51.0312 41.3483 53.3 41.3483 55.9812Z" fill="#633001"/>
<path d="M64.2528 55.9812C64.2528 58.6625 62.8084 60.9312 60.9513 60.9312C59.0942 60.9312 57.6498 58.6625 57.6498 55.9812C57.6498 53.3 59.0942 51.0312 60.9513 51.0312C62.8084 51.0312 64.2528 53.3 64.2528 55.9812Z" fill="#633001"/>
</svg>
