<svg width="32" height="32" viewBox="0 0 32 32" fill="none" xmlns="http://www.w3.org/2000/svg">
<path d="M28 28.5C28.2761 28.5 28.5 28.2761 28.5 28C28.5 27.7239 28.2761 27.5 28 27.5V28.5ZM4.5 4C4.5 3.72386 4.27614 3.5 4 3.5C3.72386 3.5 3.5 3.72386 3.5 4H4.5ZM6.18404 27.564L5.95704 28.0095H5.95704L6.18404 27.564ZM4.43597 25.816L4.88148 25.589H4.88148L4.43597 25.816ZM20.5 13.3333C20.5 13.0572 20.2761 12.8333 20 12.8333C19.7239 12.8333 19.5 13.0572 19.5 13.3333H20.5ZM19.5 22.6667C19.5 22.9428 19.7239 23.1667 20 23.1667C20.2761 23.1667 20.5 22.9428 20.5 22.6667H19.5ZM9.83333 17.3333C9.83333 17.0572 9.60948 16.8333 9.33333 16.8333C9.05719 16.8333 8.83333 17.0572 8.83333 17.3333H9.83333ZM8.83333 22.6667C8.83333 22.9428 9.05719 23.1667 9.33333 23.1667C9.60948 23.1667 9.83333 22.9428 9.83333 22.6667H8.83333ZM25.8333 6.66667C25.8333 6.39052 25.6095 6.16667 25.3333 6.16667C25.0572 6.16667 24.8333 6.39052 24.8333 6.66667H25.8333ZM24.8333 22.6667C24.8333 22.9428 25.0572 23.1667 25.3333 23.1667C25.6095 23.1667 25.8333 22.9428 25.8333 22.6667H24.8333ZM15.1667 9.33333C15.1667 9.05719 14.9428 8.83333 14.6667 8.83333C14.3905 8.83333 14.1667 9.05719 14.1667 9.33333H15.1667ZM14.1667 22.6667C14.1667 22.9428 14.3905 23.1667 14.6667 23.1667C14.9428 23.1667 15.1667 22.9428 15.1667 22.6667H14.1667ZM28 27.5H10.4V28.5H28V27.5ZM4.5 21.6V4H3.5V21.6H4.5ZM10.4 27.5C9.27164 27.5 8.45545 27.4996 7.81352 27.4472C7.17744 27.3952 6.75662 27.2946 6.41103 27.1185L5.95704 28.0095C6.4671 28.2694 7.03416 28.3868 7.73209 28.4438C8.42418 28.5004 9.28815 28.5 10.4 28.5V27.5ZM3.5 21.6C3.5 22.7119 3.49961 23.5758 3.55616 24.2679C3.61318 24.9658 3.73058 25.5329 3.99047 26.043L4.88148 25.589C4.70539 25.2434 4.60481 24.8226 4.55284 24.1865C4.50039 23.5446 4.5 22.7284 4.5 21.6H3.5ZM6.41103 27.1185C5.75247 26.783 5.21703 26.2475 4.88148 25.589L3.99047 26.043C4.4219 26.8897 5.11031 27.5781 5.95704 28.0095L6.41103 27.1185ZM19.5 13.3333V22.6667H20.5V13.3333H19.5ZM8.83333 17.3333V22.6667H9.83333V17.3333H8.83333ZM24.8333 6.66667V22.6667H25.8333V6.66667H24.8333ZM14.1667 9.33333V22.6667H15.1667V9.33333H14.1667Z" fill="#F7F7FC"/>
</svg>
