<svg width="16" height="16" viewBox="0 0 16 16" fill="none" xmlns="http://www.w3.org/2000/svg">
<path d="M2.49951 2C2.49951 1.72386 2.27565 1.5 1.99951 1.5C1.72337 1.5 1.49951 1.72386 1.49951 2H2.49951ZM13.9995 14.5C14.2757 14.5 14.4995 14.2761 14.4995 14C14.4995 13.7239 14.2757 13.5 13.9995 13.5V14.5ZM2.2175 12.908L1.772 13.135H1.772L2.2175 12.908ZM3.09153 13.782L3.31853 13.3365L3.31853 13.3365L3.09153 13.782ZM13.3334 10.5C13.6095 10.5 13.8334 10.2762 13.8334 10C13.8334 9.72387 13.6095 9.50002 13.3334 9.50002V10.5ZM10.6667 9.50002C10.3905 9.50002 10.1667 9.72387 10.1667 10C10.1667 10.2762 10.3905 10.5 10.6667 10.5V9.50002ZM8.66668 5.16668C8.94283 5.16668 9.16668 4.94282 9.16668 4.66668C9.16668 4.39054 8.94283 4.16668 8.66668 4.16668V5.16668ZM4.66668 4.16668C4.39054 4.16668 4.16668 4.39054 4.16668 4.66668C4.16668 4.94282 4.39054 5.16668 4.66668 5.16668V4.16668ZM12 7.83335C12.2762 7.83335 12.5 7.60949 12.5 7.33335C12.5 7.05721 12.2762 6.83335 12 6.83335V7.83335ZM6.00002 6.83335C5.72387 6.83335 5.50002 7.05721 5.50002 7.33335C5.50002 7.60949 5.72387 7.83335 6.00002 7.83335V6.83335ZM1.49951 2V10.8H2.49951V2H1.49951ZM5.19951 14.5H13.9995V13.5H5.19951V14.5ZM1.49951 10.8C1.49951 11.3518 1.49912 11.7957 1.52842 12.1543C1.5582 12.5187 1.6211 12.8388 1.772 13.135L2.663 12.681C2.59591 12.5493 2.54982 12.3755 2.5251 12.0729C2.4999 11.7645 2.49951 11.3683 2.49951 10.8H1.49951ZM5.19951 13.5C4.63121 13.5 4.23505 13.4996 3.92663 13.4744C3.62405 13.4497 3.4502 13.4036 3.31853 13.3365L2.86454 14.2275C3.16068 14.3784 3.48077 14.4413 3.8452 14.4711C4.20379 14.5004 4.64771 14.5 5.19951 14.5V13.5ZM1.772 13.135C2.01168 13.6054 2.39413 13.9878 2.86454 14.2275L3.31853 13.3365C3.03628 13.1927 2.80681 12.9632 2.663 12.681L1.772 13.135ZM13.3334 9.50002H10.6667V10.5H13.3334V9.50002ZM8.66668 4.16668H4.66668V5.16668H8.66668V4.16668ZM12 6.83335H6.00002V7.83335H12V6.83335Z" fill="#857DFA"/>
</svg>
