<svg width="32" height="32" viewBox="0 0 32 32" fill="none" xmlns="http://www.w3.org/2000/svg">
<path d="M15.0256 5.88186C15.3342 5.18936 15.4886 4.8431 15.7035 4.73647C15.8902 4.64383 16.1095 4.64383 16.2961 4.73647C16.5111 4.8431 16.6654 5.18936 16.9741 5.88186L19.4328 11.3978C19.5241 11.6025 19.5697 11.7048 19.6403 11.7832C19.7028 11.8526 19.7791 11.9081 19.8644 11.946C19.9608 11.989 20.0722 12.0007 20.2951 12.0243L26.3008 12.6581C27.0548 12.7377 27.4318 12.7775 27.5997 12.9489C27.7454 13.0979 27.8132 13.3064 27.7828 13.5126C27.7478 13.7499 27.4662 14.0037 26.903 14.5113L22.4168 18.5542C22.2503 18.7042 22.167 18.7793 22.1143 18.8706C22.0676 18.9515 22.0385 19.0412 22.0287 19.1341C22.0177 19.239 22.0409 19.3486 22.0874 19.5679L23.3405 25.4755C23.4978 26.2172 23.5764 26.5881 23.4652 26.8007C23.3686 26.9853 23.1913 27.1142 22.9858 27.149C22.7492 27.1891 22.4208 26.9996 21.7641 26.6208L16.5328 23.6036C16.3386 23.4916 16.2415 23.4356 16.1383 23.4137C16.047 23.3943 15.9526 23.3943 15.8613 23.4137C15.7581 23.4356 15.6611 23.4916 15.4669 23.6036L10.2356 26.6208C9.57881 26.9996 9.25042 27.1891 9.01387 27.149C8.80839 27.1142 8.631 26.9853 8.53442 26.8007C8.42323 26.5881 8.50188 26.2172 8.6592 25.4755L9.91222 19.5679C9.95873 19.3486 9.98198 19.239 9.97093 19.1341C9.96116 19.0412 9.932 18.9515 9.88534 18.8706C9.8326 18.7793 9.74935 18.7042 9.58285 18.5542L5.0967 14.5113C4.53347 14.0037 4.25186 13.7499 4.21686 13.5126C4.18645 13.3064 4.25421 13.0979 4.39999 12.9489C4.56782 12.7775 4.94482 12.7377 5.69882 12.6581L11.7045 12.0243C11.9274 12.0007 12.0389 11.989 12.1353 11.946C12.2205 11.9081 12.2969 11.8526 12.3594 11.7832C12.43 11.7048 12.4756 11.6025 12.5668 11.3978L15.0256 5.88186Z" stroke="#D6D8E7" stroke-width="2" stroke-linecap="round" stroke-linejoin="round"/>
</svg>
