<svg width="28" height="27" viewBox="0 0 28 27" fill="none" xmlns="http://www.w3.org/2000/svg">
<g filter="url(#filter0_d_1_4468)">
<mask id="mask0_1_4468" style="mask-type:alpha" maskUnits="userSpaceOnUse" x="2" y="0" width="24" height="24">
<rect x="2" width="24" height="24" fill="#D9D9D9"/>
</mask>
<g mask="url(#mask0_1_4468)">
<path d="M7 16V20M8 4V8M9 18H5M10 6H6M15 4L16.7528 8.44437C16.9407 8.92083 17.0347 9.15906 17.1786 9.35994C17.3061 9.538 17.462 9.69391 17.6401 9.82143C17.8409 9.9653 18.0792 10.0593 18.5556 10.2472L23 12L18.5556 13.7528C18.0792 13.9407 17.8409 14.0347 17.6401 14.1786C17.462 14.3061 17.3061 14.462 17.1786 14.6401C17.0347 14.8409 16.9407 15.0792 16.7528 15.5556L15 20L13.2472 15.5556C13.0593 15.0792 12.9653 14.8409 12.8214 14.6401C12.6939 14.462 12.538 14.3061 12.3599 14.1786C12.1591 14.0347 11.9208 13.9407 11.4444 13.7528L7 12L11.4444 10.2472C11.9208 10.0593 12.1591 9.9653 12.3599 9.82143C12.538 9.69391 12.6939 9.538 12.8214 9.35994C12.9653 9.15906 13.0593 8.92083 13.2472 8.44437L15 4Z" stroke="#F09C3A" stroke-width="2" stroke-linecap="round" stroke-linejoin="round"/>
</g>
</g>
<defs>
<filter id="filter0_d_1_4468" x="0" y="1" width="28" height="26" filterUnits="userSpaceOnUse" color-interpolation-filters="sRGB">
<feFlood flood-opacity="0" result="BackgroundImageFix"/>
<feColorMatrix in="SourceAlpha" type="matrix" values="0 0 0 0 0 0 0 0 0 0 0 0 0 0 0 0 0 0 127 0" result="hardAlpha"/>
<feOffset dy="2"/>
<feGaussianBlur stdDeviation="2"/>
<feComposite in2="hardAlpha" operator="out"/>
<feColorMatrix type="matrix" values="0 0 0 0 0.941176 0 0 0 0 0.611765 0 0 0 0 0.227451 0 0 0 0.4 0"/>
<feBlend mode="normal" in2="BackgroundImageFix" result="effect1_dropShadow_1_4468"/>
<feBlend mode="normal" in="SourceGraphic" in2="effect1_dropShadow_1_4468" result="shape"/>
</filter>
</defs>
</svg>
