<svg width="40" height="41" viewBox="0 0 40 41" fill="none" xmlns="http://www.w3.org/2000/svg">
<rect opacity="0.2" y="0.0478516" width="40" height="40" rx="12" fill="#EB5E39"/>
<path d="M28.7639 21.0479C29.3162 21.0479 29.7639 20.6002 29.7639 20.0479C29.7639 19.4956 29.3162 19.0479 28.7639 19.0479V21.0479ZM18.0556 19.0479C17.5033 19.0479 17.0556 19.4956 17.0556 20.0479C17.0556 20.6002 17.5033 21.0479 18.0556 21.0479V19.0479ZM17.9615 20.5375L18.919 20.826L17.9615 20.5375ZM18.049 20.1942L17.056 20.0767L18.049 20.1942ZM17.9626 19.618L17.0044 19.9042L17.9626 19.618ZM18.0493 19.9615L17.056 20.0767L18.0493 19.9615ZM19.3175 25.3891L18.8703 24.4947L19.3175 25.3891ZM17.3939 26.0894L17.6262 25.1167L17.3939 26.0894ZM17.07 23.4965L16.1125 23.208L17.07 23.4965ZM16.7073 25.5112L17.6262 25.1167L16.7073 25.5112ZM27.1378 18.6168L27.585 17.7224L27.1378 18.6168ZM28.6675 19.6193L29.571 19.1908L28.6675 19.6193ZM27.1378 21.4789L27.585 22.3734L27.1378 21.4789ZM28.6675 20.4764L27.7639 20.0479L28.6675 20.4764ZM19.3068 14.7013L18.8596 15.5957L19.3068 14.7013ZM17.3879 14.0029L17.6195 14.9757L17.3879 14.0029ZM17.0582 16.5903L18.0164 16.3041L17.0582 16.5903ZM16.7013 14.5797L15.783 14.1837V14.1837L16.7013 14.5797ZM11 15.0479C10.4477 15.0479 10 15.4956 10 16.0479C10 16.6002 10.4477 17.0479 11 17.0479V15.0479ZM13.5 17.0479C14.0523 17.0479 14.5 16.6002 14.5 16.0479C14.5 15.4956 14.0523 15.0479 13.5 15.0479V17.0479ZM12 19.0479C11.4477 19.0479 11 19.4956 11 20.0479C11 20.6002 11.4477 21.0479 12 21.0479V19.0479ZM13.5 21.0479C14.0523 21.0479 14.5 20.6002 14.5 20.0479C14.5 19.4956 14.0523 19.0479 13.5 19.0479V21.0479ZM12.5 23.0479C11.9477 23.0479 11.5 23.4956 11.5 24.0479C11.5 24.6002 11.9477 25.0479 12.5 25.0479V23.0479ZM13.5 25.0479C14.0523 25.0479 14.5 24.6002 14.5 24.0479C14.5 23.4956 14.0523 23.0479 13.5 23.0479V25.0479ZM28.7639 19.0479H18.0556V21.0479H28.7639V19.0479ZM18.8596 15.5957L26.6906 19.5112L27.585 17.7224L19.754 13.8068L18.8596 15.5957ZM26.6906 20.5845L18.8703 24.4947L19.7647 26.2835L27.585 22.3734L26.6906 20.5845ZM18.0275 23.7849L18.919 20.826L17.004 20.249L16.1125 23.208L18.0275 23.7849ZM18.9208 19.3318L18.0164 16.3041L16.1 16.8765L17.0044 19.9042L18.9208 19.3318ZM18.919 20.826C18.9607 20.6878 19.0191 20.5058 19.0421 20.3117L17.056 20.0767C17.0582 20.0582 17.0609 20.0527 17.0539 20.079C17.0451 20.1122 17.0317 20.1574 17.004 20.249L18.919 20.826ZM17.0044 19.9042C17.0318 19.9959 17.0452 20.0411 17.0539 20.0743C17.0608 20.1007 17.0581 20.0951 17.056 20.0767L19.0427 19.8464C19.0202 19.6522 18.9621 19.4701 18.9208 19.3318L17.0044 19.9042ZM19.0421 20.3117C19.0604 20.1571 19.0606 20.001 19.0427 19.8464L17.056 20.0767H17.056L19.0421 20.3117ZM18.8703 24.4947C18.3294 24.7652 17.9845 24.9365 17.7302 25.0365C17.4492 25.1469 17.4823 25.0823 17.6262 25.1167L17.1616 27.062C17.6595 27.1809 18.1312 27.0278 18.4619 26.8978C18.8194 26.7573 19.2593 26.5363 19.7647 26.2835L18.8703 24.4947ZM16.1125 23.208C15.9495 23.749 15.8066 24.2202 15.7289 24.5963C15.6571 24.9444 15.5865 25.4352 15.7884 25.9056L17.6262 25.1167C17.6846 25.2527 17.6266 25.2963 17.6876 25.0006C17.7429 24.733 17.853 24.364 18.0275 23.7849L16.1125 23.208ZM17.6262 25.1167L15.7884 25.9056C16.0377 26.4864 16.5469 26.9152 17.1616 27.062L17.6262 25.1167ZM26.6906 19.5112C27.1691 19.7504 27.4653 19.8997 27.6661 20.024C27.8798 20.1564 27.8194 20.1649 27.7639 20.0479L29.571 19.1908C29.3677 18.7621 29.0031 18.4997 28.7193 18.3238C28.4225 18.1399 28.0278 17.9437 27.585 17.7224L26.6906 19.5112ZM27.585 22.3734C28.0278 22.152 28.4225 21.9558 28.7193 21.7719C29.0032 21.5961 29.3677 21.3336 29.571 20.9049L27.7639 20.0479C27.8195 19.9308 27.8798 19.9393 27.6661 20.0717C27.4653 20.196 27.1691 20.3453 26.6906 20.5845L27.585 22.3734ZM27.7639 20.0479H27.7639L29.571 20.9049C29.8282 20.3625 29.8282 19.7332 29.571 19.1908L27.7639 20.0479ZM19.754 13.8068C19.25 13.5549 18.8112 13.3343 18.4545 13.1941C18.1242 13.0643 17.6535 12.9117 17.1562 13.0301L17.6195 14.9757C17.476 15.0099 17.443 14.9455 17.7229 15.0555C17.9763 15.1551 18.3201 15.3259 18.8596 15.5957L19.754 13.8068ZM18.0164 16.3041C17.8437 15.7261 17.7348 15.3581 17.6804 15.0912C17.6203 14.7966 17.678 14.8402 17.6195 14.9757L15.783 14.1837C15.5806 14.6531 15.6498 15.143 15.7207 15.4908C15.7973 15.8663 15.9388 16.3366 16.1 16.8765L18.0164 16.3041ZM17.1562 13.0301C16.5421 13.1763 16.033 13.604 15.783 14.1837L17.6195 14.9757L17.1562 13.0301ZM11 17.0479H13.5V15.0479H11V17.0479ZM12 21.0479H13.5V19.0479H12V21.0479ZM12.5 25.0479H13.5V23.0479H12.5V25.0479Z" fill="#F7F7FC"/>
</svg>
