<svg width="24" height="24" viewBox="0 0 24 24" fill="none" xmlns="http://www.w3.org/2000/svg">
<path d="M20.7639 12.5C21.0401 12.5 21.2639 12.2762 21.2639 12C21.2639 11.7239 21.0401 11.5 20.7639 11.5V12.5ZM10.0556 11.5C9.77941 11.5 9.55555 11.7239 9.55555 12C9.55555 12.2762 9.77941 12.5 10.0556 12.5V11.5ZM9.96153 12.4896L10.4403 12.6339L9.96153 12.4896ZM10.049 12.1463L9.55251 12.0876L10.049 12.1463ZM9.96261 11.5701L9.48353 11.7132L9.96261 11.5701ZM10.0493 11.9137L9.55264 11.9712L10.0493 11.9137ZM11.3175 17.3413L11.0939 16.894L11.3175 17.3413ZM9.39391 18.0415L9.51008 17.5552L9.39391 18.0415ZM9.07002 15.4486L8.59128 15.3044L9.07002 15.4486ZM8.70734 17.4633L9.16679 17.2661L8.70734 17.4633ZM19.1378 10.5689L19.3614 10.1217L19.1378 10.5689ZM20.6675 11.5715L21.1192 11.3572L20.6675 11.5715ZM19.1378 13.4311L19.3614 13.8783L19.1378 13.4311ZM20.6675 12.4285L20.2157 12.2143L20.6675 12.4285ZM11.3068 6.65342L11.0832 7.10063L11.3068 6.65342ZM9.38789 5.95502L9.50371 6.44142L9.38789 5.95502ZM9.05819 8.54246L9.53727 8.39935L9.05819 8.54246ZM8.70128 6.53184L8.24215 6.33385L8.70128 6.53184ZM3 7.50003C2.72386 7.50003 2.5 7.72388 2.5 8.00003C2.5 8.27617 2.72386 8.50003 3 8.50003V7.50003ZM5.5 8.50003C5.77614 8.50003 6 8.27617 6 8.00003C6 7.72388 5.77614 7.50003 5.5 7.50003V8.50003ZM4 11.5C3.72386 11.5 3.5 11.7239 3.5 12C3.5 12.2762 3.72386 12.5 4 12.5V11.5ZM5.5 12.5C5.77614 12.5 6 12.2762 6 12C6 11.7239 5.77614 11.5 5.5 11.5V12.5ZM4.5 15.5C4.22386 15.5 4 15.7239 4 16C4 16.2762 4.22386 16.5 4.5 16.5V15.5ZM5.5 16.5C5.77614 16.5 6 16.2762 6 16C6 15.7239 5.77614 15.5 5.5 15.5V16.5ZM20.7639 11.5H10.0556V12.5H20.7639V11.5ZM11.0832 7.10063L18.9142 11.0161L19.3614 10.1217L11.5304 6.20621L11.0832 7.10063ZM18.9142 12.9839L11.0939 16.894L11.5411 17.7885L19.3614 13.8783L18.9142 12.9839ZM9.54876 15.5928L10.4403 12.6339L9.48278 12.3454L8.59128 15.3044L9.54876 15.5928ZM10.4417 11.427L9.53727 8.39935L8.57911 8.68557L9.48353 11.7132L10.4417 11.427ZM10.4403 12.6339C10.4868 12.4794 10.5289 12.3456 10.5456 12.2051L9.55251 12.0876C9.54854 12.1211 9.53918 12.1582 9.48278 12.3454L10.4403 12.6339ZM9.48353 11.7132C9.53948 11.9005 9.54876 11.9377 9.55264 11.9712L10.546 11.8561C10.5297 11.7155 10.4879 11.5817 10.4417 11.427L9.48353 11.7132ZM10.5456 12.2051C10.5593 12.0891 10.5594 11.972 10.546 11.8561L9.55264 11.9712C9.55712 12.0099 9.55708 12.0489 9.55251 12.0876L10.5456 12.2051ZM11.0939 16.894C10.5618 17.1601 10.1932 17.3439 9.91315 17.454C9.61973 17.5693 9.52662 17.5591 9.51008 17.5552L9.27774 18.5278C9.61522 18.6084 9.96071 18.5098 10.279 18.3846C10.6106 18.2543 11.0268 18.0456 11.5411 17.7885L11.0939 16.894ZM8.59128 15.3044C8.42539 15.8549 8.29063 16.3005 8.2186 16.6495C8.14946 16.9845 8.11101 17.3417 8.24788 17.6606L9.16679 17.2661C9.16009 17.2505 9.13422 17.1604 9.19795 16.8517C9.25878 16.557 9.37714 16.1624 9.54876 15.5928L8.59128 15.3044ZM9.51008 17.5552C9.3564 17.5185 9.22912 17.4113 9.16679 17.2661L8.24788 17.6606C8.43486 18.0961 8.81671 18.4177 9.27774 18.5278L9.51008 17.5552ZM18.9142 11.0161C19.3837 11.2509 19.7046 11.4119 19.9294 11.5511C20.1606 11.6944 20.2065 11.7664 20.2157 11.7857L21.1192 11.3572C20.9806 11.065 20.7223 10.866 20.456 10.701C20.1832 10.532 19.8131 10.3476 19.3614 10.1217L18.9142 11.0161ZM19.3614 13.8783C19.8131 13.6525 20.1832 13.468 20.456 13.299C20.7223 13.134 20.9806 12.9351 21.1192 12.6428L20.2157 12.2143C20.2065 12.2337 20.1606 12.3057 19.9294 12.4489C19.7046 12.5881 19.3837 12.7491 18.9142 12.9839L19.3614 13.8783ZM20.2157 11.7857C20.28 11.9214 20.28 12.0787 20.2157 12.2143L21.1192 12.6428C21.3122 12.236 21.3122 11.764 21.1192 11.3572L20.2157 11.7857ZM11.5304 6.20621C11.0175 5.94978 10.6025 5.74169 10.2716 5.61164C9.95387 5.48678 9.6091 5.38837 9.27206 5.46862L9.50371 6.44142C9.52035 6.43746 9.61329 6.42738 9.90576 6.54233C10.185 6.6521 10.5526 6.83532 11.0832 7.10063L11.5304 6.20621ZM9.53727 8.39935C9.36747 7.83091 9.25039 7.43728 9.19045 7.14327C9.12767 6.83535 9.15363 6.74555 9.1604 6.72983L8.24215 6.33385C8.10496 6.65199 8.14241 7.00857 8.2106 7.34304C8.28163 7.69141 8.41499 8.13616 8.57911 8.68557L9.53727 8.39935ZM9.27206 5.46862C8.81144 5.57831 8.42965 5.89905 8.24215 6.33385L9.1604 6.72983C9.2229 6.5849 9.35017 6.47799 9.50371 6.44142L9.27206 5.46862ZM3 8.50003H5.5V7.50003H3V8.50003ZM4 12.5H5.5V11.5H4V12.5ZM4.5 16.5H5.5V15.5H4.5V16.5Z" fill="#F7F7FC"/>
</svg>
