<svg width="32" height="32" viewBox="0 0 32 32" fill="none" xmlns="http://www.w3.org/2000/svg">
<path d="M6.66667 22.333H14.6667V20.333H6.66667V22.333ZM14.6667 25.6663H6.66667V27.6663H14.6667V25.6663ZM6.66667 25.6663C5.74619 25.6663 5 24.9201 5 23.9997H3C3 26.0247 4.64162 27.6663 6.66667 27.6663V25.6663ZM16.3333 23.9997C16.3333 24.9201 15.5871 25.6663 14.6667 25.6663V27.6663C16.6917 27.6663 18.3333 26.0247 18.3333 23.9997H16.3333ZM14.6667 22.333C15.5871 22.333 16.3333 23.0792 16.3333 23.9997H18.3333C18.3333 21.9746 16.6917 20.333 14.6667 20.333V22.333ZM6.66667 20.333C4.64162 20.333 3 21.9746 3 23.9997H5C5 23.0792 5.74619 22.333 6.66667 22.333V20.333ZM14.6667 22.333H25.3333V20.333H14.6667V22.333ZM25.3333 25.6663H14.6667V27.6663H25.3333V25.6663ZM27 23.9997C27 24.9201 26.2538 25.6663 25.3333 25.6663V27.6663C27.3584 27.6663 29 26.0247 29 23.9997H27ZM29 23.9997C29 21.9746 27.3584 20.333 25.3333 20.333V22.333C26.2538 22.333 27 23.0792 27 23.9997H29ZM14.6667 16.9997H25.3333V14.9997H14.6667V16.9997ZM27 18.6663C27 19.5868 26.2538 20.333 25.3333 20.333V22.333C27.3584 22.333 29 20.6914 29 18.6663H27ZM29 18.6663C29 16.6413 27.3584 14.9997 25.3333 14.9997V16.9997C26.2538 16.9997 27 17.7459 27 18.6663H29ZM14.6667 11.6663H25.3333V9.66634H14.6667V11.6663ZM27 13.333C27 14.2535 26.2538 14.9997 25.3333 14.9997V16.9997C27.3584 16.9997 29 15.3581 29 13.333H27ZM29 13.333C29 11.308 27.3584 9.66634 25.3333 9.66634V11.6663C26.2538 11.6663 27 12.4125 27 13.333H29ZM6.66667 16.9997H14.6667V14.9997H6.66667V16.9997ZM6.66667 20.333C5.74619 20.333 5 19.5868 5 18.6663H3C3 20.6914 4.64162 22.333 6.66667 22.333V20.333ZM16.3333 18.6663C16.3333 19.5868 15.5871 20.333 14.6667 20.333V22.333C16.6917 22.333 18.3333 20.6914 18.3333 18.6663H16.3333ZM14.6667 16.9997C15.5871 16.9997 16.3333 17.7459 16.3333 18.6663H18.3333C18.3333 16.6413 16.6917 14.9997 14.6667 14.9997V16.9997ZM6.66667 14.9997C4.64162 14.9997 3 16.6413 3 18.6663H5C5 17.7459 5.74619 16.9997 6.66667 16.9997V14.9997ZM6.66667 11.6663H14.6667V9.66634H6.66667V11.6663ZM6.66667 14.9997C5.74619 14.9997 5 14.2535 5 13.333H3C3 15.3581 4.64162 16.9997 6.66667 16.9997V14.9997ZM16.3333 13.333C16.3333 14.2535 15.5871 14.9997 14.6667 14.9997V16.9997C16.6917 16.9997 18.3333 15.3581 18.3333 13.333H16.3333ZM14.6667 11.6663C15.5871 11.6663 16.3333 12.4125 16.3333 13.333H18.3333C18.3333 11.308 16.6917 9.66634 14.6667 9.66634V11.6663ZM6.66667 9.66634C4.64162 9.66634 3 11.308 3 13.333H5C5 12.4125 5.74619 11.6663 6.66667 11.6663V9.66634ZM6.66667 6.33301H14.6667V4.33301H6.66667V6.33301ZM6.66667 9.66634C5.74619 9.66634 5 8.92015 5 7.99967H3C3 10.0247 4.64162 11.6663 6.66667 11.6663V9.66634ZM16.3333 7.99967C16.3333 8.92015 15.5871 9.66634 14.6667 9.66634V11.6663C16.6917 11.6663 18.3333 10.0247 18.3333 7.99967H16.3333ZM14.6667 6.33301C15.5871 6.33301 16.3333 7.0792 16.3333 7.99967H18.3333C18.3333 5.97463 16.6917 4.33301 14.6667 4.33301V6.33301ZM6.66667 4.33301C4.64162 4.33301 3 5.97463 3 7.99967H5C5 7.0792 5.74619 6.33301 6.66667 6.33301V4.33301Z" fill="#D6D8E7"/>
</svg>
