<svg width="41" height="41" viewBox="0 0 41 41" fill="none" xmlns="http://www.w3.org/2000/svg">
<path d="M10.6753 3.76172C13.3619 3.80889 15.2508 4.76171 16.7291 6.32774C18.0665 7.7617 18.8643 9.4032 19.4861 11.1013C20.3308 13.3937 20.7766 15.7522 21.2576 18.1107C22.0554 21.9692 23.0879 25.7805 25.0354 29.3937C25.6924 30.6201 26.4902 31.7804 27.6517 32.7616C28.1092 33.1484 28.6254 33.4785 29.2355 33.6955C30.3383 34.0823 31.3238 33.9408 32.1802 33.2616C33.2361 32.4314 33.8931 31.3842 34.4445 30.3088C35.6764 27.9314 36.3686 25.422 36.92 22.8937C37.1312 21.8937 37.3072 20.8937 37.4597 19.8937C37.5653 19.205 38.2927 18.7711 39.1491 18.8654C39.9117 18.9503 40.4279 19.5541 40.3341 20.2145C39.8882 23.2805 39.1961 26.3088 38.0228 29.2522C37.3189 31.0163 36.4625 32.7333 35.0194 34.205C34.1278 35.1106 33.0719 35.8559 31.6406 36.12C29.5523 36.5068 27.7807 35.9502 26.2086 34.8748C24.6834 33.837 23.651 32.488 22.7946 31.0635C20.9761 28.054 19.9671 24.8465 19.0872 21.6013C18.4771 19.3465 18.1604 17.0541 17.5972 14.7994C17.1397 12.9409 16.5765 11.1013 15.5793 9.3749C15.0044 8.38434 14.324 7.45981 13.2094 6.78057C11.6373 5.81831 9.80711 5.90322 8.38752 7.00699C7.17911 7.95038 6.42826 9.13905 5.78299 10.3655C4.57458 12.6862 3.88239 15.1202 3.34271 17.5918C3.16673 18.4126 3.03768 19.2428 2.89689 20.073C2.77957 20.7899 2.08738 21.2428 1.2192 21.1579C0.444881 21.0824 -0.0830644 20.4786 0.0107925 19.7899C0.421416 16.9881 1.09015 14.2334 2.15777 11.5541C2.93209 9.59188 3.89412 7.69566 5.51315 6.07303C6.6277 4.96926 7.96516 4.11077 9.76018 3.85606C10.1239 3.79945 10.4876 3.78059 10.6753 3.76172Z" fill="url(#paint0_linear_869_5381)"/>
<path d="M10.6753 0C13.3619 0.058093 15.2508 1.23157 16.7291 3.16026C18.0665 4.92629 18.8643 6.94793 19.4861 9.03928C20.3308 11.8626 20.7766 14.7673 21.2577 17.6719C22.0554 22.4239 23.0879 27.1178 25.0354 31.5678C25.6924 33.0782 26.4902 34.5073 27.6517 35.7156C28.1092 36.192 28.6254 36.5986 29.2355 36.8658C30.3383 37.3422 31.3238 37.1679 32.1803 36.3314C33.2361 35.309 33.8931 34.0193 34.4445 32.6948C35.6764 29.7669 36.3686 26.6763 36.92 23.5625C37.1312 22.331 37.3072 21.0994 37.4597 19.8678C37.5653 19.0197 38.2927 18.4852 39.1491 18.6014C39.9117 18.706 40.4279 19.4496 40.3341 20.2629C39.8882 24.0389 39.1961 27.7685 38.0228 31.3935C37.3189 33.5662 36.4625 35.6808 35.0194 37.4933C34.1278 38.6086 33.0719 39.5265 31.6406 39.8518C29.5523 40.3282 27.7807 39.6427 26.2086 38.3182C24.6834 37.0401 23.651 35.3787 22.7946 33.6243C20.9761 29.9179 19.9671 25.9676 19.0872 21.9708C18.4771 19.1939 18.1604 16.3706 17.5972 13.5938C17.1397 11.3049 16.5765 9.03928 15.5793 6.91307C15.0044 5.69312 14.324 4.55449 13.2094 3.71796C11.6373 2.53286 9.80711 2.63742 8.38752 3.9968C7.17911 5.15866 6.42826 6.62261 5.78299 8.13303C4.57459 10.9912 3.88239 13.9888 3.34271 17.0329C3.16673 18.0437 3.03768 19.0661 2.89689 20.0886C2.77957 20.9716 2.08738 21.5293 1.2192 21.4247C0.444881 21.3318 -0.0830644 20.5882 0.0107925 19.74C0.421416 16.2893 1.09015 12.8967 2.15777 9.59697C2.93209 7.1803 3.89412 4.84496 5.51315 2.84656C6.62771 1.48718 7.96517 0.429889 9.76018 0.116186C10.1239 0.0464744 10.4876 0.0232372 10.6753 0Z" fill="url(#paint1_linear_869_5381)"/>
<path d="M10.6753 7.35059C13.3619 7.38733 15.2508 8.12953 16.7291 9.34938C18.0665 10.4664 18.8643 11.745 19.4861 13.0677C20.3308 14.8534 20.7766 16.6906 21.2577 18.5277C22.0554 21.5332 23.0879 24.502 25.0354 27.3165C25.6924 28.2718 26.4902 29.1757 27.6517 29.9399C28.1092 30.2412 28.6254 30.4984 29.2355 30.6674C30.3383 30.9687 31.3238 30.8585 32.1803 30.3294C33.2361 29.6827 33.8931 28.8671 34.4445 28.0293C35.6764 26.1775 36.3686 24.2228 36.92 22.2534C37.1312 21.4744 37.3072 20.6955 37.4597 19.9166C37.5653 19.3801 38.2927 19.0421 39.1491 19.1156C39.9117 19.1817 40.4279 19.652 40.3341 20.1664C39.8882 22.5547 39.1961 24.9136 38.0229 27.2063C37.3189 28.5805 36.4625 29.9179 35.0194 31.0643C34.1278 31.7697 33.0719 32.3503 31.6406 32.556C29.5523 32.8573 27.7807 32.4237 26.2086 31.586C24.6834 30.7777 23.651 29.7268 22.7946 28.6172C20.9761 26.273 19.9671 23.7745 19.0872 21.2466C18.4771 19.4903 18.1604 17.7047 17.5972 15.9484C17.1397 14.5007 16.5765 13.0677 15.5793 11.723C15.0044 10.9514 14.324 10.2312 13.2094 9.70211C11.6373 8.95256 9.80711 9.0187 8.38752 9.87848C7.17912 10.6133 6.42826 11.5392 5.78299 12.4946C4.57459 14.3023 3.88239 16.1982 3.34271 18.1235C3.16673 18.7628 3.03768 19.4095 2.89689 20.0562C2.77957 20.6147 2.08738 20.9674 1.2192 20.9013C0.444882 20.8425 -0.0830645 20.3722 0.0107925 19.8357C0.421416 17.6532 1.09015 15.5074 2.15777 13.4205C2.93209 11.892 3.89412 10.4149 5.51315 9.15097C6.62771 8.2912 7.96517 7.62248 9.76018 7.42407C10.1239 7.37998 10.4876 7.36528 10.6753 7.35059Z" fill="url(#paint2_linear_869_5381)"/>
<defs>
<linearGradient id="paint0_linear_869_5381" x1="20.1744" y1="-0.207451" x2="20.1744" y2="37.4938" gradientUnits="userSpaceOnUse">
<stop offset="0.0874372" stop-color="#58F0EC" stop-opacity="0"/>
<stop offset="0.536458" stop-color="#50D9D6"/>
<stop offset="1" stop-color="#58F0EC" stop-opacity="0"/>
</linearGradient>
<linearGradient id="paint1_linear_869_5381" x1="20.1744" y1="-4.88835" x2="20.1744" y2="41.5437" gradientUnits="userSpaceOnUse">
<stop offset="0.0874372" stop-color="#58F0EC" stop-opacity="0"/>
<stop offset="0.536458" stop-color="#50D9D6"/>
<stop offset="1" stop-color="#58F0EC" stop-opacity="0"/>
</linearGradient>
<linearGradient id="paint2_linear_869_5381" x1="20.1725" y1="7.35059" x2="20.1725" y2="32.6517" gradientUnits="userSpaceOnUse">
<stop stop-color="#58F0EC"/>
<stop offset="0.479167" stop-color="#4ED5D2"/>
<stop offset="1" stop-color="#58F0EC"/>
</linearGradient>
</defs>
</svg>
