<svg width="172" height="41" viewBox="0 0 172 41" fill="none" xmlns="http://www.w3.org/2000/svg">
<path d="M60.3076 25.0127C60.3076 24.909 60.3422 24.8227 60.4112 24.7536C60.4918 24.673 60.5782 24.6327 60.6703 24.6327H69.374C69.6618 24.6327 69.9093 24.5349 70.1166 24.3392C70.3238 24.1319 70.4274 23.8844 70.4274 23.5966V19.3311C70.4274 19.0433 70.3238 18.7957 70.1166 18.5885C69.9093 18.3813 69.6618 18.2776 69.374 18.2776H60.6703C60.5782 18.2776 60.4918 18.2431 60.4112 18.174C60.3422 18.105 60.3076 18.0186 60.3076 17.915V16.6543C60.3076 16.5507 60.3422 16.4644 60.4112 16.3953C60.4918 16.3147 60.5782 16.2744 60.6703 16.2744H69.7884C70.5137 16.2744 71.1354 16.5335 71.6535 17.0515C72.1716 17.5696 72.4306 18.1913 72.4306 18.9166V23.9938C72.4306 24.7191 72.1716 25.3408 71.6535 25.8588C71.1354 26.3769 70.5137 26.636 69.7884 26.636H60.6703C60.5782 26.636 60.4918 26.6014 60.4112 26.5323C60.3422 26.4518 60.3076 26.3654 60.3076 26.2733V25.0127Z" fill="#50D9D6"/>
<path d="M75.4193 18.8475C75.2121 18.4906 74.9415 18.2949 74.6076 18.2604H74.0032C73.9111 18.2604 73.8248 18.2258 73.7442 18.1568C73.6751 18.0877 73.6406 18.0013 73.6406 17.8977V16.6371C73.6406 16.545 73.6693 16.4644 73.7269 16.3953C73.796 16.3262 73.8766 16.2917 73.9687 16.2917L75.0912 16.2744C75.8625 16.2859 76.4382 16.6198 76.8181 17.276L77.7334 18.8475L78.2514 19.7455L78.3896 20.0046C78.5738 20.3269 78.8559 20.4881 79.2358 20.4881H80.8073C81.1872 20.4881 81.4693 20.3269 81.6535 20.0046L81.7916 19.7455L82.3097 18.8475L83.225 17.276C83.6049 16.6198 84.1748 16.2859 84.9346 16.2744L86.0571 16.2917C86.1493 16.2917 86.2298 16.3262 86.2989 16.3953C86.368 16.4644 86.4025 16.545 86.4025 16.6371V17.8977C86.4025 18.0013 86.3622 18.0877 86.2816 18.1568C86.2126 18.2258 86.1262 18.2604 86.0226 18.2604H85.4355C85.1016 18.2949 84.831 18.4906 84.6238 18.8475L84.1057 19.7455L84.0885 19.7628L83.6049 20.609L83.4322 20.8853L83.1041 21.4725V21.4897C82.7127 22.146 82.137 22.4741 81.3772 22.4741H81.0145V26.2733C81.0145 26.3654 80.98 26.4518 80.9109 26.5323C80.8418 26.6014 80.7555 26.636 80.6519 26.636H79.3912C79.2876 26.636 79.2013 26.6014 79.1322 26.5323C79.0631 26.4518 79.0286 26.3654 79.0286 26.2733V22.4741H78.6659C77.8945 22.4741 77.3189 22.146 76.939 21.4897V21.4725L76.5936 20.8853L76.4382 20.609L75.9374 19.7628V19.7455L75.4193 18.8475Z" fill="#50D9D6"/>
<path d="M90.222 21.317H96.6462C96.934 21.317 97.1815 21.2192 97.3887 21.0235C97.596 20.8162 97.6996 20.5687 97.6996 20.2809V19.3311C97.6996 19.0433 97.596 18.7957 97.3887 18.5885C97.1815 18.3813 96.934 18.2776 96.6462 18.2776H87.9425C87.8504 18.2776 87.764 18.2431 87.6834 18.174C87.6143 18.105 87.5798 18.0186 87.5798 17.915V16.6543C87.5798 16.5507 87.6143 16.4644 87.6834 16.3953C87.764 16.3147 87.8504 16.2744 87.9425 16.2744H97.0606C97.7859 16.2744 98.4076 16.5335 98.9257 17.0515C99.4438 17.5696 99.7028 18.1913 99.7028 18.9166V20.6781C99.7028 21.1501 99.5819 21.5933 99.3402 22.0078C99.0984 22.4108 98.776 22.7331 98.3731 22.9749C97.9701 23.2051 97.5327 23.3203 97.0606 23.3203H90.6192C90.3314 23.3203 90.0839 23.4239 89.8766 23.6311C89.6809 23.8268 89.583 24.0686 89.583 24.3564V26.2733C89.583 26.3654 89.5427 26.4518 89.4622 26.5323C89.3931 26.6014 89.3067 26.636 89.2031 26.636H87.9425C87.8504 26.636 87.764 26.6014 87.6834 26.5323C87.6143 26.4518 87.5798 26.3654 87.5798 26.2733V23.9592C87.5798 23.2339 87.8388 22.6122 88.3569 22.0942C88.875 21.5761 89.4967 21.317 90.222 21.317Z" fill="#50D9D6"/>
<path d="M112.626 18.2776H107.929C107.837 18.2776 107.751 18.2431 107.67 18.174C107.601 18.105 107.566 18.0186 107.566 17.915V16.6543C107.566 16.5507 107.601 16.4644 107.67 16.3953C107.751 16.3147 107.837 16.2744 107.929 16.2744H119.309C119.413 16.2744 119.499 16.3147 119.569 16.3953C119.649 16.4644 119.689 16.5507 119.689 16.6543V17.915C119.689 18.0186 119.649 18.105 119.569 18.174C119.499 18.2431 119.413 18.2776 119.309 18.2776H114.63V26.2733C114.63 26.3654 114.589 26.4518 114.509 26.5323C114.44 26.6014 114.353 26.636 114.25 26.636H112.989C112.897 26.636 112.811 26.6014 112.73 26.5323C112.661 26.4518 112.626 26.3654 112.626 26.2733V18.2776Z" fill="#50D9D6"/>
<path d="M120.882 18.9166C120.882 18.1913 121.141 17.5696 121.659 17.0515C122.177 16.5335 122.799 16.2744 123.524 16.2744H131.002C131.727 16.2744 132.349 16.5335 132.867 17.0515C133.385 17.5696 133.644 18.1913 133.644 18.9166V23.9938C133.644 24.7191 133.385 25.3408 132.867 25.8588C132.349 26.3769 131.727 26.636 131.002 26.636H123.524C122.799 26.636 122.177 26.3769 121.659 25.8588C121.141 25.3408 120.882 24.7191 120.882 23.9938V18.9166ZM122.885 23.5966C122.885 23.8844 122.983 24.1319 123.179 24.3392C123.386 24.5349 123.634 24.6327 123.921 24.6327H130.605C130.789 24.6327 130.962 24.5867 131.123 24.4946C131.284 24.4025 131.411 24.2758 131.503 24.1147C131.595 23.9535 131.641 23.7808 131.641 23.5966V19.3311C131.641 19.0433 131.537 18.7957 131.33 18.5885C131.134 18.3813 130.892 18.2776 130.605 18.2776H123.921C123.634 18.2776 123.386 18.3813 123.179 18.5885C122.983 18.7957 122.885 19.0433 122.885 19.3311V23.5966Z" fill="#50D9D6"/>
<path d="M134.839 18.9166C134.839 18.1913 135.098 17.5696 135.616 17.0515C136.134 16.5335 136.755 16.2744 137.481 16.2744H144.958C145.684 16.2744 146.305 16.5335 146.823 17.0515C147.342 17.5696 147.601 18.1913 147.601 18.9166V23.9938C147.601 24.7191 147.342 25.3408 146.823 25.8588C146.305 26.3769 145.684 26.636 144.958 26.636H137.481C136.755 26.636 136.134 26.3769 135.616 25.8588C135.098 25.3408 134.839 24.7191 134.839 23.9938V18.9166ZM136.842 23.5966C136.842 23.8844 136.94 24.1319 137.135 24.3392C137.343 24.5349 137.59 24.6327 137.878 24.6327H144.561C144.745 24.6327 144.918 24.5867 145.079 24.4946C145.24 24.4025 145.367 24.2758 145.459 24.1147C145.551 23.9535 145.597 23.7808 145.597 23.5966V19.3311C145.597 19.0433 145.494 18.7957 145.286 18.5885C145.091 18.3813 144.849 18.2776 144.561 18.2776H137.878C137.59 18.2776 137.343 18.3813 137.135 18.5885C136.94 18.7957 136.842 19.0433 136.842 19.3311V23.5966Z" fill="#50D9D6"/>
<path d="M148.795 23.9938V16.6543C148.795 16.5507 148.83 16.4644 148.899 16.3953C148.979 16.3147 149.066 16.2744 149.158 16.2744H150.418C150.522 16.2744 150.608 16.3147 150.677 16.3953C150.758 16.4644 150.798 16.5507 150.798 16.6543V23.5966C150.798 23.8844 150.896 24.1319 151.092 24.3392C151.299 24.5349 151.547 24.6327 151.835 24.6327H158.587C158.656 24.6327 158.719 24.65 158.777 24.6845C158.834 24.7191 158.875 24.7651 158.898 24.8227C158.932 24.8803 158.949 24.9436 158.949 25.0127V26.2733C158.949 26.3654 158.915 26.4518 158.846 26.5323C158.777 26.6014 158.69 26.636 158.587 26.636H151.437C150.712 26.636 150.09 26.3769 149.572 25.8588C149.054 25.3408 148.795 24.7191 148.795 23.9938Z" fill="#50D9D6"/>
<path d="M160.465 25.0127C160.465 24.909 160.5 24.8227 160.569 24.7536C160.638 24.673 160.724 24.6327 160.828 24.6327H168.962C169.25 24.6327 169.491 24.5349 169.687 24.3392C169.894 24.1319 169.998 23.8844 169.998 23.5966V23.493C169.998 23.3088 169.952 23.1361 169.86 22.9749C169.768 22.8137 169.641 22.6871 169.48 22.595C169.319 22.5029 169.146 22.4568 168.962 22.4568H162.814C162.089 22.4568 161.467 22.1978 160.949 21.6797C160.431 21.1616 160.172 20.5399 160.172 19.8146V18.9166C160.172 18.1913 160.431 17.5696 160.949 17.0515C161.467 16.5335 162.089 16.2744 162.814 16.2744H171.345C171.449 16.2744 171.535 16.3147 171.604 16.3953C171.673 16.4644 171.708 16.5507 171.708 16.6543V17.915C171.708 18.0186 171.673 18.105 171.604 18.174C171.535 18.2431 171.449 18.2776 171.345 18.2776H163.211C162.923 18.2776 162.676 18.3813 162.469 18.5885C162.273 18.7957 162.175 19.0433 162.175 19.3311V19.4174C162.175 19.7052 162.273 19.9528 162.469 20.16C162.676 20.3557 162.923 20.4536 163.211 20.4536H169.359C170.084 20.4536 170.706 20.7126 171.224 21.2307C171.742 21.7488 172.001 22.3705 172.001 23.0958V23.9938C172.001 24.7191 171.742 25.3408 171.224 25.8588C170.706 26.3769 170.084 26.636 169.359 26.636H160.828C160.724 26.636 160.638 26.6014 160.569 26.5323C160.5 26.4518 160.465 26.3654 160.465 26.2733V25.0127Z" fill="#50D9D6"/>
<path d="M11.272 4.2666C13.9586 4.31377 15.8475 5.2666 17.3257 6.83263C18.6632 8.26658 19.461 9.90808 20.0828 11.6062C20.9275 13.8986 21.3733 16.2571 21.8543 18.6156C22.6521 22.4741 23.6845 26.2854 25.6321 29.8985C26.2891 31.125 27.0869 32.2853 28.2483 33.2665C28.7059 33.6532 29.2221 33.9834 29.8322 34.2004C30.935 34.5872 31.9205 34.4457 32.7769 33.7665C33.8328 32.9363 34.4898 31.8891 35.0412 30.8136C36.2731 28.4363 36.9653 25.9269 37.5167 23.3986C37.7279 22.3986 37.9039 21.3986 38.0564 20.3986C38.162 19.7099 38.8894 19.276 39.7458 19.3703C40.5084 19.4552 41.0246 20.059 40.9307 20.7193C40.4849 23.7854 39.7927 26.8137 38.6195 29.757C37.9156 31.5212 37.0592 33.2382 35.6161 34.7098C34.7245 35.6155 33.6686 36.3608 32.2373 36.6249C30.1489 37.0117 28.3774 36.4551 26.8053 35.3796C25.2801 34.3419 24.2477 32.9929 23.3912 31.5683C21.5728 28.5589 20.5638 25.3514 19.6839 22.1061C19.0738 19.8514 18.7571 17.559 18.1939 15.3043C17.7364 13.4458 17.1732 11.6062 16.176 9.87978C15.6011 8.88922 14.9206 7.9647 13.8061 7.28545C12.234 6.32319 10.4038 6.4081 8.9842 7.51187C7.77579 8.45526 7.02494 9.64393 6.37967 10.8703C5.17126 13.1911 4.47907 15.625 3.93939 18.0967C3.76341 18.9175 3.63436 19.7477 3.49357 20.5778C3.37625 21.2948 2.68406 21.7476 1.81588 21.6627C1.04156 21.5873 0.513615 20.9835 0.607472 20.2948C1.0181 17.4929 1.68683 14.7382 2.75445 12.059C3.52877 10.0968 4.4908 8.20054 6.10983 6.57791C7.22438 5.47414 8.56184 4.61566 10.3569 4.36094C10.7206 4.30434 11.0842 4.28547 11.272 4.2666Z" fill="url(#paint0_linear_128_4031)"/>
<path d="M11.272 0.504883C13.9586 0.562976 15.8475 1.73646 17.3257 3.66514C18.6632 5.43117 19.461 7.45281 20.0828 9.54416C20.9275 12.3675 21.3733 15.2721 21.8543 18.1768C22.6521 22.9288 23.6845 27.6227 25.6321 32.0726C26.2891 33.5831 27.0869 35.0122 28.2483 36.2205C28.7059 36.6969 29.2221 37.1035 29.8322 37.3707C30.935 37.8471 31.9205 37.6728 32.7769 36.8363C33.8328 35.8138 34.4898 34.5242 35.0412 33.1996C36.2731 30.2718 36.9653 27.1812 37.5167 24.0674C37.7279 22.8358 37.9039 21.6043 38.0564 20.3727C38.162 19.5245 38.8894 18.9901 39.7458 19.1063C40.5084 19.2108 41.0246 19.9544 40.9307 20.7677C40.4849 24.5438 39.7927 28.2734 38.6195 31.8984C37.9156 34.071 37.0592 36.1856 35.6161 37.9981C34.7245 39.1135 33.6686 40.0314 32.2373 40.3567C30.1489 40.8331 28.3774 40.1476 26.8053 38.8231C25.2801 37.545 24.2477 35.8835 23.3912 34.1291C21.5728 30.4228 20.5638 26.4725 19.6839 22.4757C19.0738 19.6988 18.7571 16.8755 18.1939 14.0987C17.7364 11.8098 17.1732 9.54416 16.176 7.41796C15.6011 6.198 14.9207 5.05938 13.8061 4.22284C12.234 3.03774 10.4038 3.14231 8.9842 4.50168C7.77579 5.66355 7.02494 7.12749 6.37967 8.63791C5.17127 11.4961 4.47907 14.4937 3.93939 17.5378C3.76341 18.5486 3.63436 19.571 3.49357 20.5935C3.37625 21.4765 2.68406 22.0342 1.81588 21.9296C1.04156 21.8367 0.513615 21.0931 0.607472 20.2449C1.0181 16.7942 1.68683 13.4015 2.75445 10.1019C3.52877 7.68518 4.4908 5.34984 6.10983 3.35144C7.22439 1.99207 8.56184 0.934771 10.3569 0.621069C10.7206 0.551357 11.0843 0.52812 11.272 0.504883Z" fill="url(#paint1_linear_128_4031)"/>
<path d="M11.272 7.85547C13.9586 7.89221 15.8475 8.63441 17.3257 9.85427C18.6632 10.9712 19.461 12.2499 20.0828 13.5726C20.9275 15.3583 21.3733 17.1954 21.8543 19.0326C22.6521 22.0381 23.6845 25.0069 25.6321 27.8214C26.2891 28.7767 27.0869 29.6806 28.2483 30.4448C28.7059 30.7461 29.2221 31.0033 29.8322 31.1723C30.935 31.4736 31.9205 31.3634 32.7769 30.8343C33.8328 30.1876 34.4898 29.3719 35.0412 28.5342C36.2731 26.6824 36.9653 24.7277 37.5167 22.7583C37.7279 21.9793 37.9039 21.2004 38.0564 20.4214C38.162 19.885 38.8894 19.547 39.7458 19.6205C40.5084 19.6866 41.0246 20.1569 40.9307 20.6713C40.4849 23.0596 39.7927 25.4184 38.6195 27.7112C37.9156 29.0854 37.0592 30.4228 35.6161 31.5692C34.7245 32.2746 33.6686 32.8551 32.2373 33.0609C30.1489 33.3622 28.3774 32.9286 26.8053 32.0909C25.2801 31.2826 24.2477 30.2317 23.3912 29.1221C21.5728 26.7779 20.5638 24.2794 19.6839 21.7515C19.0738 19.9952 18.7571 18.2095 18.1939 16.4532C17.7364 15.0056 17.1732 13.5726 16.176 12.2278C15.6011 11.4562 14.9207 10.7361 13.8061 10.207C12.234 9.45745 10.4038 9.52358 8.9842 10.3834C7.7758 11.1182 7.02494 12.0441 6.37967 12.9994C5.17127 14.8072 4.47907 16.7031 3.93939 18.6284C3.76341 19.2677 3.63436 19.9144 3.49357 20.5611C3.37625 21.1196 2.68406 21.4723 1.81588 21.4061C1.04156 21.3474 0.513615 20.877 0.607472 20.3406C1.0181 18.1581 1.68683 16.0123 2.75445 13.9253C3.52877 12.3969 4.4908 10.9198 6.10983 9.65586C7.22438 8.79608 8.56185 8.12736 10.3569 7.92895C10.7206 7.88486 11.0842 7.87017 11.272 7.85547Z" fill="url(#paint2_linear_128_4031)"/>
<defs>
<linearGradient id="paint0_linear_128_4031" x1="20.7711" y1="0.297432" x2="20.7711" y2="37.9987" gradientUnits="userSpaceOnUse">
<stop offset="0.0874372" stop-color="#58F0EC" stop-opacity="0"/>
<stop offset="0.536458" stop-color="#50D9D6"/>
<stop offset="1" stop-color="#58F0EC" stop-opacity="0"/>
</linearGradient>
<linearGradient id="paint1_linear_128_4031" x1="20.7711" y1="-4.38346" x2="20.7711" y2="42.0486" gradientUnits="userSpaceOnUse">
<stop offset="0.0874372" stop-color="#58F0EC" stop-opacity="0"/>
<stop offset="0.536458" stop-color="#50D9D6"/>
<stop offset="1" stop-color="#58F0EC" stop-opacity="0"/>
</linearGradient>
<linearGradient id="paint2_linear_128_4031" x1="20.7692" y1="7.85547" x2="20.7692" y2="33.1566" gradientUnits="userSpaceOnUse">
<stop stop-color="#58F0EC"/>
<stop offset="0.479167" stop-color="#4ED5D2"/>
<stop offset="1" stop-color="#58F0EC"/>
</linearGradient>
</defs>
</svg>
