<svg width="28" height="28" viewBox="0 0 28 28" fill="none" xmlns="http://www.w3.org/2000/svg">
<rect width="28" height="28" rx="6" fill="#47439E"/>
<path d="M9.3675 11.0003C9.67872 11.2751 9.875 11.6771 9.875 12.125C9.875 12.9534 9.20343 13.625 8.375 13.625C7.92714 13.625 7.52512 13.4287 7.25028 13.1175M9.3675 11.0003C9.45608 11 9.55007 11 9.65 11H18.35C18.4499 11 18.5439 11 18.6325 11.0003M9.3675 11.0003C8.71139 11.0023 8.35171 11.0194 8.06901 11.1635C7.78677 11.3073 7.5573 11.5368 7.41349 11.819C7.26945 12.1017 7.25231 12.4614 7.25028 13.1175M7.25028 13.1175C7.25 13.2061 7.25 13.3001 7.25 13.4V17.6C7.25 17.6999 7.25 17.7939 7.25028 17.8825M7.25028 17.8825C7.52512 17.5713 7.92714 17.375 8.375 17.375C9.20343 17.375 9.875 18.0466 9.875 18.875C9.875 19.3229 9.67872 19.7249 9.3675 19.9997M7.25028 17.8825C7.25231 18.5386 7.26945 18.8983 7.41349 19.181C7.5573 19.4632 7.78677 19.6927 8.06901 19.8365C8.35171 19.9806 8.71139 19.9977 9.3675 19.9997M9.3675 19.9997C9.45608 20 9.55007 20 9.65 20H18.35C18.4499 20 18.5439 20 18.6325 19.9997M20.75 17.8828C20.4751 17.5714 20.073 17.375 19.625 17.375C18.7966 17.375 18.125 18.0466 18.125 18.875C18.125 19.3229 18.3213 19.7249 18.6325 19.9997M20.75 17.8828C20.7503 17.7941 20.75 17.7 20.75 17.6V13.4C20.75 13.3001 20.75 13.2061 20.7497 13.1175M20.75 17.8828C20.748 18.5387 20.7305 18.8983 20.5865 19.181C20.4427 19.4632 20.2132 19.6927 19.931 19.8365C19.6483 19.9806 19.2886 19.9977 18.6325 19.9997M20.7497 13.1175C20.4749 13.4287 20.0729 13.625 19.625 13.625C18.7966 13.625 18.125 12.9534 18.125 12.125C18.125 11.6771 18.3213 11.2751 18.6325 11.0003M20.7497 13.1175C20.7477 12.4614 20.7306 12.1017 20.5865 11.819C20.4427 11.5368 20.2132 11.3073 19.931 11.1635C19.6483 11.0194 19.2886 11.0023 18.6325 11.0003M11 11V10.4C11 9.55992 11 9.13988 11.1635 8.81901C11.3073 8.53677 11.5368 8.3073 11.819 8.16349C12.1399 8 12.5599 8 13.4 8H14.6C15.4401 8 15.8601 8 16.181 8.16349C16.4632 8.3073 16.6927 8.53677 16.8365 8.81901C17 9.13988 17 9.55992 17 10.4V11M15.5 15.5C15.5 16.3284 14.8284 17 14 17C13.1716 17 12.5 16.3284 12.5 15.5C12.5 14.6716 13.1716 14 14 14C14.8284 14 15.5 14.6716 15.5 15.5Z" stroke="white" stroke-linecap="round" stroke-linejoin="round"/>
</svg>
