<svg width="40" height="40" viewBox="0 0 40 40" fill="none" xmlns="http://www.w3.org/2000/svg">
<path d="M23.7732 26.5628L20.9931 23.8059C19.6516 22.4756 18.9808 21.8104 18.211 21.5672C17.534 21.3533 16.8064 21.3612 16.1342 21.5897C15.3699 21.8494 14.7137 22.529 13.4012 23.8881L6.74024 30.4672M23.7732 26.5628L24.3422 25.9986C25.6854 24.6666 26.3569 24.0006 27.1275 23.7575C27.8052 23.5437 28.5335 23.5521 29.206 23.7814C29.9708 24.0422 30.6269 24.7234 31.9391 26.0859L33.3334 27.4894M23.7732 26.5628L30.4583 33.2612M30.4583 33.2612C29.8627 33.3337 29.0907 33.3337 28.0001 33.3337H12.0001C10.1332 33.3337 9.19982 33.3337 8.48678 32.9703C7.85957 32.6508 7.34964 32.1408 7.03006 31.5136C6.88002 31.2192 6.79194 30.8871 6.74024 30.4672M30.4583 33.2612C30.8823 33.2097 31.2169 33.1214 31.5134 32.9703C32.1406 32.6508 32.6505 32.1408 32.9701 31.5136C33.3334 30.8006 33.3334 29.8672 33.3334 28.0003V27.4894M6.74024 30.4672C6.66675 29.8704 6.66675 29.0962 6.66675 28.0003V12.0003C6.66675 10.1335 6.66675 9.20006 7.03006 8.48702C7.34964 7.85982 7.85957 7.34988 8.48678 7.0303C9.19982 6.66699 10.1332 6.66699 12.0001 6.66699H28.0001C29.8669 6.66699 30.8003 6.66699 31.5134 7.0303C32.1406 7.34988 32.6505 7.85982 32.9701 8.48702C33.3334 9.20006 33.3334 10.1335 33.3334 12.0003V27.4894M28.3334 15.0001C28.3334 16.8411 26.841 18.3335 25.0001 18.3335C23.1591 18.3335 21.6667 16.8411 21.6667 15.0001C21.6667 13.1592 23.1591 11.6668 25.0001 11.6668C26.841 11.6668 28.3334 13.1592 28.3334 15.0001Z" stroke="#C0C9FF" stroke-width="2" stroke-linecap="round" stroke-linejoin="round"/>
</svg>
