<svg width="27" height="26" viewBox="0 0 27 26" fill="none" xmlns="http://www.w3.org/2000/svg">
<path d="M13.75 26C20.9542 26 26.75 20.2042 26.75 13C26.75 5.79579 20.9542 0 13.75 0C6.54579 0 0.75 5.79579 0.75 13C0.75 20.2042 6.54579 26 13.75 26Z" fill="#2775CA"/>
<path d="M17.3247 15.0584C17.3247 13.1626 16.1872 12.5126 13.9122 12.2418C12.2872 12.0251 11.9622 11.5918 11.9622 10.8334C11.9622 10.075 12.5039 9.58762 13.5872 9.58762C14.5622 9.58762 15.1039 9.91262 15.3747 10.7251C15.4289 10.8876 15.5914 10.9959 15.7539 10.9959H16.6205C16.8372 10.9959 16.9997 10.8334 16.9997 10.6168V10.5626C16.783 9.37091 15.808 8.45012 14.5622 8.34183V7.04183C14.5622 6.82512 14.3997 6.66262 14.1289 6.60841H13.3164C13.0997 6.60841 12.9372 6.77091 12.883 7.04183V8.28762C11.258 8.50433 10.2289 9.58762 10.2289 10.9418C10.2289 12.7293 11.3122 13.4334 13.5872 13.7043C15.1039 13.9751 15.5914 14.3001 15.5914 15.1668C15.5914 16.0335 14.833 16.6293 13.8039 16.6293C12.3955 16.6293 11.908 16.0334 11.7455 15.2209C11.6914 15.0043 11.5289 14.8959 11.3664 14.8959H10.4455C10.2289 14.8959 10.0664 15.0584 10.0664 15.2751V15.3293C10.283 16.6834 11.1497 17.6584 12.9372 17.9293V19.2293C12.9372 19.4459 13.0997 19.6084 13.3705 19.6626H14.183C14.3997 19.6626 14.5622 19.5001 14.6164 19.2293V17.9293C16.2414 17.6584 17.3247 16.5209 17.3247 15.0584Z" fill="white"/>
<path d="M10.9876 20.7455C6.76258 19.229 4.59587 14.5165 6.16679 10.3455C6.97929 8.07054 8.76679 6.33725 10.9876 5.52475C11.2043 5.41646 11.3126 5.25396 11.3126 4.98304V4.22475C11.3126 4.00804 11.2043 3.84554 10.9876 3.79146C10.9334 3.79146 10.8251 3.79146 10.7709 3.84554C5.62508 5.47054 2.80837 10.9415 4.43337 16.0872C5.40837 19.1205 7.73758 21.4497 10.7709 22.4247C10.9876 22.533 11.2043 22.4247 11.2584 22.208C11.3126 22.154 11.3126 22.0997 11.3126 21.9915V21.233C11.3126 21.0705 11.1501 20.854 10.9876 20.7455ZM16.7293 3.84554C16.5126 3.73725 16.2959 3.84554 16.2418 4.06225C16.1876 4.11646 16.1876 4.17054 16.1876 4.27896V5.03725C16.1876 5.25396 16.3501 5.47054 16.5126 5.57896C20.7376 7.09554 22.9043 11.808 21.3334 15.979C20.5209 18.254 18.7334 19.9872 16.5126 20.7997C16.2959 20.908 16.1876 21.0705 16.1876 21.3415V22.0997C16.1876 22.3165 16.2959 22.479 16.5126 22.533C16.5668 22.533 16.6751 22.533 16.7293 22.479C21.8751 20.854 24.6918 15.383 23.0668 10.2372C22.0918 7.14975 19.7084 4.82054 16.7293 3.84554Z" fill="white"/>
</svg>
