<svg width="24" height="24" viewBox="0 0 24 24" fill="none" xmlns="http://www.w3.org/2000/svg">
<path d="M6.52713 19.4506C6.49985 19.7254 6.7005 19.9703 6.97529 19.9976C7.25008 20.0248 7.49496 19.8242 7.52224 19.5494L6.52713 19.4506ZM16.4778 19.5494C16.505 19.8242 16.7499 20.0248 17.0247 19.9976C17.2995 19.9703 17.5001 19.7254 17.4729 19.4506L16.4778 19.5494ZM20.5 12C20.5 16.6944 16.6944 20.5 12 20.5V21.5C17.2467 21.5 21.5 17.2467 21.5 12H20.5ZM12 20.5C7.30558 20.5 3.5 16.6944 3.5 12H2.5C2.5 17.2467 6.75329 21.5 12 21.5V20.5ZM3.5 12C3.5 7.30558 7.30558 3.5 12 3.5V2.5C6.75329 2.5 2.5 6.75329 2.5 12H3.5ZM12 3.5C16.6944 3.5 20.5 7.30558 20.5 12H21.5C21.5 6.75329 17.2467 2.5 12 2.5V3.5ZM13.5 10C13.5 10.8284 12.8284 11.5 12 11.5V12.5C13.3807 12.5 14.5 11.3807 14.5 10H13.5ZM12 11.5C11.1716 11.5 10.5 10.8284 10.5 10H9.5C9.5 11.3807 10.6193 12.5 12 12.5V11.5ZM10.5 10C10.5 9.17157 11.1716 8.5 12 8.5V7.5C10.6193 7.5 9.5 8.61929 9.5 10H10.5ZM12 8.5C12.8284 8.5 13.5 9.17157 13.5 10H14.5C14.5 8.61929 13.3807 7.5 12 7.5V8.5ZM7.52224 19.5494C7.74796 17.2759 9.66689 15.5 12 15.5V14.5C9.14776 14.5 6.80314 16.6707 6.52713 19.4506L7.52224 19.5494ZM12 15.5C14.3331 15.5 16.252 17.2759 16.4778 19.5494L17.4729 19.4506C17.1969 16.6707 14.8522 14.5 12 14.5V15.5Z" fill="#C0C9FF"/>
</svg>
