<svg width="24" height="24" viewBox="0 0 24 24" fill="none" xmlns="http://www.w3.org/2000/svg">
<mask id="mask0_14_956" style="mask-type:alpha" maskUnits="userSpaceOnUse" x="0" y="0" width="24" height="24">
<rect width="24" height="24" fill="#D9D9D9"/>
</mask>
<g mask="url(#mask0_14_956)">
<rect x="17.3184" y="19.2832" width="4.39762" height="13.8443" rx="2" transform="rotate(-180 17.3184 19.2832)" fill="url(#paint0_linear_14_956)"/>
<circle cx="16.5021" cy="18.6876" r="1.71206" fill="#F4F4F4"/>
<path d="M17.5823 17.6946L17.4883 17.7886C17.7126 18.0339 17.837 18.3543 17.837 18.6868C17.837 19.0192 17.7126 19.3396 17.4883 19.585L17.5823 19.679C17.8318 19.4084 17.9703 19.0538 17.9703 18.6857C17.9703 18.3176 17.8318 17.963 17.5823 17.6924V17.6946Z" fill="#5A5564"/>
<path d="M15.605 17.7027C15.8503 17.4784 16.1707 17.354 16.5032 17.354C16.8356 17.354 17.156 17.4784 17.4014 17.7027L17.4954 17.6087C17.2248 17.3592 16.8702 17.2207 16.5021 17.2207C16.134 17.2207 15.7794 17.3592 15.5088 17.6087L15.605 17.7027Z" fill="#5A5564"/>
<path d="M15.5172 19.5857C15.2931 19.3405 15.1689 19.0202 15.1689 18.688C15.1689 18.3558 15.2931 18.0356 15.5172 17.7903L15.4232 17.6963C15.1737 17.9669 15.0352 18.3215 15.0352 18.6896C15.0352 19.0577 15.1737 19.4123 15.4232 19.6829L15.5172 19.5857Z" fill="#5A5564"/>
<path d="M17.4001 19.6719C17.1548 19.8962 16.8344 20.0206 16.502 20.0206C16.1695 20.0206 15.8491 19.8962 15.6038 19.6719L15.5098 19.7659C15.7804 20.0154 16.135 20.1539 16.5031 20.1539C16.8711 20.1539 17.2257 20.0154 17.4964 19.7659L17.4001 19.6719Z" fill="#5A5564"/>
<path d="M17.0961 18.3735C17.0773 18.1773 16.9081 18.1115 16.6941 18.0914V17.8213H16.5286V18.0864C16.485 18.0864 16.4405 18.0864 16.3963 18.0864V17.8213H16.2321V18.0933H15.8965V18.2704C15.8965 18.2704 16.0187 18.2682 16.0168 18.2704C16.0389 18.268 16.061 18.2742 16.0785 18.2877C16.0961 18.3013 16.1076 18.3211 16.1108 18.3431V19.0877C16.1104 19.0954 16.1084 19.103 16.1049 19.11C16.1015 19.1169 16.0967 19.1231 16.0908 19.1281C16.085 19.1333 16.0783 19.1372 16.0709 19.1397C16.0636 19.1422 16.0559 19.1431 16.0482 19.1425C16.0504 19.1444 15.9278 19.1425 15.9278 19.1425L15.8965 19.3403H16.229V19.6167H16.3945V19.3444H16.5267V19.6155H16.6925V19.3422C16.972 19.3253 17.167 19.2563 17.1914 18.9946C17.2112 18.784 17.1121 18.69 16.9539 18.6521C17.0501 18.6048 17.1096 18.517 17.0961 18.3735ZM16.8642 18.962C16.8642 19.1676 16.512 19.1441 16.3998 19.1441V18.7793C16.512 18.7796 16.8642 18.7474 16.8642 18.962ZM16.7875 18.4481C16.7875 18.6361 16.4935 18.6132 16.4001 18.6132V18.2817C16.4935 18.2817 16.7875 18.2522 16.7875 18.4481Z" fill="#F09242"/>
<path d="M16.5018 20.3997C16.1632 20.3996 15.8322 20.2992 15.5507 20.111C15.2692 19.9229 15.0498 19.6555 14.9203 19.3427C14.7908 19.0299 14.7569 18.6856 14.823 18.3536C14.889 18.0215 15.0521 17.7165 15.2915 17.477C15.5309 17.2376 15.8359 17.0746 16.168 17.0085C16.5001 16.9424 16.8443 16.9763 17.1571 17.1058C17.47 17.2354 17.7373 17.4548 17.9255 17.7363C18.1136 18.0178 18.2141 18.3487 18.2142 18.6873C18.2142 18.9122 18.1699 19.1349 18.0839 19.3427C17.9979 19.5505 17.8717 19.7392 17.7127 19.8983C17.5537 20.0573 17.3649 20.1834 17.1571 20.2694C16.9494 20.3555 16.7267 20.3997 16.5018 20.3997ZM16.5018 17.1091C16.1898 17.1093 15.885 17.2021 15.6257 17.3755C15.3665 17.549 15.1644 17.7954 15.0452 18.0837C14.926 18.372 14.8949 18.6891 14.9558 18.995C15.0168 19.3009 15.1671 19.5819 15.3877 19.8025C15.6083 20.023 15.8894 20.1732 16.1953 20.234C16.5013 20.2949 16.8184 20.2636 17.1066 20.1443C17.3948 20.0249 17.6412 19.8228 17.8146 19.5635C17.9879 19.3042 18.0805 18.9993 18.0807 18.6873C18.0807 18.48 18.0399 18.2747 17.9606 18.0831C17.8813 17.8916 17.765 17.7175 17.6184 17.5709C17.4717 17.4244 17.2976 17.3081 17.106 17.2289C16.9145 17.1496 16.7091 17.1089 16.5018 17.1091Z" fill="#2A233A"/>
<path d="M17.1897 14.3911C18.4172 14.3911 19.4048 13.4036 19.4048 12.176C19.4048 10.9485 18.4172 9.96094 17.1897 9.96094C15.9622 9.96094 14.9746 10.9485 14.9746 12.176C14.9746 13.4036 15.9622 14.3911 17.1897 14.3911Z" fill="#2775CA"/>
<path d="M17.7993 12.5267C17.7993 12.2037 17.6054 12.0929 17.2178 12.0468C16.9409 12.0099 16.8855 11.936 16.8855 11.8068C16.8855 11.6776 16.9778 11.5945 17.1624 11.5945C17.3285 11.5945 17.4208 11.6499 17.467 11.7884C17.4762 11.8161 17.5039 11.8345 17.5316 11.8345H17.6793C17.7162 11.8345 17.7439 11.8068 17.7439 11.7699V11.7607C17.707 11.5576 17.5408 11.4007 17.3285 11.3823V11.1608C17.3285 11.1238 17.3009 11.0962 17.2547 11.0869H17.1163C17.0793 11.0869 17.0517 11.1146 17.0424 11.1608V11.373C16.7655 11.41 16.5902 11.5945 16.5902 11.8253C16.5902 12.1299 16.7748 12.2498 17.1624 12.296C17.4208 12.3421 17.5039 12.3975 17.5039 12.5452C17.5039 12.6929 17.3747 12.7944 17.1993 12.7944C16.9594 12.7944 16.8763 12.6929 16.8486 12.5544C16.8394 12.5175 16.8117 12.499 16.784 12.499H16.6271C16.5902 12.499 16.5625 12.5267 16.5625 12.5637V12.5729C16.5994 12.8036 16.7471 12.9697 17.0517 13.0159V13.2374C17.0517 13.2743 17.0793 13.302 17.1255 13.3112H17.2639C17.3009 13.3112 17.3285 13.2836 17.3378 13.2374V13.0159C17.6147 12.9697 17.7993 12.7759 17.7993 12.5267Z" fill="white"/>
<path d="M16.7186 13.4963C15.9987 13.2378 15.6295 12.4349 15.8971 11.7242C16.0356 11.3365 16.3402 11.0412 16.7186 10.9028C16.7555 10.8843 16.7739 10.8566 16.7739 10.8105V10.6813C16.7739 10.6443 16.7555 10.6166 16.7186 10.6074C16.7093 10.6074 16.6909 10.6074 16.6816 10.6166C15.8048 10.8935 15.3249 11.8257 15.6018 12.7025C15.7679 13.2194 16.1648 13.6163 16.6816 13.7824C16.7186 13.8008 16.7555 13.7824 16.7647 13.7455C16.7739 13.7362 16.7739 13.727 16.7739 13.7086V13.5793C16.7739 13.5516 16.7462 13.5147 16.7186 13.4963ZM17.6969 10.6166C17.66 10.5982 17.623 10.6166 17.6138 10.6536C17.6046 10.6628 17.6046 10.672 17.6046 10.6905V10.8197C17.6046 10.8566 17.6323 10.8935 17.66 10.912C18.3799 11.1704 18.7491 11.9734 18.4814 12.6841C18.343 13.0717 18.0384 13.3671 17.66 13.5055C17.623 13.5239 17.6046 13.5516 17.6046 13.5978V13.727C17.6046 13.7639 17.623 13.7916 17.66 13.8008C17.6692 13.8008 17.6877 13.8008 17.6969 13.7916C18.5737 13.5147 19.0536 12.5825 18.7768 11.7057C18.6106 11.1796 18.2045 10.7828 17.6969 10.6166Z" fill="white"/>
<path d="M20.4219 18.3603C21.5215 18.3603 22.4062 17.4756 22.4062 16.376C22.4062 15.2763 21.5215 14.3916 20.4219 14.3916C19.3222 14.3916 18.4375 15.2763 18.4375 16.376C18.4375 17.4756 19.3222 18.3603 20.4219 18.3603Z" fill="#50AF95"/>
<path fill-rule="evenodd" clip-rule="evenodd" d="M20.6921 16.5965C20.677 16.5977 20.599 16.6024 20.425 16.6024C20.2865 16.6024 20.1882 16.5982 20.1537 16.5965C19.6187 16.5727 19.2194 16.4786 19.2194 16.3658C19.2194 16.253 19.6187 16.159 20.1537 16.1348V16.5027C20.1887 16.5053 20.2889 16.5113 20.4273 16.5113C20.5935 16.5113 20.6767 16.5043 20.6916 16.5029V16.135C21.2255 16.1591 21.624 16.2533 21.624 16.3658C21.624 16.4783 21.2256 16.5725 20.6916 16.5964L20.6921 16.5965ZM20.6921 16.097V15.7677H21.4372V15.2656H19.4087V15.7677H20.1536V16.0969C19.5481 16.125 19.0928 16.2463 19.0928 16.3916C19.0928 16.537 19.5481 16.6581 20.1536 16.6864V17.7415H20.692V16.686C21.2961 16.6579 21.7507 16.5367 21.7507 16.3915C21.7507 16.2463 21.2965 16.1251 20.692 16.0969L20.6921 16.097Z" fill="white"/>
<rect x="1.5" y="7.0293" width="0.940048" height="4.07354" rx="0.470024" fill="url(#paint1_linear_14_956)"/>
<rect x="1.5" y="13.873" width="0.940048" height="4.07354" rx="0.470024" fill="url(#paint2_linear_14_956)"/>
<path d="M20.8899 7.75488C21.7795 7.75488 22.5005 8.47603 22.5005 9.36546C22.5005 10.255 21.7795 10.976 20.8899 10.976C20.0004 10.976 19.2793 10.255 19.2793 9.36546C19.2793 8.47603 20.0004 7.75488 20.8899 7.75488Z" fill="url(#paint3_linear_14_956)"/>
<path d="M20.9491 9.47918H21.5611C21.5742 9.47918 21.5803 9.47918 21.5813 9.46208C21.5863 9.39982 21.5863 9.3372 21.5813 9.27487C21.5813 9.26277 21.5752 9.25777 21.5621 9.25777H20.3442C20.3291 9.25777 20.325 9.26277 20.325 9.2769V9.45606C20.325 9.47918 20.325 9.47918 20.3492 9.47918H20.9491ZM21.5129 9.04838C21.5147 9.04382 21.5147 9.03882 21.5129 9.03432C21.5027 9.01207 21.4906 8.99084 21.4765 8.9709C21.4554 8.93684 21.4304 8.90546 21.402 8.87726C21.3886 8.86023 21.3731 8.84494 21.3557 8.83197C21.2686 8.75782 21.165 8.70535 21.0537 8.67897C20.9975 8.66636 20.9401 8.66034 20.8826 8.66085H20.342C20.327 8.66085 20.3249 8.66686 20.3249 8.67998V9.03729C20.3249 9.05237 20.3249 9.05643 20.3441 9.05643H21.5057C21.5057 9.05643 21.5157 9.0544 21.5178 9.04838H21.5128H21.5129ZM21.5129 9.68857C21.4958 9.68669 21.4786 9.68669 21.4615 9.68857H20.3452C20.3301 9.68857 20.325 9.68857 20.325 9.70872V10.0581C20.325 10.0741 20.325 10.0782 20.3452 10.0782H20.8605C20.8852 10.0801 20.9098 10.0784 20.934 10.0732C21.0088 10.0678 21.0823 10.0516 21.1525 10.0249C21.178 10.016 21.2026 10.0045 21.2259 9.99065H21.2329C21.3538 9.92782 21.4519 9.8291 21.5138 9.70792C21.5138 9.70792 21.5208 9.6927 21.5129 9.68872V9.68857ZM20.1227 10.2593V10.2533V10.0188V9.93927V9.7027C20.1227 9.68958 20.1227 9.68763 20.1066 9.68763H19.8882C19.8761 9.68763 19.8711 9.68763 19.8711 9.67154V9.48027H20.1046C20.1177 9.48027 20.1227 9.48027 20.1227 9.46317V9.27393C20.1227 9.26183 20.1227 9.25885 20.1066 9.25885H19.8882C19.8761 9.25885 19.8711 9.25885 19.8711 9.24277V9.06563C19.8711 9.05454 19.8711 9.05157 19.8872 9.05157H20.1036C20.1187 9.05157 20.1227 9.05157 20.1227 9.03244V8.48988C20.1227 8.47379 20.1227 8.46973 20.1429 8.46973H20.8978C20.9526 8.4719 21.007 8.47792 21.0609 8.48785C21.1718 8.50836 21.2784 8.548 21.3759 8.60461C21.4406 8.64266 21.5001 8.68861 21.5531 8.74151C21.5929 8.7829 21.6289 8.82769 21.6608 8.87538C21.6924 8.92372 21.7187 8.9754 21.7394 9.02939C21.7419 9.04345 21.7554 9.05295 21.7695 9.05056H21.9497C21.9728 9.05056 21.9728 9.05056 21.9738 9.07273V9.23784C21.9738 9.25393 21.9678 9.25799 21.9516 9.25799H21.8127C21.7986 9.25799 21.7946 9.25799 21.7956 9.2761C21.8011 9.33742 21.8011 9.39895 21.7956 9.46027C21.7956 9.47737 21.7956 9.4794 21.8148 9.4794H21.9737C21.9808 9.48846 21.9737 9.49752 21.9737 9.50665C21.9747 9.51832 21.9747 9.53014 21.9737 9.5418V9.66364C21.9737 9.68074 21.9687 9.68582 21.9536 9.68582H21.7633C21.7501 9.68328 21.7372 9.69176 21.7341 9.70495C21.6888 9.82273 21.6163 9.92832 21.5227 10.013C21.4885 10.0438 21.4525 10.0728 21.415 10.0995C21.3747 10.1227 21.3355 10.1468 21.2942 10.166C21.2181 10.2002 21.1384 10.2254 21.0566 10.2414C20.9789 10.2553 20.9001 10.2616 20.821 10.2606H20.1224V10.2595L20.1227 10.2593Z" fill="#FEFEFD"/>
<rect x="17.1924" y="3.96191" width="2.95346" height="2.95346" rx="1.47673" fill="url(#paint4_linear_14_956)"/>
<path d="M18.6905 4.55273L18.6787 4.59168V5.72156L18.6905 5.733L19.2282 5.42298L18.6905 4.55273Z" fill="#C1CCF8"/>
<path d="M18.6901 4.55273L18.1523 5.42298L18.6901 5.733V5.18459V4.55273Z" fill="white"/>
<path d="M18.6902 5.83232L18.6836 5.8402V6.24268L18.6902 6.26154L19.2283 5.52246L18.6902 5.83232Z" fill="#C1CCF8"/>
<path d="M18.6901 6.26154V5.83232L18.1523 5.52246L18.6901 6.26154Z" fill="white"/>
<path d="M18.6904 5.73299L19.2281 5.42297L18.6904 5.18457V5.73299Z" fill="#8197EE"/>
<path d="M18.1523 5.42297L18.6901 5.73299V5.18457L18.1523 5.42297Z" fill="#C1CCF8"/>
<rect x="2.29785" y="5.43848" width="13.7874" height="13.8443" rx="2" fill="url(#paint5_linear_14_956)"/>
<rect x="14.2617" y="10.2812" width="0.940048" height="4.07354" rx="0.470024" fill="url(#paint6_linear_14_956)"/>
<path fill-rule="evenodd" clip-rule="evenodd" d="M12.1905 14.4025C12.5865 13.8213 12.8172 13.1206 12.8172 12.3657C12.8172 11.6051 12.5836 10.9015 12.1819 10.3175L13.5721 8.9274C13.837 8.66247 13.837 8.23518 13.5721 7.97311C13.3072 7.70818 12.8799 7.70818 12.6178 7.97311L11.2248 9.36609C10.6465 8.97582 9.95147 8.74793 9.20228 8.74793C8.45594 8.74793 7.76087 8.97582 7.1826 9.36324L5.78962 7.97311C5.5247 7.70818 5.0974 7.70818 4.83533 7.97311C4.57041 8.23803 4.57041 8.66532 4.83533 8.9274L6.21976 10.3118C5.81811 10.8958 5.58167 11.6023 5.58167 12.3628C5.58167 13.1206 5.81526 13.8213 6.21122 14.4025L4.83248 15.7869C4.56756 16.0518 4.56756 16.4791 4.83248 16.7412C5.0974 17.0061 5.5247 17.0061 5.78677 16.7412L7.16551 15.3625C7.74378 15.7556 8.44454 15.9863 9.19658 15.9863C9.95147 15.9863 10.6522 15.7556 11.2334 15.3596L12.6149 16.7412C12.8799 17.0061 13.3072 17.0061 13.5692 16.7412C13.8342 16.4763 13.8342 16.049 13.5692 15.7869L12.1905 14.4025ZM9.19943 14.1062C8.23944 14.1062 7.46177 13.3285 7.46177 12.3685C7.46177 11.4086 8.23944 10.6309 9.19943 10.6309C10.1594 10.6309 10.9371 11.4086 10.9371 12.3685C10.9371 13.3285 10.1594 14.1062 9.19943 14.1062Z" fill="url(#paint7_linear_14_956)"/>
</g>
<defs>
<linearGradient id="paint0_linear_14_956" x1="21.2526" y1="26.2054" x2="17.3184" y2="26.2054" gradientUnits="userSpaceOnUse">
<stop stop-color="#7770E0"/>
<stop offset="0.46875" stop-color="#808BF7"/>
<stop offset="1" stop-color="#7770E0"/>
</linearGradient>
<linearGradient id="paint1_linear_14_956" x1="1.5" y1="9.65004" x2="2.55399" y2="9.65004" gradientUnits="userSpaceOnUse">
<stop stop-color="#F0633D"/>
<stop offset="1" stop-color="#F8845B"/>
</linearGradient>
<linearGradient id="paint2_linear_14_956" x1="1.5" y1="16.4938" x2="2.55399" y2="16.4938" gradientUnits="userSpaceOnUse">
<stop stop-color="#F1643E"/>
<stop offset="1" stop-color="#F8845B"/>
</linearGradient>
<linearGradient id="paint3_linear_14_956" x1="20.8899" y1="7.75488" x2="20.8899" y2="10.976" gradientUnits="userSpaceOnUse">
<stop stop-color="#F9AB12"/>
<stop offset="1" stop-color="#FBC856"/>
</linearGradient>
<linearGradient id="paint4_linear_14_956" x1="20.1458" y1="6.91537" x2="17.1924" y2="3.96191" gradientUnits="userSpaceOnUse">
<stop stop-color="#556ECC"/>
<stop offset="1" stop-color="#627EEA"/>
</linearGradient>
<linearGradient id="paint5_linear_14_956" x1="17.6805" y1="12.3606" x2="4.3916" y2="12.3606" gradientUnits="userSpaceOnUse">
<stop stop-color="#A3ABF8"/>
<stop offset="1" stop-color="#7770E0"/>
</linearGradient>
<linearGradient id="paint6_linear_14_956" x1="14.2617" y1="12.902" x2="15.3157" y2="12.902" gradientUnits="userSpaceOnUse">
<stop stop-color="#F1643E"/>
<stop offset="1" stop-color="#F8845B"/>
</linearGradient>
<linearGradient id="paint7_linear_14_956" x1="7.89547" y1="13.6283" x2="13.5073" y2="8.01655" gradientUnits="userSpaceOnUse">
<stop stop-color="white"/>
<stop offset="1" stop-color="#C1CCF8"/>
</linearGradient>
</defs>
</svg>
