<svg width="16" height="16" viewBox="0 0 16 16" fill="none" xmlns="http://www.w3.org/2000/svg">
<rect x="3" y="7" width="10" height="8" rx="1" stroke="#C0C9FF" stroke-linecap="round" stroke-linejoin="round"/>
<path d="M5.46916 4.74013C5.21009 4.48106 5.08055 4.35153 5.03202 4.20216C4.98933 4.07077 4.98933 3.92923 5.03202 3.79784C5.08055 3.64847 5.21009 3.51894 5.46916 3.25987L7.25987 1.46916C7.51894 1.21009 7.64847 1.08055 7.79784 1.03202C7.92923 0.989327 8.07077 0.989327 8.20216 1.03202C8.35153 1.08055 8.48106 1.21009 8.74013 1.46916L10.5308 3.25987C10.7899 3.51894 10.9194 3.64847 10.968 3.79784C11.0107 3.92923 11.0107 4.07077 10.968 4.20216C10.9194 4.35153 10.7899 4.48106 10.5308 4.74013L8.74013 6.53084C8.48106 6.78991 8.35153 6.91945 8.20216 6.96798C8.07077 7.01067 7.92923 7.01067 7.79784 6.96798C7.64847 6.91945 7.51894 6.78991 7.25987 6.53084L5.46916 4.74013Z" stroke="#C0C9FF" stroke-linecap="round" stroke-linejoin="round"/>
<path d="M6 9H10" stroke="#C0C9FF" stroke-linecap="round"/>
</svg>
