<svg width="16" height="16" viewBox="0 0 16 16" fill="none" xmlns="http://www.w3.org/2000/svg">
<path d="M12 5.33366V4.80033C12 4.05359 12 3.68022 11.8547 3.395C11.7268 3.14412 11.5229 2.94015 11.272 2.81232C10.9868 2.66699 10.6134 2.66699 9.86667 2.66699H4.13333C3.3866 2.66699 3.01323 2.66699 2.72801 2.81232C2.47713 2.94015 2.27316 3.14412 2.14532 3.395C2 3.68022 2 4.05359 2 4.80033V5.33366M14 8.00033H12.6667C11.9303 8.00033 11.3333 8.59728 11.3333 9.33366C11.3333 10.07 11.9303 10.667 12.6667 10.667H14M2 5.33366V11.2003C2 11.9471 2 12.3204 2.14532 12.6056C2.27316 12.8565 2.47713 13.0605 2.72801 13.1883C3.01323 13.3337 3.3866 13.3337 4.13333 13.3337H11.8667C12.6134 13.3337 12.9868 13.3337 13.272 13.1883C13.5229 13.0605 13.7268 12.8565 13.8547 12.6056C14 12.3204 14 11.9471 14 11.2003V7.46699C14 6.72026 14 6.34689 13.8547 6.06167C13.7268 5.81079 13.5229 5.60681 13.272 5.47898C12.9868 5.33366 12.6134 5.33366 11.8667 5.33366H2Z" stroke="#C0C9FF" stroke-linecap="round" stroke-linejoin="round"/>
</svg>
