<svg width="20" height="20" viewBox="0 0 20 20" fill="none" xmlns="http://www.w3.org/2000/svg">
<path d="M19 10C19 14.9706 14.9706 19 10 19M19 10C19 5.02944 14.9706 1 10 1M19 10C19 11.6569 14.9706 13 10 13C5.02944 13 1 11.6569 1 10M19 10C19 8.34315 14.9706 7 10 7C5.02944 7 1 8.34315 1 10M10 19C5.02944 19 1 14.9706 1 10M10 19C8.34315 19 7 14.9706 7 10C7 5.02944 8.34315 1 10 1M10 19C11.6569 19 13 14.9706 13 10C13 5.02944 11.6569 1 10 1M1 10C1 5.02944 5.02944 1 10 1" stroke="#8E97CD" stroke-linecap="round" stroke-linejoin="round"/>
</svg>
