<svg width="24" height="24" viewBox="0 0 24 24" fill="none" xmlns="http://www.w3.org/2000/svg">
<path d="M12 15.3334V7.55566M12 15.3334C8.93175 15.3334 6.44444 17.8207 6.44444 20.889M12 15.3334C15.0682 15.3334 17.5556 17.8207 17.5556 20.889M5.33333 12.0001L4.22222 10.889M18.6667 12.0001L19.7778 10.889M2 20.889H22" stroke="#F7F7FC" stroke-linecap="round" stroke-linejoin="round"/>
<path d="M8.66602 20.889C8.66602 19.048 10.1584 17.5557 11.9993 17.5557C13.8403 17.5557 15.3327 19.048 15.3327 20.889" stroke="#F7F7FC" stroke-linecap="round" stroke-linejoin="round"/>
<path d="M17.2076 3.1458C17.7632 5.36802 17.5409 9.59025 12.2076 8.70136C11.652 6.66432 11.8743 2.70136 17.2076 3.1458Z" stroke="#F7F7FC" stroke-linejoin="round"/>
<path d="M6.65373 3.1458C6.09818 5.36802 6.3204 9.59025 11.6537 8.70136C12.2093 6.66432 11.9871 2.70136 6.65373 3.1458Z" stroke="#F7F7FC" stroke-linejoin="round"/>
</svg>
